<?xml version="1.0" encoding="UTF-8" standalone="no" ?>
<!DOCTYPE svg PUBLIC "-//W3C//DTD SVG 1.1//EN" "http://www.w3.org/Graphics/SVG/1.1/DTD/svg11.dtd">
<svg xmlns="http://www.w3.org/2000/svg" xmlns:xlink="http://www.w3.org/1999/xlink" version="1.1" width="100" height="100" viewBox="0 0 100 100" xml:space="preserve">
<desc>Created with Fabric.js 4.6.0</desc>
<defs>
</defs>
<g transform="matrix(0.18 0 0 0.18 50.05 50)" id="vdst2xg62X8zFLH5fzNpg"  >
<g style="" vector-effect="non-scaling-stroke"   >
		<g transform="matrix(1.07 0 0 1.07 0 53.66)" id="fV4FUuXiqQbB_o3Zjg4v8"  >
<path style="stroke: none; stroke-width: 1; stroke-dasharray: none; stroke-linecap: butt; stroke-dashoffset: 0; stroke-linejoin: miter; stroke-miterlimit: 4; fill: rgb(38,77,228); fill-rule: nonzero; opacity: 1;" vector-effect="non-scaling-stroke"  transform=" translate(-256, -306.31)" d="M 437.367 100.62 L 404.321 470.819 L 255.77800000000002 512 L 107.64400000000003 470.877 L 74.63300000000004 100.62 z" stroke-linecap="round" />
</g>
		<g transform="matrix(1.07 0 0 1.07 79.08 53.02)" id="soypwJx2zubg8n_P1gAnC"  >
<path style="stroke: none; stroke-width: 1; stroke-dasharray: none; stroke-linecap: butt; stroke-dashoffset: 0; stroke-linejoin: miter; stroke-miterlimit: 4; fill: rgb(41,101,241); fill-rule: nonzero; opacity: 1;" vector-effect="non-scaling-stroke"  transform=" translate(-330.13, -305.71)" d="M 376.03 447.246 L 404.27 130.894 L 255.99999999999997 130.894 L 255.99999999999997 480.523 z" stroke-linecap="round" />
</g>
		<g transform="matrix(1.07 0 0 1.07 -56.37 37.25)" id="D-67S-EAElcTRshAf4hw-"  >
<path style="stroke: none; stroke-width: 1; stroke-dasharray: none; stroke-linecap: butt; stroke-dashoffset: 0; stroke-linejoin: miter; stroke-miterlimit: 4; fill: rgb(235,235,235); fill-rule: nonzero; opacity: 1;" vector-effect="non-scaling-stroke"  transform=" translate(-203.16, -290.92)" d="M 150.31 268.217 L 154.38 313.62699999999995 L 256 313.62699999999995 L 256 268.217 z" stroke-linecap="round" />
</g>
		<g transform="matrix(1.07 0 0 1.07 -60.73 -60.79)" id="MZGmRTJD94aQ_dJbSX-GN"  >
<path style="stroke: none; stroke-width: 1; stroke-dasharray: none; stroke-linecap: butt; stroke-dashoffset: 0; stroke-linejoin: miter; stroke-miterlimit: 4; fill: rgb(235,235,235); fill-rule: nonzero; opacity: 1;" vector-effect="non-scaling-stroke"  transform=" translate(-199.07, -199.01)" d="M 256 176.305 L 255.843 176.305 L 142.132 176.305 L 146.26 221.716 L 256 221.716 z" stroke-linecap="round" />
</g>
		<g transform="matrix(1.07 0 0 1.07 -53.12 137.49)" id="9g2yOP6BcpkL_zWSAFoPN"  >
<path style="stroke: none; stroke-width: 1; stroke-dasharray: none; stroke-linecap: butt; stroke-dashoffset: 0; stroke-linejoin: miter; stroke-miterlimit: 4; fill: rgb(235,235,235); fill-rule: nonzero; opacity: 1;" vector-effect="non-scaling-stroke"  transform=" translate(-206.2, -384.89)" d="M 256 433.399 L 256 386.153 L 255.801 386.206 L 205.22699999999998 372.55 L 201.99399999999997 336.333 L 177.41899999999998 336.333 L 156.409 336.333 L 162.771 407.634 L 255.791 433.457 z" stroke-linecap="round" />
</g>
		<g transform="matrix(1.07 0 0 1.07 -73.07 -236.27)" id="_cPnkyDaboMuMHJUxOJsj"  >
<path style="stroke: none; stroke-width: 1; stroke-dasharray: none; stroke-linecap: butt; stroke-dashoffset: 0; stroke-linejoin: miter; stroke-miterlimit: 4; fill: rgb(0,0,0); fill-rule: nonzero; opacity: 1;" vector-effect="non-scaling-stroke"  transform=" translate(-187.5, -34.5)" d="M 160 0 L 215 0 L 215 23 L 183 23 L 183 46 L 215 46 L 215 69 L 160 69 z" stroke-linecap="round" />
</g>
		<g transform="matrix(1.07 0 0 1.07 -2.67 -235.73)" id="SGHl1NRrYYhOHuJlbG1lX"  >
<path style="stroke: none; stroke-width: 1; stroke-dasharray: none; stroke-linecap: butt; stroke-dashoffset: 0; stroke-linejoin: miter; stroke-miterlimit: 4; fill: rgb(0,0,0); fill-rule: nonzero; opacity: 1;" vector-effect="non-scaling-stroke"  transform=" translate(-253.5, -35)" d="M 226 0 L 281 0 L 281 20 L 249 20 L 249 24 L 281 24 L 281 70 L 226 70 L 226 49 L 258 49 L 258 45 L 226 45 z" stroke-linecap="round" />
</g>
		<g transform="matrix(1.07 0 0 1.07 67.73 -235.73)" id="IazyhtEbxcEInOKDNQ1nX"  >
<path style="stroke: none; stroke-width: 1; stroke-dasharray: none; stroke-linecap: butt; stroke-dashoffset: 0; stroke-linejoin: miter; stroke-miterlimit: 4; fill: rgb(0,0,0); fill-rule: nonzero; opacity: 1;" vector-effect="non-scaling-stroke"  transform=" translate(-319.5, -35)" d="M 292 0 L 347 0 L 347 20 L 315 20 L 315 24 L 347 24 L 347 70 L 292 70 L 292 49 L 324 49 L 324 45 L 292 45 z" stroke-linecap="round" />
</g>
		<g transform="matrix(1.07 0 0 1.07 60.5 52.13)" id="b7PGMA_l8N03aSm9YIMqc"  >
<path style="stroke: none; stroke-width: 1; stroke-dasharray: none; stroke-linecap: butt; stroke-dashoffset: 0; stroke-linejoin: miter; stroke-miterlimit: 4; fill: rgb(255,255,255); fill-rule: nonzero; opacity: 1;" vector-effect="non-scaling-stroke"  transform=" translate(-312.72, -304.87)" d="M 311.761 313.627 L 306.49 372.521 L 255.84300000000002 386.19100000000003 L 255.84300000000002 433.43500000000006 L 348.937 407.63400000000007 L 349.62 399.96200000000005 L 360.291 280.41100000000006 L 361.399 268.21700000000004 L 369.597 176.30500000000004 L 255.84299999999996 176.30500000000004 L 255.84299999999996 221.71600000000004 L 319.83099999999996 221.71600000000004 L 315.69899999999996 268.21700000000004 L 255.84299999999996 268.21700000000004 L 255.84299999999996 313.62700000000007 z" stroke-linecap="round" />
</g>
</g>
</g>
</svg>