<svg width="100" height="100" xmlns="http://www.w3.org/2000/svg" version="1.1">
 <defs>
  <clipPath id="clip1">
   <path id="svg_1" d="m0.0625,0.0581l99.87891,0l0,99.87891l-99.87891,0l0,-99.87891zm0,0"/>
  </clipPath>
 </defs>
 <g>
  <title>Layer 1</title>
  <g id="surface1">
   <g id="svg_2" clip-rule="nonzero" clip-path="url(#clip1)">
    <path id="svg_3" fill="rgb(94.117647%,23.529412%,18.039216%)" fill-rule="nonzero" d="m98.05859,45.55029l-43.60937,-43.60547c-2.51172,-2.51172 -6.58594,-2.51172 -9.10156,0l-9.05078,9.0586l11.48437,11.48437c2.75391,-0.9375 5.80078,-0.22656 7.85938,1.82813c2.07031,2.07422 2.77343,5.14453 1.8125,7.91015l11.07421,11.07032c2.76954,-0.96094 5.83985,-0.25391 7.91016,1.8164c2.98828,2.98828 2.98828,7.83594 0,10.82422c-2.99219,2.98828 -7.83984,2.98828 -10.83203,0c-2.17969,-2.1875 -2.83594,-5.46875 -1.66016,-8.32422l-10.32422,-10.32422l0,27.17188c2.21094,1.08984 3.75782,3.18359 4.16016,5.61328c0.40234,2.43359 -0.39453,4.91406 -2.14062,6.65625c-2.98829,2.98828 -7.83204,2.98828 -10.82032,0c-2.99218,-2.98828 -2.99218,-7.83594 0,-10.82422c0.71485,-0.71484 1.56641,-1.28516 2.50391,-1.67187l0,-27.42188c-1.88672,-0.77344 -3.38281,-2.26953 -4.16406,-4.15625c-0.77735,-1.88281 -0.77344,-4 0.01172,-5.87891l-11.32422,-11.32812l-29.90625,29.89844c-2.50782,2.51172 -2.50782,6.58593 0,9.09765l43.61328,43.61328c2.51172,2.50782 6.58203,2.50782 9.09765,0l43.40625,-43.40625c2.50782,-2.51562 2.50782,-6.58593 0,-9.10156"/>
   </g>
  </g>
 </g>
</svg>