<svg width="100" height="100" xmlns="http://www.w3.org/2000/svg" version="1.1">
 <g>
  <title>Layer 1</title>
  <g stroke="null" id="surface1">
   <path stroke="null" id="svg_1" fill="rgb(14.117647%,16.078431%,18.431373%)" fill-rule="evenodd" d="m50.04011,0.97575c-27.56865,0 -49.85567,22.47086 -49.85567,50.26931c0,22.21808 14.2784,41.02742 34.09121,47.68403c2.47421,0.50174 3.38193,-1.08007 3.38193,-2.41292c0,-1.16433 -0.08043,-5.15907 -0.08043,-9.32233c-13.86858,2.99893 -16.75643,-5.99018 -16.75643,-5.99018c-2.22909,-5.8255 -5.53059,-7.32304 -5.53059,-7.32304c-4.5386,-3.07936 0.32939,-3.07936 0.32939,-3.07936c5.03651,0.33322 7.67923,5.15907 7.67923,5.15907c4.45434,7.65626 11.63567,5.49229 14.52352,4.16326c0.41364,-3.24788 1.73501,-5.49611 3.14063,-6.74088c-11.06499,-1.16817 -22.70066,-5.49611 -22.70066,-24.80336c0,-5.49228 1.98013,-9.98492 5.11694,-13.48175c-0.49408,-1.2486 -2.22909,-6.40766 0.49408,-13.31706c0,0 4.20922,-1.32903 13.70389,5.15907c4.06367,-1.09922 8.25374,-1.65841 12.46296,-1.66224c4.20922,0 8.50269,0.58217 12.46295,1.66224c9.49468,-6.4881 13.7039,-5.15907 13.7039,-5.15907c2.72316,6.9094 0.98815,12.06846 0.49407,13.31706c3.22107,3.49683 5.11694,7.98947 5.11694,13.48175c0,19.30725 -11.63566,23.55093 -22.78109,24.80336c1.81544,1.57797 3.38575,4.57307 3.38575,9.31849c0,6.74088 -0.08425,12.15272 -0.08425,13.81497c0,1.33285 0.90772,2.91466 3.38575,2.41292c19.80899,-6.65661 34.09121,-25.46595 34.09121,-47.68403c0.08043,-27.79845 -22.28702,-50.26931 -49.77523,-50.26931zm0,0"/>
  </g>
 </g>

</svg>