<svg width="100" height="100" xmlns="http://www.w3.org/2000/svg" version="1.1">

 <g>
  <title>Layer 1</title>
  <g stroke="null" id="surface1">
   <path stroke="null" id="svg_1" fill="rgb(95.294118%,85.882353%,29.803922%)" fill-rule="evenodd" d="m1.7757,50l0,48.22429l96.44859,0l0,-96.44859l-96.44859,0l0,48.22429m74.75519,-4.40047c3.87678,0.28257 6.69866,1.52962 9.03829,4.00487c0.78364,0.82509 2.33963,2.98012 2.27558,3.14965c-0.02637,0.07912 -6.66474,4.36279 -6.8908,4.44944c-0.07912,0.03391 -0.27879,-0.20345 -0.56889,-0.66686c-3.10444,-5.00327 -10.63572,-3.64319 -9.57705,1.73307c0.39182,1.98925 1.4844,2.80681 6.83429,5.11253c6.02049,2.59959 8.85367,4.46452 10.7073,7.04527c2.75406,3.83911 2.93866,10.0103 0.41819,14.11314c-4.67926,7.62547 -19.43288,8.17176 -26.62131,0.98709c-1.49193,-1.49571 -3.225,-3.97474 -2.95374,-4.22716c0.14693,-0.13941 7.11685,-4.16312 7.20728,-4.16312c0.03767,0 0.3014,0.33907 0.58773,0.75728c2.20777,3.23253 4.65666,4.59637 8.26971,4.60391c4.16688,0.00754 6.56303,-1.94781 6.17874,-5.03341c-0.27879,-2.23037 -1.62757,-3.26644 -7.50868,-5.78314c-8.16799,-3.49249 -11.16316,-6.45 -11.95811,-11.81118c-1.30357,-8.77079 5.0108,-14.95707 14.56147,-14.27138m-22.43183,17.21382c-0.02637,15.36019 -0.04144,16.81822 -0.18461,17.53404c-1.28472,6.38219 -5.15397,9.67877 -11.95811,10.18362c-6.4274,0.47847 -11.68686,-2.23414 -14.46729,-7.4597l-0.40313,-0.76104l3.62813,-2.19646c1.99678,-1.20938 3.65449,-2.20778 3.68841,-2.21907c0.0339,-0.01507 0.27126,0.34284 0.53498,0.78741c1.64264,2.81434 3.02156,3.77883 5.39509,3.77883c2.70508,0 4.00488,-0.96449 4.58885,-3.40207c0.15446,-0.64049 0.16954,-1.68409 0.19591,-16.84083l0.03014,-16.15891l8.98177,0l-0.03014,16.75418"/>
   <path stroke="null" id="svg_2" fill="rgb(20.392157%,20.392157%,20.392157%)" fill-rule="evenodd" d="m73.53195,45.60706c-7.9005,0.65178 -12.70409,6.5781 -11.56253,14.26385c0.79495,5.36118 3.79012,8.31869 11.95811,11.81118c5.88111,2.5167 7.22988,3.55277 7.50868,5.78314c0.38429,3.0856 -2.01186,5.04095 -6.17874,5.03341c-3.61305,-0.00753 -6.06195,-1.37137 -8.26971,-4.60391c-0.28633,-0.4182 -0.55006,-0.75728 -0.58773,-0.75728c-0.09042,0 -7.06035,4.02371 -7.20728,4.16312c-0.27126,0.25242 1.4618,2.73145 2.95374,4.22716c7.18844,7.18467 21.94205,6.63837 26.62131,-0.98709c2.52047,-4.10284 2.33587,-10.27403 -0.41819,-14.11314c-1.85363,-2.58075 -4.6868,-4.44568 -10.7073,-7.04527c-5.34989,-2.30572 -6.44247,-3.12328 -6.83429,-5.11253c-0.54629,-2.76913 1.2998,-4.8262 4.31382,-4.8149c2.26051,0.00753 3.9785,1.0097 5.26323,3.08183c0.2901,0.46341 0.48978,0.70077 0.56889,0.66686c0.22606,-0.08665 6.86443,-4.37033 6.8908,-4.44944c0.06405,-0.16954 -1.49193,-2.32457 -2.27558,-3.14965c-2.8897,-3.05545 -6.98499,-4.41176 -12.03724,-3.99734m-28.41466,16.61101c-0.02637,15.15674 -0.04144,16.20034 -0.19591,16.84083c-0.58397,2.43758 -1.88377,3.40207 -4.58885,3.40207c-2.37353,0 -3.75245,-0.96449 -5.39509,-3.77883c-0.26372,-0.44457 -0.50108,-0.80248 -0.53498,-0.78741c-0.03391,0.01129 -1.69162,1.00969 -3.68841,2.21907l-3.62813,2.19646l0.40313,0.76104c2.78043,5.22556 8.03989,7.93817 14.46729,7.4597c6.80414,-0.50485 10.67339,-3.80143 11.95811,-10.18362c0.14317,-0.71582 0.15824,-2.17385 0.18461,-17.53404l0.03014,-16.75418l-8.98177,0l-0.03014,16.15891"/>
  </g>
 </g>
</svg>