<svg width="99.99999999999999" height="99.99999999999999" xmlns="http://www.w3.org/2000/svg" version="1.1">

 <g>
  <title>Layer 1</title>
  <g stroke-width="1.5" stroke="null" id="surface1">
   <path stroke="null" id="svg_1" fill="rgb(32.54902%,50.980392%,63.137255%)" fill-rule="nonzero" d="m74.36524,78.54933l-0.37109,0l0,-0.20703l1.0039,0l0,0.20703l-0.37109,0l0,1.03516l-0.26172,0l0,-1.03516zm2.00391,0.05469l-0.00782,0l-0.36718,0.98047l-0.17188,0l-0.36719,-0.98047l-0.0039,0l0,0.98047l-0.2461,0l0,-1.24219l0.36328,0l0.33985,0.8789l0.33984,-0.8789l0.35938,0l0,1.24219l-0.23828,0l0,-0.98047zm0,0"/>
   <path stroke="null" id="svg_2" fill="rgb(32.54902%,50.980392%,63.137255%)" fill-rule="nonzero" d="m40.98633,53.15089c0,0 -2.59375,1.5 1.84766,2.00781c5.37891,0.60938 8.12891,0.52344 14.05469,-0.59375c0,0 1.55859,0.97266 3.73828,1.81641c-13.29297,5.66016 -30.07813,-0.32812 -19.64063,-3.23047"/>
   <path stroke="null" id="svg_3" fill="rgb(32.54902%,50.980392%,63.137255%)" fill-rule="nonzero" d="m39.36133,45.76417c0,0 -2.91015,2.14063 1.53516,2.59766c5.74609,0.58984 10.28516,0.63672 18.13672,-0.86719c0,0 1.08594,1.09766 2.79297,1.69531c-16.06641,4.67188 -33.96485,0.36719 -22.46485,-3.42578"/>
   <path stroke="null" id="svg_4" fill="rgb(97.254902%,59.607843%,11.372549%)" fill-rule="nonzero" d="m53.05274,33.22902c3.27344,3.75 -0.85938,7.12109 -0.85938,7.12109c0,0 8.3125,-4.26562 4.4961,-9.60937c-3.56641,-4.98438 -6.30469,-7.45704 8.5039,-15.9961c0,0 -23.24218,5.77344 -12.14062,18.48438"/>
   <path stroke="null" id="svg_5" fill="rgb(32.54902%,50.980392%,63.137255%)" fill-rule="nonzero" d="m70.63086,58.61574c0,0 1.91797,1.57421 -2.11718,2.78906c-7.66797,2.3125 -31.92578,3.00781 -38.66407,0.09375c-2.42187,-1.04688 2.1211,-2.5 3.54688,-2.8086c1.49219,-0.32031 2.34375,-0.25781 2.34375,-0.25781c-2.69531,-1.88672 -17.41406,3.70313 -7.47656,5.30469c27.09765,4.36719 49.39453,-1.96875 42.36718,-5.12109"/>
   <path stroke="null" id="svg_6" fill="rgb(32.54902%,50.980392%,63.137255%)" fill-rule="nonzero" d="m42.23243,38.10792c0,0 -12.33594,2.91407 -4.36719,3.97266c3.36328,0.44531 10.07031,0.34375 16.32031,-0.17578c5.10547,-0.42578 10.23438,-1.33594 10.23438,-1.33594c0,0 -1.80078,0.76563 -3.10547,1.64844c-12.52735,3.27734 -36.73438,1.7539 -29.76563,-1.59766c5.89453,-2.83203 10.6836,-2.51172 10.6836,-2.51172"/>
   <path stroke="null" id="svg_7" fill="rgb(32.54902%,50.980392%,63.137255%)" fill-rule="nonzero" d="m64.36915,50.4087c12.73437,-6.58203 6.84765,-12.90234 2.73437,-12.05078c-1.00781,0.20703 -1.45703,0.38672 -1.45703,0.38672c0,0 0.375,-0.58203 1.08984,-0.83203c8.13282,-2.84375 14.38672,8.37891 -2.625,12.82422c0,0 0.19532,-0.17188 0.25782,-0.32813"/>
   <path stroke="null" id="svg_8" fill="rgb(97.254902%,59.607843%,11.372549%)" fill-rule="nonzero" d="m56.68946,0.96339c0,0 7.05078,7.01563 -6.69141,17.80078c-11.02344,8.65235 -2.51172,13.58594 -0.0039,19.22266c-6.4336,-5.77344 -11.15625,-10.85156 -7.98829,-15.57813c4.64844,-6.9414 17.52735,-10.30468 14.6836,-21.44531"/>
   <path stroke="null" id="svg_9" fill="rgb(32.54902%,50.980392%,63.137255%)" fill-rule="nonzero" d="m43.48633,68.23683c12.22266,0.77734 31,-0.43359 31.44532,-6.18359c0,0 -0.85547,2.17968 -10.10547,3.91015c-10.4336,1.95313 -23.30469,1.72656 -30.9375,0.47266c0,0 1.5625,1.28515 9.59765,1.80078"/>
   <path stroke="null" id="svg_10" fill="rgb(32.54902%,50.980392%,63.137255%)" fill-rule="nonzero" d="m41.48243,90.20949c-1.15625,0.99218 -2.3711,1.55078 -3.46485,1.55078c-1.5625,0 -2.40234,-0.92969 -2.40234,-2.42188c0,-1.61328 0.90234,-2.79297 4.52344,-2.79297l1.34375,0l0,3.66407m3.17968,3.5664l0,-11.04687c0,-2.82422 -1.61718,-4.6836 -5.52343,-4.6836c-2.27735,0 -4.27344,0.5586 -5.89844,1.27344l0.46875,1.95313c1.27734,-0.46485 2.93359,-0.89844 4.55469,-0.89844c2.25,0 3.21875,0.89844 3.21875,2.76172l0,1.39453l-1.125,0c-5.46485,0 -7.92969,2.10937 -7.92969,5.27344c0,2.73046 1.625,4.28515 4.68359,4.28515c1.96875,0 3.4336,-0.80859 4.8086,-1.98828l0.24609,1.67578l2.49609,0zm0,0"/>
   <path stroke="null" id="svg_11" fill="rgb(32.54902%,50.980392%,63.137255%)" fill-rule="nonzero" d="m55.28321,93.77589l-3.96875,0l-4.77735,-15.45312l3.46875,0l2.96485,9.49609l0.65625,2.85547c1.5,-4.12891 2.5625,-8.31641 3.08984,-12.35156l3.375,0c-0.90625,5.08984 -2.53125,10.67578 -4.80859,15.45312"/>
   <path stroke="null" id="svg_12" fill="rgb(32.54902%,50.980392%,63.137255%)" fill-rule="nonzero" d="m70.50977,90.20949c-1.15234,0.99218 -2.375,1.55078 -3.46875,1.55078c-1.55469,0 -2.40234,-0.92969 -2.40234,-2.42188c0,-1.61328 0.90625,-2.79297 4.53125,-2.79297l1.33984,0l0,3.66407m3.18359,3.5664l0,-11.04687c0,-2.82422 -1.625,-4.6836 -5.52343,-4.6836c-2.28125,0 -4.27735,0.5586 -5.90235,1.27344l0.46875,1.95313c1.27735,-0.46485 2.9375,-0.89844 4.5586,-0.89844c2.24609,0 3.21484,0.89844 3.21484,2.76172l0,1.39453l-1.125,0c-5.46484,0 -7.92969,2.10937 -7.92969,5.27344c0,2.73046 1.625,4.28515 4.6836,4.28515c1.96484,0 3.43359,-0.80859 4.80859,-1.98828l0.25,1.67578l2.49609,0zm0,0"/>
   <path stroke="null" id="svg_13" fill="rgb(32.54902%,50.980392%,63.137255%)" fill-rule="nonzero" d="m28.93946,96.40089c-0.90625,1.31641 -2.3711,2.35938 -3.97656,2.94922l-1.57032,-1.83984c1.21875,-0.6211 2.26563,-1.62891 2.75391,-2.56641c0.42187,-0.83203 0.59375,-1.90625 0.59375,-4.47266l0,-17.64453l3.38281,0l0,17.40235c0,3.43359 -0.27734,4.82031 -1.18359,6.17187"/>
  </g>
 </g>
</svg>