<svg width="100.00000000000001" height="100.00000000000001" xmlns="http://www.w3.org/2000/svg" version="1.1">

 <g>
  <title>Layer 1</title>
  <g id="surface1">
   <path id="svg_1" fill="rgb(82.745098%,21.960784%,20%)" fill-rule="evenodd" d="m84.84571,48.20806c0,19.60547 -15.60156,35.49609 -34.84766,35.49609c-19.24219,0 -34.84375,-15.89062 -34.84375,-35.49609c0,-19.60547 15.60156,-35.5 34.84375,-35.5c19.2461,0 34.84766,15.89453 34.84766,35.5"/>
   <path id="svg_2" fill="rgb(93.72549%,23.921569%,22.745098%)" fill-rule="nonzero" d="m16.57618,56.99712c0,0 -2.52344,-37.01562 31.72265,-38.07422l-2.38672,-3.96875l-18.58593,6.21485l-5.3086,6.08203l-4.64453,8.85937l-2.65625,10.3125l0.79688,6.875"/>
   <path id="svg_3" fill="rgb(13.72549%,12.156863%,12.54902%)" fill-rule="nonzero" d="m26.13477,23.98931c-6.11328,6.23047 -9.89844,14.83203 -9.89844,24.35156c0,9.51172 3.78516,18.11719 9.89844,24.34375c6.11719,6.23047 14.54688,10.07422 23.86328,10.07422c9.32031,0 17.75,-3.84375 23.86719,-10.07422c6.11328,-6.22656 9.89844,-14.83203 9.89844,-24.34375c0,-9.51953 -3.78516,-18.12109 -9.89844,-24.35156c-6.11719,-6.22656 -14.54688,-10.07031 -23.86719,-10.07031c-9.3164,0 -17.74609,3.84375 -23.86328,10.07031zm-1.54687,50.20312c-6.5,-6.61718 -10.51563,-15.76562 -10.51563,-25.85156c0,-10.09375 4.01563,-19.23828 10.51563,-25.85547c6.49609,-6.62109 15.48828,-10.72265 25.41015,-10.72265c9.92578,0 18.91797,4.10156 25.41406,10.72265c6.4961,6.61719 10.51563,15.76563 10.51563,25.85547c0,10.08594 -4.01953,19.23438 -10.51563,25.85156c-6.49609,6.6211 -15.48828,10.72266 -25.41406,10.72266c-9.92187,0 -18.91406,-4.10156 -25.41015,-10.72266"/>
   <path id="svg_4" fill="rgb(94.117647%,83.921569%,71.764706%)" fill-rule="evenodd" d="m64.66602,48.40337l-5.30859,0.79297l-7.16797,0.79297l-4.64453,0.13281l-4.51563,-0.13281l-3.44922,-1.05859l-3.05468,-3.30469l-2.39063,-6.74219l-0.53125,-1.45312l-3.18359,-1.0586l-1.85938,-3.03906l-1.32812,-4.36328l1.46093,-3.83594l3.45313,-1.1875l2.78516,1.32031l1.32812,2.91016l1.59375,-0.26563l0.53125,-0.66015l-0.53125,-3.04297l-0.13281,-3.83203l0.79687,-5.28906l-0.03125,-3.01954l2.41797,-3.85546l4.25,-3.04297l7.4336,-3.17188l8.23046,1.19141l7.16797,5.15625l3.32032,5.28906l2.12109,3.83203l0.53125,9.51953l-1.59375,8.19922l-2.91797,7.26953l-2.78906,3.83594"/>
   <path id="svg_5" fill="rgb(20%,31.372549%,38.039216%)" fill-rule="evenodd" d="m60.1543,71.27447l-18.98437,0.79296l0,3.17579l1.59375,11.10546l-0.79688,0.92579l-13.27344,-4.4961l-0.92968,-1.58594l-1.32813,-14.9414l-3.05078,-8.98828l-0.66406,-2.11719l10.61719,-7.26953l3.32031,-1.32422l2.92187,3.57031l2.51953,2.2461l2.92188,0.92578l1.32812,0.39843l1.59375,6.875l1.19141,1.45313l3.05469,-1.05859l-2.125,4.10156l11.55078,5.41797l-1.46094,0.79297"/>
   <path id="svg_6" fill="rgb(42.745098%,41.960784%,42.745098%)" fill-rule="evenodd" d="m28.69336,25.13384l3.45313,-1.1875l2.78516,1.32031l1.32812,2.91016l1.59375,-0.26563l0.39844,-1.58593l-0.79688,-3.04297l0.79688,-7.26953l-0.66406,-3.96875l2.39062,-2.77344l5.17578,-4.10156l-1.46094,-1.98047l-7.30078,3.57031l-3.05468,2.37891l-1.72266,3.69922l-2.65625,3.57031l-0.79688,4.23047l0.53125,4.49609"/>
   <path id="svg_7" fill="rgb(86.27451%,85.098039%,84.705882%)" fill-rule="evenodd" d="m34.13477,12.70806c0,0 1.99219,-4.89453 9.95703,-7.27344c7.96485,-2.3789 0.39844,-1.71875 0.39844,-1.71875l-8.62891,3.30469l-3.3164,3.30469l-1.46094,2.64453l3.05078,-0.26172"/>
   <path id="svg_8" fill="rgb(86.27451%,85.098039%,84.705882%)" fill-rule="evenodd" d="m30.1543,24.20806c0,0 -2.78906,-9.25391 7.83203,-10.57422l-0.39843,-1.58984l-7.30079,1.71875l-2.125,6.875l0.53125,4.49609l1.46094,-0.92578"/>
   <path id="svg_9" fill="rgb(96.862745%,89.411765%,80.392157%)" fill-rule="evenodd" d="m34.4004,36.50493l1.73828,-1.67578c0,0 0.78515,0.08985 0.91797,1.01563c0.13281,0.92578 0.53125,9.2539 6.23828,13.75c0.51953,0.41015 -4.2461,-0.66406 -4.2461,-0.66406l-4.25,-6.60938"/>
   <path id="svg_10" fill="rgb(96.862745%,89.411765%,80.392157%)" fill-rule="evenodd" d="m58.82618,33.99322c0,0 0.3125,-4.00782 1.39453,-3.69922c1.08203,0.30859 1.08203,1.38672 1.08203,1.38672c0,0 -2.62891,1.69531 -2.47656,2.3125"/>
   <path id="svg_11" fill="rgb(96.862745%,89.411765%,80.392157%)" fill-rule="nonzero" d="m69.84571,19.31743c0,0 -2.1875,0.46094 -2.39063,2.37891c-0.20312,1.92188 2.39063,0.39844 2.78907,0.26563"/>
   <path id="svg_12" fill="rgb(96.862745%,89.411765%,80.392157%)" fill-rule="nonzero" d="m53.78321,19.45025c0,0 -2.92188,0.39453 -2.92188,2.24609c0,1.85156 3.32032,1.71875 4.25,0.92578"/>
   <path id="svg_13" fill="rgb(96.862745%,89.411765%,80.392157%)" fill-rule="evenodd" d="m35.72852,28.044c0,0 -5.04297,-3.04297 -5.57422,-0.13282c-0.53125,2.91016 -1.72656,5.02344 0.79688,8.06641l-1.72657,-0.53125l-1.59375,-4.09766l-0.53125,-3.96484l3.05469,-3.17578l3.44922,0.26562l1.99219,1.58594l0.13281,1.98438"/>
   <path id="svg_14" fill="rgb(96.862745%,89.411765%,80.392157%)" fill-rule="evenodd" d="m38.11915,19.71587c0,0 2.25781,-11.63672 13.67187,-13.88281c9.39844,-1.85156 14.33594,0.39453 16.19531,2.51172c0,0 -8.36328,-9.91797 -16.32812,-6.875c-7.96485,3.03906 -13.80469,8.59375 -13.67188,12.16406c0.22657,6.07813 0.13282,6.08203 0.13282,6.08203"/>
   <path id="svg_15" fill="rgb(96.862745%,89.411765%,80.392157%)" fill-rule="evenodd" d="m68.91602,9.66509c0,0 -3.85156,-0.13281 -3.98437,3.30469c0,0 0,0.53125 0.26562,1.05859c0,0 3.05469,-3.4375 4.91406,-1.58594"/>
   <path id="svg_16" fill="rgb(96.862745%,89.411765%,80.392157%)" fill-rule="evenodd" d="m52.06055,14.38775c0,0 -0.66406,-5.27735 -5.17969,-2.21094c-2.92187,1.98437 -2.65625,4.76172 -2.125,5.28906c0.53125,0.53125 0.38672,1.59375 0.78907,0.86328c0.40625,-0.73047 0.27343,-3.10937 1.73437,-3.76953c1.45703,-0.66406 3.85156,-1.40234 4.78125,-0.17187"/>
   <path id="svg_17" fill="rgb(28.627451%,44.705882%,54.509804%)" fill-rule="evenodd" d="m39.58008,50.12212l-12.48047,5.55469c0,0 5.17969,20.49219 2.52344,26.83594l-1.85937,-0.66016l-0.13282,-7.80078l-3.44921,-14.80469l-1.46094,-4.10156l13.00781,-8.72266l3.85156,3.69922"/>
   <path id="svg_18" fill="rgb(28.627451%,44.705882%,54.509804%)" fill-rule="evenodd" d="m40.86133,61.45806l1.76953,2.14844l0,7.93359l-2.12109,0c0,0 -0.26562,-5.55078 -0.26562,-6.21484c0,-0.66016 0.26562,-3.03907 0.26562,-3.03907"/>
   <path id="svg_19" fill="rgb(28.627451%,44.705882%,54.509804%)" fill-rule="evenodd" d="m40.9043,72.7315l-5.97265,0.26172l1.72656,1.1914l4.24609,0.66016"/>
   <path id="svg_20" fill="rgb(20%,31.372549%,38.039216%)" fill-rule="evenodd" d="m61.34961,71.40728l4.91016,-0.13281l1.19531,12.16406l-5.04297,0.66406l-1.0625,-12.69531"/>
   <path id="svg_21" fill="rgb(20%,31.372549%,38.039216%)" fill-rule="evenodd" d="m62.67774,71.40728l7.43359,-0.39453c0,0 3.05078,-7.66797 3.05078,-8.06641c0,-0.39453 2.65625,-11.10547 2.65625,-11.10547l-5.97265,-6.21484l-1.19531,-1.05469l-3.1875,3.17188l0,12.29687l-2.78516,11.36719"/>
   <path id="svg_22" fill="rgb(28.627451%,44.705882%,54.509804%)" fill-rule="evenodd" d="m65.99415,70.4815l-4.64454,0.92578l0.66407,3.70312c1.72265,0.79297 4.64453,-1.32031 4.64453,-1.32031"/>
   <path id="svg_23" fill="rgb(28.627451%,44.705882%,54.509804%)" fill-rule="evenodd" d="m66.12696,47.34478l9.29297,6.875l0.26562,-3.17188l-7.03515,-6.47656l-2.52344,2.77344"/>
   <path id="svg_24" fill="rgb(100%,100%,100%)" fill-rule="evenodd" d="m45.51368,97.45415l-2.75,-11.10547l-1.36719,-8.19531l-0.22656,-6.08594l12.4414,-0.65625l7.73828,-0.0039l-0.70312,13.88281l1.19531,10.71094l-0.13281,1.98437l-10.08984,0.79297l-6.10547,-1.32422"/>
   <path id="svg_25" fill="rgb(86.27451%,85.098039%,84.705882%)" fill-rule="evenodd" d="m59.62305,71.27447c0,0 -0.66406,13.7539 1.32813,23.53515c0,0 -3.98438,2.51172 -9.82422,3.17188l11.15234,-0.39453l1.32422,-0.79297l-1.58984,-21.6836l-0.39844,-4.6289"/>
   <path id="svg_26" fill="rgb(100%,100%,100%)" fill-rule="evenodd" d="m67.68165,82.38384l5.17578,-1.45312l9.82422,-0.53125l1.46093,-4.4961l-2.65625,-7.79687l-3.05468,-0.39844l-4.2461,1.32031l-4.07422,1.98438l-2.16406,-0.39453l-1.6875,0.65625"/>
   <path id="svg_27" fill="rgb(86.27451%,85.098039%,84.705882%)" fill-rule="evenodd" d="m67.5879,79.73931c0,0 3.44921,-1.58594 3.98046,-1.45703l-1.45703,-7.26953l1.72266,-0.66016c0,0 1.19531,6.875 1.19531,7.66797c0,0 7.4336,0.39453 8.09766,0.39453c0,0 1.59375,-3.03906 1.19531,-6.21484l1.46094,4.23047l0.13281,2.38281l-2.125,3.17187l-2.39062,0.52735l-3.98047,-0.12891l-1.32813,-1.71875l-4.64453,0.66016l-1.46094,0.52734"/>
   <path id="svg_28" fill="rgb(100%,100%,100%)" fill-rule="nonzero" d="m62.37305,70.35259l-2.92187,-7.40234l-3.05469,-4.36328c0,0 0.66406,-1.85157 1.59375,-1.85157c0.92969,0 3.05469,0 3.05469,0l2.91797,1.0586l-0.26563,4.89062l-1.32422,7.66797"/>
   <path id="svg_29" fill="rgb(86.27451%,85.098039%,84.705882%)" fill-rule="evenodd" d="m62.94336,67.83697c0,0 -3.71875,-7.13672 -3.71875,-8.19532c0,0 0.66407,-1.58593 1.59375,-1.1914c0.92969,0.39843 2.92188,1.45703 2.92188,1.45703l0,-2.51172l-4.51563,-0.92578l-3.05078,0.39453l5.17578,12.16406l1.0625,0.13281"/>
   <path id="svg_30" fill="rgb(100%,100%,100%)" fill-rule="nonzero" d="m46.70899,50.38775l-3.67969,-0.39844l-3.44922,-1.05859l0,1.1914l1.6836,1.85156l5.3125,2.37891"/>
   <path id="svg_31" fill="rgb(86.27451%,85.098039%,84.705882%)" fill-rule="evenodd" d="m40.7754,50.78618c0,0 4.11328,1.71875 5.4414,1.32032l0.13281,1.58593l-3.71875,-0.79296l-2.2539,-1.58594l0.39844,-0.52735"/>
   <path id="svg_32" fill="rgb(82.745098%,21.960784%,20%)" fill-rule="evenodd" d="m67.66602,57.18462c-2.25,-0.0664 -4.28516,-0.33203 -6.06641,-0.83203c0.1211,-0.72656 -0.10546,-1.44141 0.07422,-1.96484c0.4961,-0.35938 1.32813,-0.35157 2.07813,-0.4375c-0.64844,-0.31641 -1.5586,-0.44141 -2.3086,-0.25782c-0.01562,-0.5039 -0.24609,-0.8164 -0.38281,-1.21484c1.26563,-0.44922 4.25781,-3.39844 5.9375,-2.42187c0.80078,0.46484 1.14063,3.12109 1.20313,4.41015c0.05468,1.07031 -0.09766,2.15235 -0.53516,2.71875"/>
   <path id="svg_33" stroke-miterlimit="4" stroke="rgb(82.745098%,21.960784%,20%)" stroke-width="2" fill="none" d="m67.66601,57.18457c-2.25,-0.06641 -4.28515,-0.33204 -6.06641,-0.83203c0.12109,-0.72656 -0.10547,-1.44141 0.07422,-1.96485c0.4961,-0.35938 1.32812,-0.35156 2.07813,-0.4375c-0.64844,-0.31641 -1.5586,-0.44141 -2.3086,-0.25781c-0.01563,-0.50391 -0.24609,-0.81641 -0.38281,-1.21485c1.26562,-0.44922 4.25781,-3.39844 5.9375,-2.42188c0.80078,0.46484 1.14062,3.1211 1.20312,4.41016c0.05468,1.07031 -0.09766,2.15234 -0.53516,2.71875zm0,0"/>
   <path id="svg_34" fill="rgb(82.745098%,21.960784%,20%)" fill-rule="evenodd" d="m56.89649,53.51665c-0.00781,0.17188 -0.01563,0.33985 -0.01953,0.51172c-0.70313,0.46094 -1.83985,0.45703 -2.60938,0.84375c1.13672,0.04688 2.03125,0.32031 2.80469,0.70703c-0.01562,0.42578 -0.03125,0.85157 -0.04687,1.28125c-1.28907,0.87891 -2.46875,2.1875 -3.98438,3.01172c-0.71875,0.39063 -3.23828,1.39453 -4,1.21485c-0.43359,-0.09766 -0.47266,-0.63282 -0.64453,-1.13672c-0.36719,-1.07813 -1.21484,-2.79297 -1.28906,-4.41407c-0.09375,-2.05078 -0.30078,-5.48437 1.91406,-5.0625c1.78906,0.33985 3.87109,1.16016 5.25391,1.91407c0.84765,0.46093 1.33593,1.03125 2.62109,1.1289"/>
   <path id="svg_35" stroke-miterlimit="4" stroke="rgb(82.745098%,21.960784%,20%)" stroke-width="2" fill="none" d="m56.89648,53.5166c-0.00781,0.17187 -0.01562,0.33984 -0.01953,0.51172c-0.70313,0.46094 -1.83985,0.45703 -2.60937,0.84375c1.13672,0.04687 2.03125,0.32031 2.80469,0.70703c-0.01563,0.42578 -0.03125,0.85156 -0.04688,1.28125c-1.28906,0.87891 -2.46875,2.1875 -3.98437,3.01172c-0.71875,0.39063 -3.23828,1.39453 -4,1.21485c-0.4336,-0.09766 -0.47266,-0.63281 -0.64453,-1.13672c-0.36719,-1.07813 -1.21484,-2.79297 -1.28906,-4.41407c-0.09375,-2.05078 -0.30078,-5.48438 1.91406,-5.0625c1.78906,0.33984 3.87109,1.16016 5.2539,1.91407c0.84766,0.46094 1.33594,1.03125 2.62109,1.12891zm0,0"/>
   <path id="svg_36" fill="rgb(82.745098%,21.960784%,20%)" fill-rule="evenodd" d="m58.17774,55.96197c-0.19922,-1.11719 -0.42578,-1.4336 -0.33594,-2.41016c2.98828,-1.98438 3.54688,3.41016 0.33594,2.41016"/>
   <path id="svg_37" stroke-miterlimit="4" stroke="rgb(82.745098%,21.960784%,20%)" stroke-width="2" fill="none" d="m58.17773,55.96191c-0.19922,-1.11719 -0.42578,-1.4336 -0.33593,-2.41016c2.98828,-1.98438 3.54687,3.41016 0.33593,2.41016zm0,0"/>
   <path id="svg_38" fill="rgb(93.72549%,23.921569%,22.745098%)" fill-rule="evenodd" d="m62.50196,56.86822c0,0 -0.92578,-1.32422 -0.26563,-1.71875c0.66407,-0.39844 1.32813,0 1.72657,-0.66407c0.39843,-0.66015 0,-1.05468 0.13281,-1.84765c0.13281,-0.79688 0.79687,-0.92578 1.46094,-1.0586c0.66406,-0.13281 2.52343,-0.39843 2.78906,0.26172l-0.79688,-2.3789l-1.59375,-0.52735l-5.04297,2.90625l-0.26562,1.45703l0,2.90625"/>
   <path id="svg_39" fill="rgb(93.72549%,23.921569%,22.745098%)" fill-rule="evenodd" d="m48.56446,61.2315c-0.15625,-2.06641 -0.32813,-4.125 -0.51563,-6.1875c-0.28125,-3.07813 0.74219,-2.53907 3.42188,-2.53907c0.41015,0 2.51953,0.48438 2.67187,0.79297c0.72266,1.47266 -1.21093,1.14453 0.83203,2.25391c1.72657,0.9375 4.77344,-0.56641 4.07813,-2.65234c-0.39063,-0.46094 -2.03516,-0.14454 -2.62109,-0.44922c-1.03907,-0.53516 -2.07422,-1.07032 -3.11329,-1.60547c-1.32031,-0.67969 -4.36718,-1.67578 -5.77343,-0.72266c-3.56641,2.41406 0.22265,8.44531 1.49609,10.96485"/>
   <path id="svg_40" fill="rgb(13.72549%,12.156863%,12.54902%)" fill-rule="evenodd" d="m52.06055,14.38775c-3.62109,-0.83985 -5.41797,1.50781 -6.51562,3.9414c-0.97657,-0.23437 -0.58985,-1.5625 -0.33985,-2.23828c0.64844,-1.77344 3.25782,-4.13672 5.39063,-3.8164c0.91406,0.14062 2.15625,0.97656 1.46484,2.11328"/>
   <path id="svg_41" fill="rgb(13.72549%,12.156863%,12.54902%)" fill-rule="evenodd" d="m69.68555,18.48931c0.0586,0.00391 0.11719,0.00391 0.17188,0.00781c0.82031,1.69141 1.52734,3.48438 2.55859,4.97656c-0.69141,1.60157 -5.23437,3.02344 -5.16406,0.14454c0.98437,-0.42969 2.67969,-0.08985 3.55078,-0.63282c-0.50391,-1.3789 -1.23047,-2.54687 -1.11719,-4.49609"/>
   <path id="svg_42" fill="rgb(13.72549%,12.156863%,12.54902%)" fill-rule="evenodd" d="m53.91211,18.53618c0.77344,1.41407 1.02735,2.90235 2.12891,3.97266c0.49609,0.48438 1.46484,1.07031 0.98438,2.41016c-0.11329,0.3164 -0.92969,1.01953 -1.40235,1.16015c-1.72265,0.50782 -5.73828,0.10547 -4.3789,-2.03515c1.42578,0.0664 3.33984,0.92187 4.40625,-0.10938c-0.81641,-1.30469 -2.27735,-3.88281 -1.73829,-5.39844"/>
   <path id="svg_43" fill="rgb(13.72549%,12.156863%,12.54902%)" fill-rule="evenodd" d="m69.04102,32.93072c-2.59766,1.66015 -5.49219,3.46484 -9.74609,3.04687c-0.90625,-0.78516 -1.25391,-2.53906 -0.3711,-3.69531c0.46094,0.78906 0.17188,2.23437 1.45313,2.45312c2.41406,0.41016 5.22265,-1.47265 6.95703,-2.1289c1.07812,-1.8086 -0.09375,-2.47266 -1.0625,-3.63672c-1.98438,-2.38281 -4.64844,-5.33594 -4.55078,-8.90235c0.80078,-0.58203 0.87109,0.88282 0.98437,1.14844c1.03907,2.41797 3.64844,5.50781 5.55078,7.57422c0.46875,0.51172 1.23829,1 1.32422,1.33594c0.2461,0.98047 -0.64453,2.15234 -0.53906,2.80469"/>
   <path id="svg_44" fill="rgb(13.72549%,12.156863%,12.54902%)" fill-rule="evenodd" d="m34.82227,31.18072c-0.81641,-0.46094 -1.00781,-2.5 -1.96484,-2.5586c-1.36328,-0.08203 -1.11719,2.64453 -1.10938,4.23828c-0.9414,-0.84765 -1.10547,-3.46484 -0.41406,-4.80859c-0.78906,-0.38672 -1.14063,0.42578 -1.57422,0.71094c0.55859,-4.0586 5.95703,-1.88282 5.0625,2.41797"/>
   <path id="svg_45" fill="rgb(13.72549%,12.156863%,12.54902%)" fill-rule="evenodd" d="m70.69336,34.61822c-1.20703,2.29296 -2.91796,4.8125 -6.46484,4.88671c-0.07031,-0.73828 -0.125,-1.86328 0.00391,-2.30859c2.71093,-0.26172 4.38672,-1.63281 6.46093,-2.57812"/>
   <path id="svg_46" fill="rgb(13.72549%,12.156863%,12.54902%)" fill-rule="evenodd" d="m53.70508,36.10259c2.26172,1.1875 6.41797,1.3125 9.49219,1.22266c0.16406,0.67187 0.16016,1.5 0.16797,2.32031c-3.95313,0.19531 -8.62109,-0.77734 -9.66016,-3.54297"/>
   <path id="svg_47" fill="rgb(13.72549%,12.156863%,12.54902%)" fill-rule="evenodd" d="m53.2754,38.31353c1.5664,3.91015 6.9414,3.46094 11.47265,3.35156c-0.19922,0.50781 -0.63281,1.10938 -1.17187,1.32422c-1.44922,0.58984 -5.45703,1.03516 -7.47266,-0.03125c-1.27734,-0.67578 -2.10156,-2.20703 -2.80078,-3.10156c-0.33984,-0.4336 -2.02344,-1.54297 -0.02734,-1.54297"/>
   <path id="svg_48" fill="rgb(50.588235%,69.019608%,76.862745%)" fill-rule="evenodd" d="m68.84961,59.88384c-1.83203,3.12891 -3.58984,6.34375 -5.76562,9.10547c0.91016,-2.67188 1.30078,-7.14453 1.44141,-10.55859c1.91015,-0.88672 3.54296,0.20312 4.32421,1.45312"/>
   <path id="svg_49" fill="rgb(13.72549%,12.156863%,12.54902%)" fill-rule="evenodd" d="m78.72461,71.13384c-2.05468,0.41016 -3.49609,2.39844 -5.5,2.26953c1.10157,-1.54687 3.03125,-2.19922 5.5,-2.26953"/>
   <path id="svg_50" fill="rgb(13.72549%,12.156863%,12.54902%)" fill-rule="evenodd" d="m79.63086,74.33697c-1.67187,0.17578 -3.64062,0.44531 -5.33984,0.30468c0.80469,-1.22265 3.90234,-0.80078 5.33984,-0.30468"/>
   <path id="svg_51" fill="rgb(13.72549%,12.156863%,12.54902%)" fill-rule="evenodd" d="m80.2129,77.09868c-1.88282,0.03907 -4.22266,0 -6.01172,-0.14843c1.05859,-1.13282 4.78906,-0.41797 6.01172,0.14843"/>
   <path id="svg_52" fill="rgb(86.27451%,85.098039%,84.705882%)" fill-rule="evenodd" d="m65.31055,84.65337c0.26953,2.35156 1.20703,4.73828 1.08985,7.31641c-1.04297,0.35156 -1.64063,0.65625 -3.03516,0.65234c-0.09766,-2.1914 -0.39063,-5.53906 -0.30078,-7.6289c0.68359,0.04687 1.69531,-0.48829 2.24609,-0.33985"/>
   <path id="svg_53" fill="rgb(94.117647%,83.921569%,71.764706%)" fill-rule="evenodd" d="m62.2754,49.95806c-0.94532,0.61328 -1.75,1.38281 -2.65625,2.03906c-2.01172,0.09766 -3.11329,-0.14062 -4.58985,-1.29297c0.02344,-0.08984 0.17188,-0.05078 0.17969,-0.16406c2.15234,0.95703 4.89062,-0.38672 7.06641,-0.58203"/>
   <path id="svg_54" fill="rgb(50.588235%,69.019608%,76.862745%)" fill-rule="evenodd" d="m50.9668,64.58697c0.58985,-2.55469 2.91016,-3.87891 5.01563,-5.28516c2.17578,2.74609 3.49609,6.28125 4.95312,9.69141c-3.4414,-1.03516 -6.95312,-2.71094 -9.96875,-4.40625"/>
   <path id="svg_55" fill="rgb(13.72549%,12.156863%,12.54902%)" fill-rule="evenodd" d="m63.06446,84.99322c-0.08985,2.08984 0.20312,5.4375 0.30078,7.6289c1.39453,0.00391 1.99219,-0.30078 3.03516,-0.65234c0.11718,-2.57813 -0.82032,-4.96485 -1.08985,-7.31641c-0.55078,-0.14844 -1.5625,0.38672 -2.24609,0.33985zm-21.71094,-11.87891c0.91797,8.41797 2.25,15.49609 4.69141,22.94922c5.42187,1.64062 11.95703,1.78125 16.74609,0.30469c-0.87891,-4.21094 -0.49219,-9.33204 -1.00781,-13.82032c-0.38672,-3.375 -0.19141,-6.76953 -0.72266,-10.21093c-5.80469,-1.20313 -14.01172,-0.28125 -19.70703,0.77734zm21.08203,-0.72656c-0.05078,3.61718 0.16016,7.17968 0.4375,10.80078c1.39453,-0.20703 2.33985,-0.34766 3.63672,-0.62891c-0.42187,-3.48437 -0.37109,-7.40625 -1.22656,-10.48828c-0.98828,0.00781 -1.86328,-0.01172 -2.84766,0.31641zm7.07031,-0.58203c-0.66406,-0.15235 -1.43359,-0.00782 -2.0625,0.0039c0.29688,2.94922 1.01563,6.19922 1.26954,9.29297c0.99609,0.03125 1.52734,-0.43359 2.34375,-0.59375c0.04296,-2.71484 -0.23829,-6.45312 -1.55079,-8.70312zm10.70704,9.74218c2.07031,-0.5 3.375,-3.03125 2.79296,-5.625c-0.38671,-1.74609 -1.08203,-5.03515 -1.82031,-6.14843c-0.55078,-0.82813 -2.03515,-1.90625 -3.22265,-1.15235c-1.92969,1.23047 -5.32813,1.58985 -6.73438,3.07813c0.70313,2.33984 0.92188,5.55468 1.21484,8.51953c2.41016,0.15234 5.375,-0.66016 7.38282,0.19922c-1.40235,0.45312 -3.21875,0.45703 -4.42578,1.11328c0.98828,0.47656 3.30078,0.3789 4.8125,0.01562zm-19.27735,-12.55468c-1.45703,-3.41016 -2.77734,-6.94532 -4.95312,-9.69141c-2.10547,1.40625 -4.42578,2.73047 -5.01563,5.28516c3.01563,1.69531 6.52735,3.37109 9.96875,4.40625zm3.58985,-10.5625c-0.14063,3.41406 -0.53125,7.88671 -1.44141,10.55859c2.17578,-2.76172 3.93359,-5.97656 5.76562,-9.10547c-0.78125,-1.25 -2.41406,-2.33984 -4.32421,-1.45312zm-4.07032,-1.4375c-0.82422,-0.08985 -1.52343,0.94531 -2.59765,0.49609c-0.2461,0.26953 -0.46875,0.56641 -0.71875,0.82812c2.37109,2.84375 3.44531,6.87891 5.27343,10.21875c0.98438,-3.21093 0.8711,-6.72656 1.08594,-10.23046c-1.34765,0.08593 -2.09765,-1.21485 -3.04297,-1.3125zm-2.61328,-3.44141c-0.08984,0.97656 0.13672,1.29297 0.33594,2.41016c3.21094,1 2.65234,-4.39454 -0.33594,-2.41016zm-3.5664,-1.16406c-1.38282,-0.75391 -3.46485,-1.57422 -5.25391,-1.91407c-2.21484,-0.42187 -2.00781,3.01172 -1.91406,5.0625c0.07422,1.6211 0.92187,3.33594 1.28906,4.41407c0.17187,0.5039 0.21094,1.03906 0.64453,1.13672c0.76172,0.17968 3.28125,-0.82422 4,-1.21485c1.51563,-0.82422 2.69531,-2.13281 3.98438,-3.01172c0.01562,-0.42968 0.03125,-0.85547 0.04687,-1.28125c-0.77344,-0.38672 -1.66797,-0.66015 -2.80469,-0.70703c0.76953,-0.38672 1.90625,-0.38281 2.60938,-0.84375c0.0039,-0.17187 0.01172,-0.33984 0.01953,-0.51172c-1.28516,-0.09765 -1.77344,-0.66797 -2.62109,-1.1289zm-13.22657,-2.39063c-1.14843,1.16016 3.22266,2.7461 4.61719,2.82813c-0.00781,-0.73438 0.42188,-1.42578 0.33203,-1.95313c-1.65234,-0.28906 -3.82422,-0.10156 -4.94922,-0.875zm14.16016,0.54297c-0.00781,0.11328 -0.15625,0.07422 -0.17969,0.16406c1.47656,1.15235 2.57813,1.39063 4.58985,1.29297c0.90625,-0.65625 1.71093,-1.42578 2.65625,-2.03906c-2.17579,0.19531 -4.91407,1.53906 -7.06641,0.58203zm12.99219,3.92578c-0.0625,-1.28906 -0.40235,-3.94531 -1.20313,-4.41015c-1.67969,-0.97657 -4.67187,1.97265 -5.9375,2.42187c0.13672,0.39844 0.36719,0.71094 0.38281,1.21484c0.75,-0.18359 1.66016,-0.05859 2.3086,0.25782c-0.75,0.08593 -1.58203,0.07812 -2.07813,0.4375c-0.17968,0.52343 0.04688,1.23828 -0.07422,1.96484c1.78125,0.5 3.81641,0.76563 6.06641,0.83203c0.4375,-0.5664 0.58984,-1.64844 0.53516,-2.71875zm-29.08594,-3.34765c-0.35938,-0.25391 -2.80078,-3.41797 -3.13672,-3.28907c-4.41797,1.73828 -8.55078,4.73828 -12.24219,7.57422c3.51953,7.52344 4.94141,16.73828 5.19141,25.6211c4.03516,1.8789 7.57422,4.58593 13.04687,4.86718c-0.63281,-4.46093 -1.21093,-8.4414 -1.57031,-12.64062c-1.375,-0.57813 -3.34765,0.02344 -4.63281,-0.17969c-0.01172,-1.54297 1.96094,-0.67578 2.12891,-1.71484c0.12109,-0.78516 -1.08985,-0.84375 -0.69532,-2.08203c1.00782,0.36328 1.53516,1.16796 2.60938,1.47265c0.97656,-2.13672 -0.01563,-5.91406 0.125,-7.69922c0.02734,-0.33593 0.16797,-1.85937 0.92187,-1.58984c0.66797,0.23437 -0.03906,4.04687 0.03516,5.73437c0.06641,1.5586 -0.1875,3.0625 0.44531,4.03907c5.28516,-0.71485 10.65625,-1.17969 16.37891,-1.33594c-1.25781,-0.53906 -2.75391,-1.04688 -4.39453,-1.96484c-0.88672,-0.5 -3.6875,-1.53907 -3.94532,-2.37891c-0.41015,-1.33984 1.07422,-2.05469 1.32813,-3.20313c-2.66797,1.44922 -3.19141,-1.38671 -3.82031,-3.39843c-0.57422,-1.82422 -0.89844,-3.1836 -1.03907,-4.23438c-2.29687,-1.08984 -4.75781,-2.19531 -6.73437,-3.59765zm26.75391,-2.90625c3.67968,-1.77735 4.34375,6.64453 2.89843,9.35937c0.22266,0.80859 0.99219,1.11719 1.30469,1.84375c-2.05469,3.66797 -4.33594,7.08594 -6.42969,10.71094c1.5586,-0.96875 3.78516,-0.17578 5.61719,-0.89844c0.67188,-0.26562 1.15625,-1.79297 1.66406,-3.01562c1.39844,-3.36719 2.86328,-7.60938 3.51563,-10.82032c0.14844,-0.73047 0.55078,-2.32812 0.46094,-2.97656c-0.16016,-1.16797 -1.75,-2.03125 -2.5586,-2.75391c-1.48828,-1.33203 -2.42578,-2.5039 -3.97656,-3.75c-0.63281,0.92579 -1.98438,1.55079 -2.49609,2.30079zm-35.17188,-32.51172c-1.75391,1.92578 -1.38672,5.52343 -1.17578,8.08593c3.17187,-1.98437 7.37891,0.16016 7.33984,3.53907c1.51172,-0.04297 0.56641,-1.88282 0.29297,-3.07032c-0.89844,-3.8789 1.50391,-8.08984 0.10547,-11.63671c-2.71484,0.20312 -4.94531,1.30859 -6.5625,3.08203zm12.55078,-11.15235c-3.97265,1.1211 -9.0625,3.99219 -10.6914,7.54688c1.26171,-0.1836 2.14062,-0.82031 3.38671,-0.89844c0.46875,-0.03125 1.08594,0.19922 1.62891,0.0625c1.07813,-0.26562 1.98828,-2.67578 2.80078,-3.57031c0.79688,-0.875 1.75,-1.25 2.40235,-2.04688c0.41796,-0.20312 1.03906,-0.1875 1.0625,-0.8164c-0.1836,-0.19141 -0.375,-0.33985 -0.58985,-0.27735zm20.66797,1.05078c-4.12109,-2.3125 -11.09766,-4.05468 -15.48047,-1.8789c-3.53906,1.75781 -8.32031,4.66406 -9.94922,8.34765c1.52344,3.55079 -0.45312,6.8086 -0.57812,10.41797c-0.06641,1.92188 0.90625,3.59766 0.98437,5.6875c-0.52343,0.85547 -2.11328,0.96094 -3.21875,0.90235c-0.37109,-1.84766 -1.01953,-3.92969 -2.92968,-4.13672c-2.70704,-0.29297 -4.6836,1.93359 -4.8086,4.26562c-0.14453,2.74219 2.11328,7.28125 5.31641,6.96875c1.23828,-0.125 1.53906,-1.35937 2.88672,-1.34375c0.73047,1.44922 -1.125,1.90625 -1.31641,2.94141c-0.05078,0.26953 0.15234,1.31641 0.27344,1.80859c0.58203,2.39453 1.875,5.49219 3.15234,7.3125c1.6211,2.3086 4.80078,2.66016 8.22266,2.88672c0.61328,-1.3125 2.86328,-1.20703 4.33203,-0.86328c-1.75781,-0.69141 -3.39453,-2.375 -4.75,-3.86328c-1.55469,-1.70703 -3.13281,-3.53906 -3.21094,-5.77344c2.94141,4.06641 5.3711,7.61328 10.71875,9.40235c4.04688,1.35156 8.77344,-0.6211 11.88281,-2.79297c1.28907,-0.90625 2.0586,-2.33985 2.97657,-3.65235c3.43359,-4.91797 5.03515,-11.93359 4.67968,-18.73437c-0.14453,-2.80469 -0.13671,-5.60156 -1.08203,-7.48828c-0.98828,-1.97266 -4.32812,-3.73828 -6.28125,-1.95313c-0.36328,-1.91797 1.625,-3.10547 3.96094,-2.41406c-1.66797,-2.14063 -3.41406,-4.71484 -5.78125,-6.04688zm7.67969,63.29297c3.21875,-1.59765 9.23437,-4.29297 11.2539,0.00391c0.7461,1.58594 1.6211,4.26172 2.00782,5.89844c0.54297,2.30859 -0.59375,7.15625 -2.97266,7.92968c-2.10547,0.6836 -4.55859,0.64454 -7.08984,0.13672c-0.30078,-0.24609 -0.63282,-0.67968 -0.86328,-1.1289c-1.8086,-0.07032 -3.50391,0.09765 -4.92969,0.83984c0.13281,1.33203 -0.76953,1.54688 -1.6211,1.82031c-0.6289,2.48047 1.25782,5.72657 0.8086,7.98828c-0.32422,1.61329 -2.31641,1.86329 -3.78125,2.16407c-0.04688,0.89843 0.0664,1.64843 0.16406,2.40625c-0.33203,1.22656 -1.83594,1.92578 -3.25781,2.09765c-4.6836,0.5625 -11.79297,0.8125 -16.29688,-0.80078c-1.25781,-3.07031 -2.25,-6.80469 -3.29687,-10.30859c-4.39063,0.46484 -7.94531,-1.89063 -11.29297,-3.4336c-1.16016,-0.53515 -2.76563,-0.82812 -3.19922,-1.75c-0.41797,-0.89062 -0.24609,-2.59375 -0.35156,-4.20703c-0.26563,-4.11328 -0.49219,-8.08593 -1.58203,-12.30078c-0.49219,-1.89062 -1.34375,-3.55859 -1.94141,-5.3789c-0.55078,-1.69141 -1.51172,-3.77735 -1.76172,-5.46094c-0.375,-2.4961 1.98438,-2.63672 3.4961,-3.71875c2.33203,-1.67188 4.16406,-2.59766 6.6875,-4.10547c0.75,-0.44531 3.0039,-1.57813 3.26171,-2.10156c0.51172,-1.03125 -0.875,-2.48828 -1.24609,-3.29688c-0.58594,-1.28125 -0.89062,-2.37109 -0.97656,-3.63281c-2.11719,-0.33594 -3.72266,-1.58984 -4.69531,-3.00781c-1.60547,-2.34375 -2.71875,-6.67969 -1.32813,-9.98047c0.10938,-0.25781 0.65234,-0.76953 0.73047,-1.16797c0.16016,-0.78516 -0.29688,-1.83203 -0.32422,-2.66797c-0.14844,-4.28516 0.72656,-7.98047 3.625,-9.27344c1.17578,-4.66797 5.38672,-6.21875 9.35547,-8.53906c1.48437,-0.86719 3.11719,-1.42187 4.80469,-2.03906c6.05859,-2.22266 15.34765,-1.80469 20.375,1.98437c2.13281,1.60547 5.53906,4.99219 6.75781,7.44922c3.21875,6.48047 2.98828,17.3086 0.73828,25.19141c-0.30078,1.05859 -0.74219,2.61328 -1.35547,3.88281c-0.42578,0.89063 -1.7539,2.66406 -1.59375,3.44922c0.16797,0.80859 3.02735,2.97656 3.64453,3.5625c1.10157,1.0625 3.20313,2.47266 3.3711,3.8125c0.18359,1.42578 -0.62891,3.375 -1.04297,4.75391c-1.375,4.58984 -2.71875,8.83593 -4.28125,12.92968"/>
   <path id="svg_56" fill="rgb(96.862745%,89.411765%,80.392157%)" fill-rule="evenodd" d="m50.10743,37.1065c0.17578,-0.23438 1.13672,-0.58594 2.48047,0.05859c0,0 -1.59375,0.26563 -1.46094,2.91016l-0.66406,-0.13282c0,0 -0.6836,-2.39843 -0.35547,-2.83593"/>
   <path id="svg_57" fill="rgb(11.372549%,9.803922%,9.803922%)" fill-rule="evenodd" d="m61.74805,59.84087c0,0.40235 -0.32812,0.72656 -0.73047,0.72656c-0.40234,0 -0.73047,-0.32421 -0.73047,-0.72656c0,-0.40234 0.32813,-0.72656 0.73047,-0.72656c0.40235,0 0.73047,0.32422 0.73047,0.72656"/>
   <path id="svg_58" fill="rgb(11.372549%,9.803922%,9.803922%)" fill-rule="evenodd" d="m62.47852,63.21197c0,0.40234 -0.32812,0.72656 -0.73047,0.72656c-0.40234,0 -0.73047,-0.32422 -0.73047,-0.72656c0,-0.40235 0.32813,-0.72657 0.73047,-0.72657c0.40235,0 0.73047,0.32422 0.73047,0.72657"/>
  </g>
 </g>
</svg>