<svg width="100" height="100" xmlns="http://www.w3.org/2000/svg" version="1.1">
 <g>
  <title>Layer 1</title>
  <g stroke="null" id="surface1">
   <path stroke="null" d="m3.08799,77.24379l0,-1.80844l-1.63356,0l0,1.80049l-0.85056,0l0,-4.32435l0.85056,0l0,1.81639l1.63356,0l0,-1.81639l0.85055,0l0,4.3323l-0.85055,0zm3.92291,0l-0.66375,0l-0.05961,-0.22656c-0.29413,0.17886 -0.62799,0.27425 -0.9698,0.27027c-0.59619,0 -0.85056,-0.39347 -0.85056,-0.93005c0,-0.53657 0.28617,-0.85056 0.94199,-0.85056l0.78299,0l0,-0.32591c0,-0.34976 -0.10335,-0.469 -0.62004,-0.469c-0.30206,0 -0.60414,0.0318 -0.90223,0.09142l-0.10334,-0.59619c0.37361,-0.09937 0.75517,-0.15104 1.1407,-0.15104c1.02147,0 1.31957,0.34976 1.31957,1.12481l-0.0159,2.06282zm-0.85055,-1.17648l-0.56439,0c-0.26232,0 -0.33784,0.06756 -0.33784,0.31001c0,0.23848 0.07552,0.314 0.32193,0.314c0.21463,-0.00398 0.42528,-0.05963 0.61209,-0.16296l-0.0318,-0.46105zm2.55168,1.24802c-0.38156,-0.00795 -0.75914,-0.06757 -1.12481,-0.17886l0.11129,-0.60017c0.31399,0.08744 0.6399,0.13514 0.96979,0.13911c0.35771,0 0.41734,-0.07949 0.41734,-0.31797c0,-0.23847 0,-0.29014 -0.57234,-0.40938c-0.79095,-0.18681 -0.85056,-0.37361 -0.85056,-0.98173c0,-0.60414 0.29015,-0.90222 1.21622,-0.90222c0.32989,0 0.65184,0.03576 0.97377,0.11128l-0.07949,0.62004c-0.29412,-0.05168 -0.59221,-0.08348 -0.89429,-0.09142c-0.35373,0 -0.41336,0.07552 -0.41336,0.27028c0,0.19873 0,0.27425 0.45708,0.37758c0.91018,0.23052 0.99762,0.34976 0.99762,0.98968c0,0.6399 -0.22258,0.96185 -1.20033,0.96185l-0.00795,0.01193zm3.72419,-0.07154l0,-2.18206c0,-0.1709 -0.07552,-0.24642 -0.26233,-0.24642c-0.2981,0.0318 -0.58823,0.11923 -0.85055,0.26232l0,2.16615l-0.85056,0l0,-4.39192l0.85056,0.11924l0,1.38315c0.36964,-0.18283 0.77504,-0.28617 1.18839,-0.2981c0.53658,0 0.7353,0.36567 0.7353,0.91814l0,2.27346l-0.81081,0l0,-0.00397zm1.49841,-3.56521l0,-0.7671l0.85056,0l0,0.7671l-0.85056,0zm0,3.56521l0,-3.128l0.85056,0l0,3.128l-0.85056,0zm1.46265,-3.0962c0,-0.78299 0.47695,-1.2361 1.58189,-1.2361c0.40938,0 0.81479,0.0477 1.20827,0.14706l-0.09141,0.69953c-0.35772,-0.08346 -0.72338,-0.13513 -1.08904,-0.155c-0.58029,0 -0.76709,0.19476 -0.76709,0.64786l0,1.64548c0,0.4531 0.1868,0.64786 0.76709,0.64786c0.36567,-0.00398 0.72736,-0.04372 1.08904,-0.10732l0.09141,0.69953c-0.39349,0.09141 -0.7989,0.14308 -1.20827,0.14308c-1.10494,0 -1.58189,-0.4531 -1.58189,-1.23609l0,-1.89588zm4.58667,3.16774c-1.11685,0 -1.41097,-0.58824 -1.41097,-1.23212l0,-0.77505c0,-0.6399 0.29412,-1.22815 1.41097,-1.22815c1.11288,0 1.41098,0.58824 1.41098,1.22815l0,0.79492c0,0.61208 -0.2981,1.20033 -1.41098,1.20033l0,0.01193zm0,-2.55964c-0.43323,0 -0.60414,0.18681 -0.60414,0.53658l0,0.85453c0,0.34976 0.17091,0.53657 0.60414,0.53657c0.43324,0 0.60414,-0.1868 0.60414,-0.53657l0,-0.85453c0,-0.38554 -0.1709,-0.57234 -0.60414,-0.57234l0,0.03576zm3.70034,0.0477c-0.29412,0.13115 -0.58029,0.28219 -0.85055,0.4531l0,2.01512l-0.85056,0l0,-3.15582l0.73927,0l0,0.34181c0.2663,-0.17488 0.55247,-0.31001 0.85056,-0.40938l0.11128,0.75517zm3.29096,1.35931c0.04769,0.29808 -0.05167,0.60016 -0.26232,0.81876c-0.21066,0.21463 -0.50875,0.31797 -0.80684,0.2822c-0.28617,-0.00796 -0.57234,-0.03578 -0.85056,-0.09539l0,1.27981l-0.85056,0.11924l0,-4.45153l0.64388,0l0.0795,0.26232c0.2981,-0.21463 0.65978,-0.32591 1.02544,-0.32195c0.65581,0 1.00557,0.37361 1.00557,1.08109l0.0159,1.02545zm-1.9396,0.34976c0.23847,0.05167 0.48092,0.07949 0.72338,0.08346c0.29014,0 0.40938,-0.13514 0.40938,-0.41734l0,-1.05724c0,-0.25437 -0.10334,-0.40143 -0.40143,-0.40143c-0.26232,0.00795 -0.52067,0.10732 -0.72338,0.28219l-0.00795,1.51035zm-19.47149,7.26951l-4.96028,0l0,-2.96902l13.27908,0l0,2.96902l-4.96028,0l0,14.84507l-3.35852,0l0,-14.84507zm0,0" fill-rule="nonzero" fill="rgb(0%,0%,0%)" id="svg_1"/>
   <path stroke="null" d="m16.94736,96.2105c1.34739,-0.00398 2.68681,-0.21065 3.97061,-0.61208l0.51273,2.45629c-1.53022,0.56042 -3.14389,0.85056 -4.77348,0.85453c-4.08587,0 -5.49685,-1.90382 -5.49685,-5.02784l0,-3.41019c0,-2.75836 1.22417,-5.11926 5.38556,-5.11926c4.16139,0 5.10336,2.43244 5.10336,5.23849l0,2.78221l-7.22977,0l0,0.66375c0,1.56202 0.55247,2.1741 2.52784,2.1741zm-2.55168,-5.48492l4.13357,0l0,-0.63991c0,-1.22815 -0.37361,-2.08269 -1.97537,-2.08269c-1.59778,0 -2.1582,0.85454 -2.1582,2.08269l0,0.63991zm15.94206,-2.39668c-1.18046,0.54451 -2.32116,1.18045 -3.40224,1.90382l0,8.39432l-3.29494,0l0,-13.02869l2.75042,0l0.21065,1.44278c1.05724,-0.71542 2.20192,-1.29174 3.40224,-1.70907l0.33387,2.99684zm7.94519,0c-1.18046,0.54451 -2.31718,1.18045 -3.40224,1.90382l0,8.39432l-3.29096,0l0,-13.02869l2.74644,0l0.21463,1.44278c1.05327,-0.71542 2.19795,-1.29174 3.40224,-1.70907l0.32989,2.99684zm10.87446,10.2902l-2.66297,0l-0.23847,-0.85454c-1.14866,0.75121 -2.49207,1.14866 -3.8633,1.15264c-2.37283,0 -3.40224,-1.62959 -3.40224,-3.87523c0,-2.64309 1.14866,-3.66059 3.7838,-3.66059l3.12402,0l0,-1.36329c0,-1.44278 -0.40143,-1.95549 -2.47616,-1.95549c-1.20827,0.01589 -2.41655,0.14706 -3.597,0.40143l-0.40143,-2.48014c1.45072,-0.40541 2.94517,-0.61208 4.44757,-0.61606c4.08587,0 5.28619,1.44278 5.28619,4.70989l0,8.54138zm-3.25121,-4.92452l-2.40065,0c-1.06122,0 -1.35931,0.29015 -1.35931,1.27982c0,0.98967 0.29015,1.31559 1.31162,1.31559c0.85851,-0.01193 1.70112,-0.24246 2.44834,-0.66773l0,-1.92768zm13.25523,-11.06524c-0.61208,-0.13115 -1.23609,-0.20269 -1.86408,-0.21462c-1.27585,0 -1.46265,0.56438 -1.46265,1.55406l0,1.62958l3.30288,0l-0.19078,2.55964l-3.12004,0l0,10.42533l-3.25122,0l0,-10.38957l-2.08268,0l0,-2.55963l2.07473,0l0,-1.85215c0,-2.7067 1.252,-4.03818 4.13357,-4.03818c0.94595,-0.00398 1.88793,0.12321 2.80209,0.37758l-0.34182,2.50796zm6.34741,16.26003c-4.45153,0 -5.64788,-2.45629 -5.64788,-5.11926l0,-3.29095c0,-2.67092 1.19635,-5.11926 5.64788,-5.11926c4.44757,0 5.65584,2.45629 5.65584,5.11926l0,3.29095c-0.00796,2.65503 -1.20827,5.11926 -5.65584,5.11926zm0,-10.77509c-1.70112,0 -2.40064,0.77901 -2.40064,2.24564l0,3.50558c0,1.46663 0.66375,2.24564 2.40064,2.24564c1.73292,0 2.39668,-0.77901 2.39668,-2.24564l0,-3.50558c0,-1.47854 -0.67171,-2.25359 -2.39668,-2.25359l0,0.00795zm14.01836,0.21463c-1.18046,0.54451 -2.31719,1.18045 -3.40224,1.90382l0,8.39432l-3.28301,0l0,-13.02869l2.74644,0l0.21463,1.44278c1.05327,-0.71542 2.19795,-1.29174 3.40224,-1.70907l0.32195,2.99684zm8.93487,10.2902l0,-9.0859c0,-0.69158 -0.29015,-1.04134 -1.03738,-1.04134c-1.19635,0.13117 -2.35295,0.50875 -3.40224,1.10096l0,9.03423l-3.2353,0l0,-13.02869l2.47616,0l0.32195,1.10096c1.62163,-0.81479 3.39032,-1.27981 5.19875,-1.36726c1.02942,-0.09141 2.00319,0.46106 2.45232,1.39111c1.62163,-0.83068 3.40224,-1.30366 5.2226,-1.39111c2.16217,0 2.93722,1.53022 2.93722,3.85138l0,9.43567l-3.25121,0l0,-9.0859c0,-0.69158 -0.29015,-1.04134 -1.03737,-1.04134c-1.20033,0.12322 -2.36091,0.49682 -3.40622,1.10096l0,9.03423l-3.23928,-0.00795zm0,0" fill-rule="nonzero" fill="rgb(0%,0%,0%)" id="svg_2"/>
   <path stroke="null" d="m40.99757,12.72038l18.00089,10.42534l0,20.85066l-18.00089,-10.42533l0,-20.85067zm0,0" fill-rule="evenodd" fill="rgb(36.078431%,30.588235%,89.803922%)" id="svg_3"/>
   <path stroke="null" d="m60.97382,23.14572l0,20.85066l18.00884,-10.42533l0,-20.85067l-18.00884,10.42534zm0,0" fill-rule="evenodd" fill="rgb(25.098039%,25.098039%,69.803922%)" id="svg_4"/>
   <path stroke="null" d="m21.02131,1.0828l0,20.85067l18.00089,10.42533l0,-20.85066l-18.00089,-10.42534zm19.97626,55.61636l18.00089,10.42931l0,-20.84669l-18.00089,-10.42534l0,20.84272zm0,0" fill-rule="evenodd" fill="rgb(36.078431%,30.588235%,89.803922%)" id="svg_5"/>
  </g>
 </g>

</svg>