<svg id="svg" version="1.1" xmlns="http://www.w3.org/2000/svg" xmlns:xlink="http://www.w3.org/1999/xlink" width="400" height="132.3397913561848" viewBox="0, 0, 400,132.3397913561848"><g id="svgg"><path id="path0" d="M14.444 14.444 C 14.383 14.506,14.333 30.434,14.333 49.840 L 14.333 85.125 14.854 85.229 C 15.625 85.383,32.911 85.323,35.333 85.158 C 37.619 85.002,39.793 84.748,41.083 84.486 C 41.542 84.393,42.442 84.238,43.083 84.140 C 43.725 84.043,44.453 83.859,44.700 83.732 C 44.948 83.604,45.323 83.497,45.533 83.494 C 45.744 83.491,46.217 83.344,46.583 83.167 C 46.950 82.990,47.438 82.840,47.667 82.834 C 47.896 82.828,48.229 82.713,48.407 82.578 C 48.585 82.443,48.839 82.333,48.972 82.333 C 49.197 82.333,50.437 81.812,51.000 81.480 C 51.137 81.399,51.438 81.258,51.667 81.166 C 51.896 81.075,52.196 80.924,52.333 80.831 C 52.471 80.738,52.790 80.581,53.042 80.481 C 53.294 80.382,53.500 80.238,53.500 80.162 C 53.500 80.085,53.669 79.970,53.875 79.905 C 54.081 79.840,54.410 79.667,54.606 79.519 C 54.801 79.371,55.131 79.137,55.337 79.000 C 57.174 77.778,60.137 75.003,61.155 73.551 C 61.391 73.215,61.745 72.763,61.943 72.545 C 62.141 72.328,62.417 71.910,62.557 71.614 C 62.697 71.319,62.986 70.817,63.199 70.497 C 64.768 68.142,66.635 63.033,67.430 58.917 C 68.831 51.666,68.313 40.272,66.348 35.122 C 66.270 34.917,66.033 34.225,65.820 33.584 C 65.403 32.324,63.491 28.438,62.798 27.442 C 61.683 25.839,59.998 23.842,58.927 22.855 C 58.567 22.522,58.042 22.035,57.761 21.772 C 57.308 21.348,56.133 20.481,54.852 19.625 C 54.613 19.465,54.210 19.252,53.958 19.151 C 53.706 19.050,53.500 18.907,53.500 18.833 C 53.500 18.760,53.294 18.618,53.042 18.519 C 52.790 18.419,52.471 18.274,52.333 18.195 C 51.735 17.853,50.547 17.339,50.125 17.239 C 49.873 17.179,49.667 17.067,49.667 16.989 C 49.667 16.912,49.385 16.799,49.042 16.739 C 48.698 16.679,48.251 16.525,48.048 16.398 C 47.845 16.271,47.470 16.165,47.214 16.163 C 46.959 16.161,46.423 16.011,46.023 15.830 C 45.624 15.648,45.001 15.500,44.640 15.500 C 44.279 15.500,43.780 15.395,43.532 15.267 C 43.284 15.138,42.294 14.952,41.332 14.852 C 40.370 14.752,39.171 14.600,38.667 14.514 C 37.634 14.338,14.617 14.271,14.444 14.444 M102.332 14.875 C 102.150 15.173,102.001 15.477,102.001 15.551 C 102.000 15.625,101.863 16.000,101.696 16.384 C 101.282 17.337,100.929 18.229,100.496 19.417 C 100.074 20.573,99.856 21.109,99.359 22.213 C 99.161 22.651,99.000 23.148,99.000 23.317 C 99.000 23.487,98.893 23.714,98.763 23.823 C 98.633 23.931,98.477 24.308,98.418 24.661 C 98.358 25.014,98.205 25.441,98.077 25.610 C 97.949 25.778,97.842 26.030,97.839 26.169 C 97.836 26.308,97.683 26.701,97.500 27.044 C 97.317 27.386,97.167 27.801,97.167 27.966 C 97.167 28.131,97.099 28.338,97.017 28.425 C 96.935 28.512,96.667 29.108,96.423 29.750 C 95.873 31.193,95.530 32.045,95.137 32.949 C 94.970 33.334,94.833 33.694,94.833 33.750 C 94.833 33.806,94.695 34.166,94.526 34.551 C 94.356 34.935,93.934 36.000,93.588 36.917 C 93.241 37.833,92.863 38.808,92.746 39.083 C 92.630 39.358,92.371 39.996,92.171 40.500 C 91.972 41.004,91.704 41.642,91.576 41.917 C 91.449 42.192,91.294 42.642,91.231 42.917 C 91.168 43.192,91.016 43.565,90.892 43.745 C 90.768 43.926,90.667 44.174,90.667 44.296 C 90.667 44.529,90.169 45.753,89.748 46.555 C 89.611 46.815,89.500 47.144,89.500 47.287 C 89.500 47.430,89.355 47.855,89.178 48.232 C 89.001 48.608,88.433 50.004,87.916 51.333 C 86.949 53.820,86.641 54.598,86.167 55.750 C 85.718 56.840,85.394 57.662,84.753 59.333 C 84.419 60.204,84.000 61.237,83.823 61.629 C 83.645 62.021,83.500 62.481,83.500 62.651 C 83.500 62.820,83.395 63.046,83.267 63.152 C 83.140 63.258,82.983 63.624,82.919 63.964 C 82.855 64.305,82.706 64.771,82.589 65.000 C 82.015 66.117,81.667 66.986,81.667 67.300 C 81.667 67.491,81.597 67.690,81.512 67.742 C 81.427 67.795,81.272 68.118,81.166 68.461 C 81.061 68.803,80.872 69.308,80.747 69.583 C 80.622 69.858,80.242 70.796,79.903 71.667 C 79.563 72.537,79.158 73.550,79.002 73.917 C 78.846 74.283,78.434 75.333,78.088 76.250 C 77.741 77.167,77.363 78.142,77.246 78.417 C 76.852 79.349,76.366 80.580,75.995 81.583 C 75.792 82.133,75.523 82.782,75.396 83.026 C 75.270 83.269,75.167 83.558,75.167 83.667 C 75.167 83.777,75.044 84.124,74.895 84.439 C 74.529 85.209,74.585 85.236,76.679 85.308 C 79.053 85.389,79.630 85.279,79.862 84.699 C 79.961 84.452,80.104 84.100,80.181 83.917 C 80.257 83.733,80.663 82.683,81.081 81.583 C 81.500 80.483,81.912 79.433,81.997 79.250 C 82.295 78.610,84.000 74.208,84.000 74.081 C 84.000 73.955,84.475 72.866,84.933 71.945 C 85.061 71.685,85.167 71.348,85.167 71.195 C 85.168 71.042,85.318 70.671,85.501 70.371 C 85.684 70.071,85.833 69.656,85.833 69.450 C 85.833 69.243,85.930 68.926,86.048 68.745 C 86.166 68.565,86.432 67.967,86.639 67.417 C 86.847 66.867,87.163 66.117,87.342 65.750 C 87.521 65.383,87.668 65.008,87.668 64.917 C 87.667 64.675,89.336 60.622,89.538 60.375 C 89.671 60.211,92.837 60.167,104.347 60.167 L 118.987 60.167 119.400 60.613 C 119.628 60.858,119.862 61.341,119.920 61.687 C 119.978 62.032,120.133 62.403,120.263 62.511 C 120.393 62.619,120.500 62.852,120.500 63.029 C 120.500 63.205,120.607 63.557,120.738 63.810 C 120.868 64.062,121.169 64.825,121.407 65.504 C 121.644 66.182,121.912 66.812,122.002 66.902 C 122.093 66.993,122.167 67.223,122.167 67.415 C 122.167 67.606,122.317 68.057,122.500 68.417 C 122.683 68.776,122.833 69.165,122.833 69.281 C 122.833 69.396,122.992 69.849,123.186 70.287 C 123.800 71.670,123.959 72.058,124.338 73.083 C 124.541 73.633,124.811 74.282,124.937 74.526 C 125.063 74.769,125.169 75.069,125.172 75.192 C 125.175 75.316,125.323 75.717,125.500 76.083 C 125.677 76.450,125.827 76.862,125.833 77.000 C 125.840 77.137,125.990 77.550,126.167 77.917 C 126.344 78.283,126.491 78.700,126.494 78.842 C 126.497 78.984,126.563 79.171,126.641 79.258 C 126.718 79.345,126.949 79.867,127.155 80.417 C 127.360 80.967,127.667 81.754,127.837 82.167 C 128.007 82.579,128.333 83.403,128.562 83.997 C 129.070 85.317,129.243 85.385,131.943 85.305 C 134.560 85.228,134.492 85.480,132.900 81.750 C 132.587 81.017,132.331 80.339,132.332 80.244 C 132.333 80.148,132.183 79.776,132.000 79.417 C 131.817 79.057,131.664 78.610,131.661 78.423 C 131.658 78.236,131.546 77.938,131.411 77.760 C 131.277 77.582,131.167 77.331,131.167 77.202 C 131.167 77.073,131.060 76.731,130.931 76.442 C 130.662 75.843,128.960 71.506,128.698 70.750 C 128.602 70.475,128.361 69.837,128.163 69.333 C 127.964 68.829,127.591 67.854,127.334 67.167 C 127.077 66.479,126.748 65.692,126.601 65.417 C 126.455 65.142,126.335 64.720,126.334 64.479 C 126.334 64.238,126.226 63.951,126.094 63.842 C 125.962 63.733,125.802 63.405,125.738 63.114 C 125.675 62.823,125.525 62.359,125.406 62.084 C 124.892 60.895,124.000 58.562,124.000 58.407 C 124.000 58.313,123.850 57.943,123.667 57.583 C 123.483 57.224,123.333 56.800,123.333 56.641 C 123.333 56.483,123.263 56.310,123.178 56.257 C 123.092 56.204,122.903 55.753,122.759 55.255 C 122.614 54.758,122.422 54.305,122.331 54.249 C 122.241 54.193,122.167 53.979,122.167 53.773 C 122.167 53.568,122.103 53.329,122.026 53.242 C 121.948 53.155,121.638 52.388,121.337 51.538 C 121.036 50.688,120.725 49.952,120.645 49.903 C 120.565 49.854,120.498 49.649,120.495 49.448 C 120.492 49.248,120.305 48.708,120.080 48.250 C 119.854 47.792,119.669 47.329,119.668 47.222 C 119.667 47.115,119.560 46.815,119.430 46.555 C 119.196 46.088,119.041 45.695,118.327 43.750 C 118.125 43.200,117.863 42.563,117.745 42.333 C 117.627 42.104,117.478 41.638,117.415 41.298 C 117.351 40.957,117.194 40.592,117.066 40.486 C 116.938 40.379,116.833 40.167,116.833 40.015 C 116.833 39.862,116.459 38.802,116.002 37.660 C 115.545 36.518,115.169 35.508,115.167 35.417 C 115.166 35.325,115.044 35.025,114.896 34.750 C 114.748 34.475,114.566 34.025,114.492 33.750 C 114.371 33.297,113.818 31.850,112.997 29.833 C 112.644 28.967,111.635 26.337,111.143 25.000 C 110.727 23.869,110.367 22.963,109.971 22.051 C 109.803 21.666,109.667 21.252,109.667 21.130 C 109.667 21.007,109.564 20.760,109.438 20.579 C 109.312 20.398,109.155 19.987,109.088 19.667 C 109.022 19.346,108.874 18.933,108.759 18.750 C 108.645 18.567,108.509 18.229,108.456 18.000 C 108.290 17.275,107.140 14.589,106.941 14.461 C 106.836 14.394,105.830 14.337,104.706 14.336 L 102.662 14.333 102.332 14.875 M144.367 14.533 C 144.212 14.688,144.167 22.764,144.167 49.871 L 144.167 85.008 144.625 85.185 C 145.204 85.409,148.590 85.310,148.837 85.063 C 149.094 84.806,148.951 29.189,148.685 25.917 C 148.581 24.633,148.538 23.405,148.590 23.187 L 148.684 22.791 149.101 23.183 C 149.330 23.398,149.607 23.737,149.717 23.936 C 149.827 24.134,150.592 25.287,151.417 26.499 C 152.242 27.710,153.055 28.937,153.223 29.225 C 153.391 29.514,153.845 30.162,154.230 30.667 C 154.886 31.526,155.352 32.200,155.748 32.867 C 155.951 33.210,166.938 49.679,167.122 49.917 C 167.433 50.319,169.333 53.194,169.333 53.262 C 169.333 53.303,169.602 53.720,169.931 54.187 C 170.697 55.277,175.197 61.989,175.417 62.371 C 175.667 62.803,178.033 66.252,178.994 67.583 C 179.457 68.225,179.902 68.903,179.984 69.090 C 180.065 69.277,180.252 69.530,180.399 69.652 C 180.546 69.774,180.667 69.943,180.667 70.027 C 180.667 70.112,180.744 70.271,180.838 70.382 C 180.932 70.493,181.251 70.946,181.546 71.390 C 181.842 71.833,182.196 72.365,182.333 72.571 C 182.471 72.778,182.798 73.278,183.059 73.682 C 183.321 74.086,183.734 74.702,183.976 75.051 C 184.218 75.400,184.829 76.307,185.333 77.068 C 185.838 77.828,186.469 78.780,186.737 79.183 C 187.004 79.587,187.417 80.202,187.653 80.550 C 188.126 81.246,188.348 81.583,189.059 82.682 C 190.894 85.515,190.617 85.333,193.101 85.333 C 194.249 85.333,195.334 85.256,195.511 85.161 C 195.967 84.917,196.026 14.609,195.570 14.434 C 194.989 14.212,191.381 14.325,191.176 14.572 C 190.974 14.815,191.048 64.918,191.261 72.573 C 191.312 74.401,191.307 76.080,191.251 76.306 L 191.148 76.715 190.664 76.149 C 190.398 75.838,190.177 75.526,190.173 75.457 C 190.170 75.387,189.890 74.937,189.552 74.457 C 188.951 73.603,188.210 72.505,187.218 71.000 C 186.946 70.587,186.522 69.950,186.275 69.583 C 186.029 69.217,185.735 68.777,185.622 68.606 C 185.509 68.435,185.285 68.123,185.125 67.913 C 184.965 67.703,184.833 67.460,184.833 67.375 C 184.833 67.289,184.683 67.083,184.500 66.917 C 184.317 66.751,184.167 66.514,184.167 66.391 C 184.167 66.268,184.106 66.167,184.031 66.167 C 183.956 66.167,183.771 65.923,183.619 65.625 C 183.468 65.327,183.124 64.783,182.856 64.417 C 181.933 63.154,180.000 60.163,180.000 59.998 C 180.000 59.908,179.927 59.833,179.838 59.833 C 179.748 59.833,179.559 59.627,179.416 59.375 C 179.273 59.123,179.028 58.722,178.870 58.484 C 178.712 58.247,178.366 57.722,178.099 57.318 C 177.833 56.914,177.460 56.358,177.270 56.083 C 177.080 55.808,176.532 54.983,176.053 54.250 C 175.574 53.517,174.948 52.579,174.662 52.167 C 174.376 51.754,173.682 50.704,173.120 49.833 C 172.558 48.962,172.048 48.212,171.986 48.167 C 171.923 48.121,170.615 46.208,169.077 43.917 C 167.539 41.625,166.154 39.563,165.997 39.333 C 165.120 38.045,160.057 30.443,159.916 30.202 C 159.825 30.045,158.475 28.018,156.916 25.698 C 155.358 23.378,154.008 21.353,153.917 21.197 C 153.825 21.042,153.300 20.252,152.750 19.443 C 152.200 18.634,151.375 17.395,150.917 16.691 C 150.458 15.986,149.909 15.168,149.697 14.872 L 149.311 14.333 146.939 14.333 C 145.316 14.333,144.503 14.397,144.367 14.533 M215.949 14.440 C 215.885 14.504,215.833 30.434,215.833 49.840 L 215.833 85.125 216.354 85.229 C 217.163 85.391,219.763 85.352,220.240 85.171 L 220.667 85.008 220.625 49.712 L 220.583 14.417 218.324 14.371 C 217.081 14.345,216.013 14.376,215.949 14.440 M240.945 14.444 C 240.884 14.505,240.833 30.434,240.833 49.840 L 240.833 85.125 241.354 85.229 C 242.038 85.366,278.300 85.365,278.984 85.228 L 279.509 85.123 279.463 82.937 L 279.417 80.750 262.717 80.667 C 251.328 80.610,245.961 80.527,245.841 80.407 C 245.719 80.286,245.678 75.589,245.707 65.241 L 245.750 50.250 261.667 50.163 C 270.421 50.115,277.602 50.059,277.625 50.038 C 277.715 49.956,277.660 46.011,277.566 45.764 C 277.474 45.526,275.947 45.500,261.993 45.500 C 252.344 45.500,246.361 45.439,246.094 45.337 L 245.667 45.175 245.669 32.296 C 245.671 25.212,245.731 19.323,245.804 19.209 C 245.907 19.046,249.537 18.992,262.676 18.959 L 279.417 18.917 279.417 16.667 L 279.417 14.417 260.237 14.374 C 249.688 14.351,241.007 14.382,240.945 14.444 M295.782 14.440 C 295.719 14.504,295.667 30.434,295.667 49.840 L 295.667 85.125 296.188 85.229 C 296.901 85.372,333.480 85.329,334.000 85.185 C 334.465 85.055,334.715 82.087,334.343 81.108 L 334.175 80.667 317.619 80.667 C 304.637 80.667,301.003 80.622,300.781 80.458 C 300.518 80.264,300.496 78.047,300.458 47.333 L 300.417 14.417 298.157 14.371 C 296.915 14.345,295.846 14.376,295.782 14.440 M347.034 14.533 C 346.879 14.688,346.833 22.696,346.833 49.871 L 346.833 85.008 347.261 85.171 C 347.733 85.350,384.259 85.407,385.146 85.229 L 385.667 85.125 385.667 83.159 C 385.667 82.078,385.621 81.075,385.566 80.930 C 385.474 80.692,383.845 80.667,368.836 80.667 C 355.026 80.667,352.176 80.628,352.020 80.440 C 351.882 80.275,351.843 76.163,351.874 65.232 L 351.917 50.250 367.833 50.163 C 376.587 50.115,383.769 50.059,383.792 50.038 C 383.950 49.894,383.803 45.869,383.633 45.700 C 383.481 45.547,379.795 45.500,368.061 45.500 C 358.451 45.500,352.528 45.439,352.260 45.337 L 351.831 45.174 351.874 32.129 L 351.917 19.083 368.705 19.041 L 385.494 18.998 385.587 18.624 C 385.638 18.418,385.658 17.387,385.632 16.333 L 385.583 14.417 366.409 14.374 C 351.634 14.342,347.189 14.378,347.034 14.533 M34.636 18.813 C 34.790 18.893,36.042 19.000,37.417 19.050 C 39.066 19.110,40.165 19.230,40.646 19.404 C 41.047 19.548,41.722 19.667,42.146 19.668 C 42.570 19.668,43.142 19.786,43.417 19.930 C 43.692 20.074,44.272 20.234,44.707 20.285 C 45.142 20.337,45.582 20.482,45.686 20.606 C 45.789 20.731,46.050 20.833,46.266 20.833 C 46.778 20.833,49.764 22.193,51.335 23.141 C 54.557 25.086,57.635 28.354,59.286 31.583 C 59.568 32.133,59.918 32.808,60.065 33.083 C 60.211 33.358,60.332 33.700,60.332 33.842 C 60.333 33.984,60.403 34.171,60.488 34.258 C 60.858 34.636,61.705 37.499,62.078 39.629 C 62.210 40.387,62.363 41.079,62.417 41.167 C 63.127 42.316,63.001 55.407,62.250 58.583 C 61.587 61.384,61.261 62.618,61.039 63.167 C 60.946 63.396,60.736 63.921,60.573 64.333 C 58.858 68.664,56.166 72.377,53.067 74.683 C 52.526 75.085,52.046 75.455,52.000 75.505 C 51.897 75.615,49.678 76.906,49.333 77.056 C 49.196 77.116,48.971 77.227,48.833 77.304 C 47.817 77.870,47.136 78.167,46.852 78.167 C 46.669 78.167,46.475 78.240,46.419 78.329 C 46.364 78.418,46.004 78.572,45.618 78.672 C 45.232 78.771,44.680 78.961,44.391 79.093 C 44.103 79.225,43.653 79.334,43.391 79.334 C 43.130 79.335,42.702 79.447,42.439 79.584 C 42.177 79.721,41.694 79.833,41.367 79.833 C 41.039 79.833,40.241 79.976,39.594 80.151 C 38.846 80.353,37.540 80.508,36.014 80.577 C 34.693 80.636,33.475 80.758,33.307 80.847 C 32.760 81.140,19.521 80.969,19.330 80.667 C 19.102 80.306,19.112 19.414,19.339 18.989 C 19.527 18.638,33.981 18.472,34.636 18.813 M105.149 21.303 C 105.320 21.641,105.516 22.177,105.584 22.495 C 105.653 22.812,105.771 23.187,105.846 23.328 C 105.921 23.468,106.184 24.221,106.430 25.000 C 106.677 25.779,107.131 27.072,107.439 27.874 C 107.748 28.675,108.000 29.414,108.000 29.515 C 108.000 29.616,108.109 29.898,108.242 30.141 C 108.375 30.384,108.680 31.174,108.921 31.897 C 109.161 32.619,109.421 33.332,109.497 33.480 C 109.736 33.942,110.686 36.550,110.871 37.250 C 110.968 37.617,111.143 38.029,111.260 38.167 C 111.376 38.304,111.524 38.699,111.588 39.044 C 111.652 39.388,111.771 39.711,111.852 39.762 C 111.934 39.812,112.000 39.980,112.001 40.135 C 112.002 40.290,112.121 40.642,112.267 40.917 C 112.413 41.192,112.630 41.754,112.749 42.167 C 112.951 42.870,113.815 45.237,114.209 46.167 C 114.471 46.785,115.337 49.141,115.618 50.000 C 115.753 50.413,115.928 50.900,116.006 51.083 C 116.184 51.498,116.714 52.890,116.990 53.667 C 117.105 53.987,117.280 54.450,117.381 54.695 C 117.798 55.712,118.404 55.667,104.511 55.667 C 89.934 55.667,91.078 55.810,91.812 54.080 C 92.084 53.440,92.474 52.467,92.680 51.917 C 92.886 51.367,93.192 50.612,93.361 50.239 C 93.529 49.866,93.667 49.440,93.667 49.291 C 93.667 49.142,93.731 48.980,93.810 48.931 C 93.890 48.882,94.051 48.484,94.170 48.046 C 94.288 47.608,94.433 47.175,94.492 47.083 C 94.609 46.901,94.998 45.919,95.915 43.500 C 96.244 42.629,96.661 41.596,96.840 41.204 C 97.020 40.812,97.167 40.380,97.167 40.245 C 97.167 40.110,97.317 39.719,97.500 39.377 C 97.683 39.035,97.833 38.670,97.833 38.565 C 97.833 38.397,98.244 37.350,98.676 36.417 C 98.761 36.233,99.021 35.558,99.253 34.917 C 99.738 33.579,99.820 33.375,100.309 32.287 C 100.506 31.849,100.669 31.399,100.672 31.287 C 100.675 31.175,100.823 30.783,101.000 30.417 C 101.177 30.050,101.325 29.652,101.328 29.533 C 101.331 29.413,101.470 29.000,101.637 28.616 C 102.185 27.355,102.455 26.612,103.162 24.417 C 104.496 20.271,104.569 20.157,105.149 21.303 M0.000 115.917 L 0.000 132.333 200.000 132.333 L 400.000 132.333 400.000 115.917 L 400.000 99.500 200.000 99.500 L 0.000 99.500 0.000 115.917 M26.000 108.250 C 26.390 108.388,26.956 108.500,27.259 108.500 C 28.065 108.500,28.500 109.122,28.500 110.278 C 28.500 111.332,28.225 111.552,27.458 111.112 C 27.191 110.959,26.773 110.831,26.528 110.827 C 26.284 110.824,25.896 110.714,25.667 110.583 C 24.811 110.094,21.679 110.249,20.422 110.843 C 16.912 112.501,15.374 117.464,17.215 121.190 C 17.992 122.762,19.985 124.667,20.853 124.667 C 21.005 124.667,21.343 124.779,21.606 124.916 C 22.252 125.252,25.573 125.262,26.455 124.930 C 28.183 124.279,28.660 124.412,28.664 125.549 C 28.668 126.423,28.083 127.000,27.195 127.000 C 26.835 127.000,26.271 127.112,25.942 127.250 C 25.523 127.425,24.744 127.500,23.333 127.500 C 21.923 127.500,21.144 127.425,20.724 127.250 C 20.395 127.112,19.979 127.000,19.800 127.000 C 18.593 127.000,15.469 124.515,14.718 122.959 C 14.529 122.569,14.248 121.987,14.093 121.667 C 13.340 120.112,13.391 115.552,14.181 113.750 C 15.410 110.945,17.195 109.359,20.333 108.282 C 21.370 107.926,25.024 107.906,26.000 108.250 M130.685 108.340 C 135.800 110.063,137.820 117.601,134.803 123.710 C 133.154 127.050,128.137 128.583,124.750 126.783 C 124.567 126.685,124.215 126.503,123.969 126.379 C 121.713 125.239,119.820 120.437,120.228 116.889 C 120.538 114.193,120.938 112.577,121.442 111.987 C 121.566 111.842,121.667 111.647,121.667 111.553 C 121.667 111.308,123.658 109.167,123.890 109.163 C 123.996 109.161,124.271 109.013,124.500 108.833 C 124.729 108.654,125.067 108.503,125.250 108.498 C 125.433 108.493,125.771 108.381,126.000 108.250 C 126.668 107.868,129.443 107.921,130.685 108.340 M58.004 108.669 C 58.177 108.761,58.369 109.103,58.430 109.428 C 58.491 109.753,58.751 110.430,59.009 110.934 C 59.266 111.437,59.528 112.090,59.591 112.383 C 59.654 112.677,59.800 113.104,59.916 113.333 C 60.031 113.563,60.290 114.200,60.491 114.750 C 60.692 115.300,60.919 115.868,60.994 116.012 C 61.138 116.285,61.355 116.831,62.907 120.833 C 63.423 122.162,63.992 123.558,64.172 123.935 C 64.353 124.312,64.500 124.728,64.500 124.860 C 64.500 124.992,64.566 125.171,64.647 125.258 C 64.992 125.631,65.214 126.701,64.978 126.851 C 64.127 127.389,62.247 126.920,62.078 126.126 C 62.014 125.828,61.867 125.396,61.751 125.167 C 61.429 124.529,60.833 122.935,60.833 122.711 C 60.833 122.258,60.100 122.167,56.441 122.167 C 52.080 122.167,52.269 122.124,51.776 123.228 C 51.411 124.046,51.263 124.424,50.723 125.917 C 50.208 127.342,47.810 127.559,48.290 126.137 C 48.552 125.362,49.649 122.643,49.841 122.294 C 49.928 122.135,50.000 121.918,50.000 121.812 C 50.000 121.706,50.144 121.312,50.321 120.935 C 50.497 120.558,50.915 119.537,51.250 118.667 C 52.059 116.560,52.492 115.509,52.770 114.974 C 52.896 114.731,53.000 114.446,53.000 114.340 C 53.000 114.235,53.139 113.834,53.309 113.449 C 53.479 113.065,53.791 112.300,54.003 111.750 C 54.215 111.200,54.525 110.445,54.694 110.072 C 54.862 109.700,55.000 109.272,55.000 109.122 C 55.000 108.555,57.177 108.226,58.004 108.669 M96.833 108.943 C 99.351 109.823,100.271 111.246,100.127 114.035 C 100.022 116.059,98.722 118.155,97.303 118.588 C 97.090 118.653,96.804 118.799,96.667 118.913 C 96.529 119.026,96.042 119.200,95.583 119.298 C 95.125 119.396,94.450 119.554,94.083 119.651 C 93.717 119.747,92.629 119.828,91.667 119.832 C 89.326 119.841,89.515 119.526,89.462 123.508 L 89.417 126.917 88.360 126.967 C 87.725 126.997,87.210 126.939,87.069 126.821 C 86.741 126.549,86.715 109.021,87.042 108.687 C 87.405 108.315,95.656 108.531,96.833 108.943 M165.583 108.653 C 168.822 109.329,169.911 110.443,169.915 113.083 C 169.918 115.304,169.207 116.524,167.138 117.852 C 166.183 118.465,166.143 118.733,166.875 119.639 C 167.173 120.008,167.829 120.879,168.333 121.574 C 169.452 123.116,170.541 124.554,170.674 124.667 C 171.043 124.977,172.163 126.704,172.081 126.837 C 172.026 126.927,171.320 127.000,170.512 127.000 L 169.044 127.000 167.980 125.572 C 167.395 124.786,166.839 124.055,166.745 123.947 C 166.650 123.838,166.391 123.487,166.169 123.167 C 165.552 122.274,163.296 119.432,163.095 119.294 C 162.875 119.143,161.723 119.130,161.021 119.271 L 160.500 119.375 160.500 123.086 C 160.500 127.260,160.589 127.000,159.167 127.000 C 157.702 127.000,157.833 127.914,157.833 117.746 C 157.833 110.661,157.879 108.676,158.042 108.610 C 158.393 108.469,164.874 108.506,165.583 108.653 M201.167 108.833 C 201.350 109.017,201.500 109.277,201.500 109.412 C 201.500 109.647,201.954 110.749,202.439 111.692 C 202.564 111.936,202.669 112.236,202.672 112.359 C 202.675 112.482,202.823 112.883,203.000 113.250 C 203.177 113.617,203.325 114.001,203.328 114.104 C 203.334 114.324,203.913 115.725,204.259 116.359 C 204.391 116.602,204.500 116.942,204.500 117.114 C 204.500 117.285,204.597 117.574,204.714 117.755 C 204.832 117.935,205.101 118.533,205.310 119.083 C 205.520 119.633,205.829 120.421,205.997 120.833 C 206.166 121.246,206.464 121.996,206.661 122.500 C 206.857 123.004,207.087 123.567,207.171 123.750 C 207.255 123.933,207.431 124.383,207.561 124.750 C 207.691 125.117,207.893 125.649,208.010 125.934 C 208.370 126.815,208.169 127.000,206.850 127.000 C 205.549 127.000,205.264 126.833,205.078 125.960 C 205.014 125.661,204.903 125.342,204.832 125.250 C 204.761 125.158,204.508 124.521,204.270 123.833 C 203.668 122.090,203.889 122.167,199.457 122.167 C 195.647 122.167,195.000 122.252,195.000 122.756 C 195.000 122.891,194.850 123.281,194.667 123.623 C 194.483 123.965,194.333 124.361,194.333 124.502 C 194.333 124.643,194.227 124.911,194.097 125.096 C 193.967 125.282,193.808 125.713,193.744 126.055 C 193.607 126.787,193.280 127.001,192.303 126.997 C 190.950 126.993,190.996 126.610,192.858 122.384 C 193.028 122.000,193.167 121.599,193.167 121.493 C 193.167 121.388,193.270 121.102,193.397 120.859 C 193.675 120.325,194.177 119.105,194.677 117.750 C 195.107 116.585,195.333 116.037,195.815 114.982 C 196.009 114.559,196.167 114.137,196.167 114.045 C 196.167 113.888,196.521 113.004,197.097 111.725 C 197.227 111.436,197.333 111.147,197.333 111.083 C 197.333 111.019,197.439 110.731,197.569 110.442 C 197.699 110.153,197.890 109.640,197.995 109.302 C 198.211 108.605,198.346 108.546,199.792 108.519 C 200.628 108.504,200.899 108.566,201.167 108.833 M232.460 116.402 C 232.490 121.783,232.560 124.289,232.687 124.441 C 232.830 124.613,233.940 124.671,237.727 124.706 L 242.583 124.750 242.634 125.735 C 242.669 126.409,242.616 126.762,242.467 126.857 C 242.141 127.064,230.379 127.036,229.989 126.827 C 229.676 126.660,229.667 126.384,229.667 117.752 C 229.667 107.560,229.501 108.475,231.333 108.543 L 232.417 108.583 232.460 116.402 M277.801 108.643 C 277.950 108.738,278.002 109.091,277.967 109.765 L 277.917 110.750 273.167 110.840 C 270.554 110.889,268.398 110.946,268.375 110.965 C 268.352 110.984,268.333 112.162,268.333 113.583 C 268.333 115.004,268.352 116.179,268.375 116.195 C 268.398 116.211,270.254 116.267,272.500 116.320 L 276.583 116.417 276.633 117.348 C 276.703 118.686,276.805 118.654,272.320 118.705 L 268.417 118.750 268.371 121.571 C 268.336 123.716,268.376 124.424,268.538 124.527 C 268.654 124.601,270.900 124.663,273.528 124.664 C 276.156 124.666,278.425 124.712,278.570 124.768 C 278.987 124.928,278.939 126.598,278.511 126.827 C 278.164 127.013,266.547 127.075,265.875 126.895 L 265.500 126.794 265.500 117.743 C 265.500 109.262,265.518 108.686,265.792 108.615 C 266.323 108.476,277.579 108.502,277.801 108.643 M315.301 108.643 C 315.450 108.738,315.502 109.091,315.467 109.765 L 315.417 110.750 312.000 110.842 C 310.121 110.893,308.565 110.949,308.542 110.967 C 308.519 110.985,308.500 114.510,308.500 118.800 C 308.500 127.605,308.605 127.000,307.083 127.000 C 305.562 127.000,305.667 127.603,305.667 118.818 C 305.667 111.875,305.638 111.025,305.403 110.934 C 305.258 110.879,303.683 110.833,301.903 110.833 L 298.667 110.833 298.667 109.778 C 298.667 109.197,298.717 108.672,298.778 108.611 C 298.940 108.449,315.044 108.480,315.301 108.643 M351.083 109.667 L 351.083 110.750 347.833 110.833 C 346.046 110.879,344.490 110.977,344.375 111.052 C 344.213 111.156,344.167 112.930,344.167 118.992 C 344.167 127.761,344.293 127.000,342.833 127.000 C 341.373 127.000,341.500 127.761,341.500 118.992 C 341.500 112.930,341.453 111.156,341.292 111.052 C 341.177 110.977,339.583 110.879,337.750 110.833 L 334.417 110.750 334.366 109.861 C 334.282 108.392,333.644 108.491,342.897 108.540 L 351.083 108.583 351.083 109.667 M384.632 108.607 C 384.986 108.702,385.011 108.787,384.966 109.730 L 384.917 110.750 382.678 110.797 C 381.375 110.824,380.347 110.920,380.219 111.025 C 380.045 111.170,380.000 112.544,380.000 117.750 C 380.000 122.956,380.045 124.330,380.219 124.475 C 380.347 124.580,381.375 124.676,382.678 124.703 L 384.917 124.750 384.966 125.770 C 385.029 127.083,385.498 126.996,378.417 126.995 C 371.793 126.995,372.131 127.063,372.199 125.735 L 372.250 124.750 374.583 124.667 C 375.867 124.621,377.010 124.523,377.125 124.448 C 377.286 124.344,377.333 122.818,377.333 117.750 C 377.333 112.682,377.286 111.156,377.125 111.052 C 377.010 110.977,375.867 110.879,374.583 110.833 L 372.250 110.750 372.199 109.765 C 372.164 109.091,372.217 108.738,372.366 108.643 C 372.615 108.485,384.052 108.451,384.632 108.607 M126.244 110.636 C 124.749 111.474,124.189 112.251,123.457 114.500 C 123.347 114.837,123.267 116.207,123.267 117.750 C 123.267 120.302,123.327 120.741,123.868 122.167 C 125.072 125.334,129.117 126.293,131.362 123.944 C 133.879 121.310,133.817 113.997,131.257 111.406 C 130.221 110.357,127.489 109.938,126.244 110.636 M89.792 111.005 C 89.323 111.291,89.351 117.075,89.822 117.327 C 90.864 117.885,94.574 117.355,95.932 116.455 C 97.793 115.221,97.648 112.319,95.675 111.315 C 94.812 110.876,90.385 110.643,89.792 111.005 M160.704 110.964 C 160.543 111.073,160.503 111.787,160.538 113.929 L 160.583 116.750 162.250 116.799 C 166.419 116.922,168.891 113.025,165.736 111.303 C 165.032 110.919,161.156 110.658,160.704 110.964 M55.857 112.650 C 55.660 113.106,55.497 113.540,55.494 113.614 C 55.491 113.689,55.344 114.050,55.167 114.417 C 54.990 114.783,54.842 115.175,54.839 115.287 C 54.836 115.399,54.687 115.812,54.509 116.204 C 53.612 118.176,53.161 119.560,53.371 119.694 C 53.797 119.964,59.333 119.861,59.441 119.581 C 59.494 119.443,59.463 119.236,59.371 119.123 C 59.280 119.009,59.150 118.654,59.083 118.333 C 59.016 118.013,58.902 117.675,58.829 117.583 C 58.757 117.492,58.536 116.939,58.340 116.355 C 58.144 115.772,57.846 114.984,57.679 114.605 C 57.511 114.227,57.190 113.471,56.965 112.926 C 56.446 111.668,56.295 111.630,55.857 112.650 M198.924 112.679 C 198.693 113.176,198.503 113.710,198.502 113.865 C 198.501 114.020,198.427 114.192,198.338 114.247 C 198.248 114.303,198.067 114.701,197.934 115.132 C 197.801 115.564,197.495 116.404,197.253 117.000 C 196.015 120.049,195.844 119.833,199.500 119.833 C 202.663 119.833,202.886 119.776,202.431 119.082 C 202.286 118.860,202.167 118.553,202.167 118.399 C 202.167 118.246,202.026 117.812,201.854 117.435 C 201.682 117.058,201.148 115.737,200.667 114.500 C 199.535 111.589,199.465 111.517,198.924 112.679 " stroke="none" fill="#f9faf8" fill-rule="evenodd"></path><path id="path1" d="M0.000 49.750 L 0.000 99.500 200.000 99.500 L 400.000 99.500 400.000 49.750 L 400.000 0.000 200.000 0.000 L 0.000 0.000 0.000 49.750 M38.667 14.514 C 39.171 14.600,40.370 14.752,41.332 14.852 C 42.294 14.952,43.284 15.138,43.532 15.267 C 43.780 15.395,44.279 15.500,44.640 15.500 C 45.001 15.500,45.624 15.648,46.023 15.830 C 46.423 16.011,46.959 16.161,47.214 16.163 C 47.470 16.165,47.845 16.271,48.048 16.398 C 48.251 16.525,48.698 16.679,49.042 16.739 C 49.385 16.799,49.667 16.912,49.667 16.989 C 49.667 17.067,49.873 17.179,50.125 17.239 C 50.547 17.339,51.735 17.853,52.333 18.195 C 52.471 18.274,52.790 18.419,53.042 18.519 C 53.294 18.618,53.500 18.760,53.500 18.833 C 53.500 18.907,53.706 19.050,53.958 19.151 C 54.210 19.252,54.613 19.465,54.852 19.625 C 56.133 20.481,57.308 21.348,57.761 21.772 C 58.042 22.035,58.567 22.522,58.927 22.855 C 59.998 23.842,61.683 25.839,62.798 27.442 C 63.491 28.438,65.403 32.324,65.820 33.584 C 66.033 34.225,66.270 34.917,66.348 35.122 C 68.313 40.272,68.831 51.666,67.430 58.917 C 66.635 63.033,64.768 68.142,63.199 70.497 C 62.986 70.817,62.697 71.319,62.557 71.614 C 62.417 71.910,62.141 72.328,61.943 72.545 C 61.745 72.763,61.391 73.215,61.155 73.551 C 60.137 75.003,57.174 77.778,55.337 79.000 C 55.131 79.137,54.801 79.371,54.606 79.519 C 54.410 79.667,54.081 79.840,53.875 79.905 C 53.669 79.970,53.500 80.085,53.500 80.162 C 53.500 80.238,53.294 80.382,53.042 80.481 C 52.790 80.581,52.471 80.738,52.333 80.831 C 52.196 80.924,51.896 81.075,51.667 81.166 C 51.438 81.258,51.137 81.399,51.000 81.480 C 50.437 81.812,49.197 82.333,48.972 82.333 C 48.839 82.333,48.585 82.443,48.407 82.578 C 48.229 82.713,47.896 82.828,47.667 82.834 C 47.438 82.840,46.950 82.990,46.583 83.167 C 46.217 83.344,45.744 83.491,45.533 83.494 C 45.323 83.497,44.948 83.604,44.700 83.732 C 44.453 83.859,43.725 84.043,43.083 84.140 C 42.442 84.238,41.542 84.393,41.083 84.486 C 39.793 84.748,37.619 85.002,35.333 85.158 C 32.911 85.323,15.625 85.383,14.854 85.229 L 14.333 85.125 14.333 49.840 C 14.333 30.434,14.383 14.506,14.444 14.444 C 14.617 14.271,37.634 14.338,38.667 14.514 M106.941 14.461 C 107.140 14.589,108.290 17.275,108.456 18.000 C 108.509 18.229,108.645 18.567,108.759 18.750 C 108.874 18.933,109.022 19.346,109.088 19.667 C 109.155 19.987,109.312 20.398,109.438 20.579 C 109.564 20.760,109.667 21.007,109.667 21.130 C 109.667 21.252,109.803 21.666,109.971 22.051 C 110.367 22.963,110.727 23.869,111.143 25.000 C 111.635 26.337,112.644 28.967,112.997 29.833 C 113.818 31.850,114.371 33.297,114.492 33.750 C 114.566 34.025,114.748 34.475,114.896 34.750 C 115.044 35.025,115.166 35.325,115.167 35.417 C 115.169 35.508,115.545 36.518,116.002 37.660 C 116.459 38.802,116.833 39.862,116.833 40.015 C 116.833 40.167,116.938 40.379,117.066 40.486 C 117.194 40.592,117.351 40.957,117.415 41.298 C 117.478 41.638,117.627 42.104,117.745 42.333 C 117.863 42.563,118.125 43.200,118.327 43.750 C 119.041 45.695,119.196 46.088,119.430 46.555 C 119.560 46.815,119.667 47.115,119.668 47.222 C 119.669 47.329,119.854 47.792,120.080 48.250 C 120.305 48.708,120.492 49.248,120.495 49.448 C 120.498 49.649,120.565 49.854,120.645 49.903 C 120.725 49.952,121.036 50.688,121.337 51.538 C 121.638 52.388,121.948 53.155,122.026 53.242 C 122.103 53.329,122.167 53.568,122.167 53.773 C 122.167 53.979,122.241 54.193,122.331 54.249 C 122.422 54.305,122.614 54.758,122.759 55.255 C 122.903 55.753,123.092 56.204,123.178 56.257 C 123.263 56.310,123.333 56.483,123.333 56.641 C 123.333 56.800,123.483 57.224,123.667 57.583 C 123.850 57.943,124.000 58.313,124.000 58.407 C 124.000 58.562,124.892 60.895,125.406 62.084 C 125.525 62.359,125.675 62.823,125.738 63.114 C 125.802 63.405,125.962 63.733,126.094 63.842 C 126.226 63.951,126.334 64.238,126.334 64.479 C 126.335 64.720,126.455 65.142,126.601 65.417 C 126.748 65.692,127.077 66.479,127.334 67.167 C 127.591 67.854,127.964 68.829,128.163 69.333 C 128.361 69.837,128.602 70.475,128.698 70.750 C 128.960 71.506,130.662 75.843,130.931 76.442 C 131.060 76.731,131.167 77.073,131.167 77.202 C 131.167 77.331,131.277 77.582,131.411 77.760 C 131.546 77.938,131.658 78.236,131.661 78.423 C 131.664 78.610,131.817 79.057,132.000 79.417 C 132.183 79.776,132.333 80.148,132.332 80.244 C 132.331 80.339,132.587 81.017,132.900 81.750 C 134.492 85.480,134.560 85.228,131.943 85.305 C 129.243 85.385,129.070 85.317,128.562 83.997 C 128.333 83.403,128.007 82.579,127.837 82.167 C 127.667 81.754,127.360 80.967,127.155 80.417 C 126.949 79.867,126.718 79.345,126.641 79.258 C 126.563 79.171,126.497 78.984,126.494 78.842 C 126.491 78.700,126.344 78.283,126.167 77.917 C 125.990 77.550,125.840 77.137,125.833 77.000 C 125.827 76.862,125.677 76.450,125.500 76.083 C 125.323 75.717,125.175 75.316,125.172 75.192 C 125.169 75.069,125.063 74.769,124.937 74.526 C 124.811 74.282,124.541 73.633,124.338 73.083 C 123.959 72.058,123.800 71.670,123.186 70.287 C 122.992 69.849,122.833 69.396,122.833 69.281 C 122.833 69.165,122.683 68.776,122.500 68.417 C 122.317 68.057,122.167 67.606,122.167 67.415 C 122.167 67.223,122.093 66.993,122.002 66.902 C 121.912 66.812,121.644 66.182,121.407 65.504 C 121.169 64.825,120.868 64.062,120.738 63.810 C 120.607 63.557,120.500 63.205,120.500 63.029 C 120.500 62.852,120.393 62.619,120.263 62.511 C 120.133 62.403,119.978 62.032,119.920 61.687 C 119.862 61.341,119.628 60.858,119.400 60.613 L 118.987 60.167 104.347 60.167 C 92.837 60.167,89.671 60.211,89.538 60.375 C 89.336 60.622,87.667 64.675,87.668 64.917 C 87.668 65.008,87.521 65.383,87.342 65.750 C 87.163 66.117,86.847 66.867,86.639 67.417 C 86.432 67.967,86.166 68.565,86.048 68.745 C 85.930 68.926,85.833 69.243,85.833 69.450 C 85.833 69.656,85.684 70.071,85.501 70.371 C 85.318 70.671,85.168 71.042,85.167 71.195 C 85.167 71.348,85.061 71.685,84.933 71.945 C 84.475 72.866,84.000 73.955,84.000 74.081 C 84.000 74.208,82.295 78.610,81.997 79.250 C 81.912 79.433,81.500 80.483,81.081 81.583 C 80.663 82.683,80.257 83.733,80.181 83.917 C 80.104 84.100,79.961 84.452,79.862 84.699 C 79.630 85.279,79.053 85.389,76.679 85.308 C 74.585 85.236,74.529 85.209,74.895 84.439 C 75.044 84.124,75.167 83.777,75.167 83.667 C 75.167 83.558,75.270 83.269,75.396 83.026 C 75.523 82.782,75.792 82.133,75.995 81.583 C 76.366 80.580,76.852 79.349,77.246 78.417 C 77.363 78.142,77.741 77.167,78.088 76.250 C 78.434 75.333,78.846 74.283,79.002 73.917 C 79.158 73.550,79.563 72.537,79.903 71.667 C 80.242 70.796,80.622 69.858,80.747 69.583 C 80.872 69.308,81.061 68.803,81.166 68.461 C 81.272 68.118,81.427 67.795,81.512 67.742 C 81.597 67.690,81.667 67.491,81.667 67.300 C 81.667 66.986,82.015 66.117,82.589 65.000 C 82.706 64.771,82.855 64.305,82.919 63.964 C 82.983 63.624,83.140 63.258,83.267 63.152 C 83.395 63.046,83.500 62.820,83.500 62.651 C 83.500 62.481,83.645 62.021,83.823 61.629 C 84.000 61.237,84.419 60.204,84.753 59.333 C 85.394 57.662,85.718 56.840,86.167 55.750 C 86.641 54.598,86.949 53.820,87.916 51.333 C 88.433 50.004,89.001 48.608,89.178 48.232 C 89.355 47.855,89.500 47.430,89.500 47.287 C 89.500 47.144,89.611 46.815,89.748 46.555 C 90.169 45.753,90.667 44.529,90.667 44.296 C 90.667 44.174,90.768 43.926,90.892 43.745 C 91.016 43.565,91.168 43.192,91.231 42.917 C 91.294 42.642,91.449 42.192,91.576 41.917 C 91.704 41.642,91.972 41.004,92.171 40.500 C 92.371 39.996,92.630 39.358,92.746 39.083 C 92.863 38.808,93.241 37.833,93.588 36.917 C 93.934 36.000,94.356 34.935,94.526 34.551 C 94.695 34.166,94.833 33.806,94.833 33.750 C 94.833 33.694,94.970 33.334,95.137 32.949 C 95.530 32.045,95.873 31.193,96.423 29.750 C 96.667 29.108,96.935 28.512,97.017 28.425 C 97.099 28.338,97.167 28.131,97.167 27.966 C 97.167 27.801,97.317 27.386,97.500 27.044 C 97.683 26.701,97.836 26.308,97.839 26.169 C 97.842 26.030,97.949 25.778,98.077 25.610 C 98.205 25.441,98.358 25.014,98.418 24.661 C 98.477 24.308,98.633 23.931,98.763 23.823 C 98.893 23.714,99.000 23.487,99.000 23.317 C 99.000 23.148,99.161 22.651,99.359 22.213 C 99.856 21.109,100.074 20.573,100.496 19.417 C 100.929 18.229,101.282 17.337,101.696 16.384 C 101.863 16.000,102.000 15.625,102.001 15.551 C 102.001 15.477,102.150 15.173,102.332 14.875 L 102.662 14.333 104.706 14.336 C 105.830 14.337,106.836 14.394,106.941 14.461 M149.697 14.872 C 149.909 15.168,150.458 15.986,150.917 16.691 C 151.375 17.395,152.200 18.634,152.750 19.443 C 153.300 20.252,153.825 21.042,153.917 21.197 C 154.008 21.353,155.358 23.378,156.916 25.698 C 158.475 28.018,159.825 30.045,159.916 30.202 C 160.057 30.443,165.120 38.045,165.997 39.333 C 166.154 39.563,167.539 41.625,169.077 43.917 C 170.615 46.208,171.923 48.121,171.986 48.167 C 172.048 48.212,172.558 48.962,173.120 49.833 C 173.682 50.704,174.376 51.754,174.662 52.167 C 174.948 52.579,175.574 53.517,176.053 54.250 C 176.532 54.983,177.080 55.808,177.270 56.083 C 177.460 56.358,177.833 56.914,178.099 57.318 C 178.366 57.722,178.712 58.247,178.870 58.484 C 179.028 58.722,179.273 59.123,179.416 59.375 C 179.559 59.627,179.748 59.833,179.838 59.833 C 179.927 59.833,180.000 59.908,180.000 59.998 C 180.000 60.163,181.933 63.154,182.856 64.417 C 183.124 64.783,183.468 65.327,183.619 65.625 C 183.771 65.923,183.956 66.167,184.031 66.167 C 184.106 66.167,184.167 66.268,184.167 66.391 C 184.167 66.514,184.317 66.751,184.500 66.917 C 184.683 67.083,184.833 67.289,184.833 67.375 C 184.833 67.460,184.965 67.703,185.125 67.913 C 185.285 68.123,185.509 68.435,185.622 68.606 C 185.735 68.777,186.029 69.217,186.275 69.583 C 186.522 69.950,186.946 70.587,187.218 71.000 C 188.210 72.505,188.951 73.603,189.552 74.457 C 189.890 74.937,190.170 75.387,190.173 75.457 C 190.177 75.526,190.398 75.838,190.664 76.149 L 191.148 76.715 191.251 76.306 C 191.307 76.080,191.312 74.401,191.261 72.573 C 191.048 64.918,190.974 14.815,191.176 14.572 C 191.381 14.325,194.989 14.212,195.570 14.434 C 196.026 14.609,195.967 84.917,195.511 85.161 C 195.334 85.256,194.249 85.333,193.101 85.333 C 190.617 85.333,190.894 85.515,189.059 82.682 C 188.348 81.583,188.126 81.246,187.653 80.550 C 187.417 80.202,187.004 79.587,186.737 79.183 C 186.469 78.780,185.838 77.828,185.333 77.068 C 184.829 76.307,184.218 75.400,183.976 75.051 C 183.734 74.702,183.321 74.086,183.059 73.682 C 182.798 73.278,182.471 72.778,182.333 72.571 C 182.196 72.365,181.842 71.833,181.546 71.390 C 181.251 70.946,180.932 70.493,180.838 70.382 C 180.744 70.271,180.667 70.112,180.667 70.027 C 180.667 69.943,180.546 69.774,180.399 69.652 C 180.252 69.530,180.065 69.277,179.984 69.090 C 179.902 68.903,179.457 68.225,178.994 67.583 C 178.033 66.252,175.667 62.803,175.417 62.371 C 175.197 61.989,170.697 55.277,169.931 54.187 C 169.602 53.720,169.333 53.303,169.333 53.262 C 169.333 53.194,167.433 50.319,167.122 49.917 C 166.938 49.679,155.951 33.210,155.748 32.867 C 155.352 32.200,154.886 31.526,154.230 30.667 C 153.845 30.162,153.391 29.514,153.223 29.225 C 153.055 28.937,152.242 27.710,151.417 26.499 C 150.592 25.287,149.827 24.134,149.717 23.936 C 149.607 23.737,149.330 23.398,149.101 23.183 L 148.684 22.791 148.590 23.187 C 148.538 23.405,148.581 24.633,148.685 25.917 C 148.951 29.189,149.094 84.806,148.837 85.063 C 148.590 85.310,145.204 85.409,144.625 85.185 L 144.167 85.008 144.167 49.871 C 144.167 22.764,144.212 14.688,144.367 14.533 C 144.503 14.397,145.316 14.333,146.939 14.333 L 149.311 14.333 149.697 14.872 M220.625 49.712 L 220.667 85.008 220.240 85.171 C 219.763 85.352,217.163 85.391,216.354 85.229 L 215.833 85.125 215.833 49.840 C 215.833 30.434,215.885 14.504,215.949 14.440 C 216.013 14.376,217.081 14.345,218.324 14.371 L 220.583 14.417 220.625 49.712 M279.417 16.667 L 279.417 18.917 262.676 18.959 C 249.537 18.992,245.907 19.046,245.804 19.209 C 245.731 19.323,245.671 25.212,245.669 32.296 L 245.667 45.175 246.094 45.337 C 246.361 45.439,252.344 45.500,261.993 45.500 C 275.947 45.500,277.474 45.526,277.566 45.764 C 277.660 46.011,277.715 49.956,277.625 50.038 C 277.602 50.059,270.421 50.115,261.667 50.163 L 245.750 50.250 245.707 65.241 C 245.678 75.589,245.719 80.286,245.841 80.407 C 245.961 80.527,251.328 80.610,262.717 80.667 L 279.417 80.750 279.463 82.937 L 279.509 85.123 278.984 85.228 C 278.300 85.365,242.038 85.366,241.354 85.229 L 240.833 85.125 240.833 49.840 C 240.833 30.434,240.884 14.505,240.945 14.444 C 241.007 14.382,249.688 14.351,260.237 14.374 L 279.417 14.417 279.417 16.667 M300.458 47.333 C 300.496 78.047,300.518 80.264,300.781 80.458 C 301.003 80.622,304.637 80.667,317.619 80.667 L 334.175 80.667 334.343 81.108 C 334.715 82.087,334.465 85.055,334.000 85.185 C 333.480 85.329,296.901 85.372,296.188 85.229 L 295.667 85.125 295.667 49.840 C 295.667 30.434,295.719 14.504,295.782 14.440 C 295.846 14.376,296.915 14.345,298.157 14.371 L 300.417 14.417 300.458 47.333 M385.632 16.333 C 385.658 17.387,385.638 18.418,385.587 18.624 L 385.494 18.998 368.705 19.041 L 351.917 19.083 351.874 32.129 L 351.831 45.174 352.260 45.337 C 352.528 45.439,358.451 45.500,368.061 45.500 C 379.795 45.500,383.481 45.547,383.633 45.700 C 383.803 45.869,383.950 49.894,383.792 50.038 C 383.769 50.059,376.587 50.115,367.833 50.163 L 351.917 50.250 351.874 65.232 C 351.843 76.163,351.882 80.275,352.020 80.440 C 352.176 80.628,355.026 80.667,368.836 80.667 C 383.845 80.667,385.474 80.692,385.566 80.930 C 385.621 81.075,385.667 82.078,385.667 83.159 L 385.667 85.125 385.146 85.229 C 384.259 85.407,347.733 85.350,347.261 85.171 L 346.833 85.008 346.833 49.871 C 346.833 22.696,346.879 14.688,347.034 14.533 C 347.189 14.378,351.634 14.342,366.409 14.374 L 385.583 14.417 385.632 16.333 M19.339 18.989 C 19.112 19.414,19.102 80.306,19.330 80.667 C 19.521 80.969,32.760 81.140,33.307 80.847 C 33.475 80.758,34.693 80.636,36.014 80.577 C 37.540 80.508,38.846 80.353,39.594 80.151 C 40.241 79.976,41.039 79.833,41.367 79.833 C 41.694 79.833,42.177 79.721,42.439 79.584 C 42.702 79.447,43.130 79.335,43.391 79.334 C 43.653 79.334,44.103 79.225,44.391 79.093 C 44.680 78.961,45.232 78.771,45.618 78.672 C 46.004 78.572,46.364 78.418,46.419 78.329 C 46.475 78.240,46.669 78.167,46.852 78.167 C 47.136 78.167,47.817 77.870,48.833 77.304 C 48.971 77.227,49.196 77.116,49.333 77.056 C 49.678 76.906,51.897 75.615,52.000 75.505 C 52.046 75.455,52.526 75.085,53.067 74.683 C 56.166 72.377,58.858 68.664,60.573 64.333 C 60.736 63.921,60.946 63.396,61.039 63.167 C 61.261 62.618,61.587 61.384,62.250 58.583 C 63.001 55.407,63.127 42.316,62.417 41.167 C 62.363 41.079,62.210 40.387,62.078 39.629 C 61.705 37.499,60.858 34.636,60.488 34.258 C 60.403 34.171,60.333 33.984,60.332 33.842 C 60.332 33.700,60.211 33.358,60.065 33.083 C 59.918 32.808,59.568 32.133,59.286 31.583 C 57.635 28.354,54.557 25.086,51.335 23.141 C 49.764 22.193,46.778 20.833,46.266 20.833 C 46.050 20.833,45.789 20.731,45.686 20.606 C 45.582 20.482,45.142 20.337,44.707 20.285 C 44.272 20.234,43.692 20.074,43.417 19.930 C 43.142 19.786,42.570 19.668,42.146 19.668 C 41.722 19.667,41.047 19.548,40.646 19.404 C 40.165 19.230,39.066 19.110,37.417 19.050 C 36.042 19.000,34.790 18.893,34.636 18.813 C 33.981 18.472,19.527 18.638,19.339 18.989 M104.198 21.377 C 104.012 21.857,103.545 23.225,103.162 24.417 C 102.455 26.612,102.185 27.355,101.637 28.616 C 101.470 29.000,101.331 29.413,101.328 29.533 C 101.325 29.652,101.177 30.050,101.000 30.417 C 100.823 30.783,100.675 31.175,100.672 31.287 C 100.669 31.399,100.506 31.849,100.309 32.287 C 99.820 33.375,99.738 33.579,99.253 34.917 C 99.021 35.558,98.761 36.233,98.676 36.417 C 98.244 37.350,97.833 38.397,97.833 38.565 C 97.833 38.670,97.683 39.035,97.500 39.377 C 97.317 39.719,97.167 40.110,97.167 40.245 C 97.167 40.380,97.020 40.812,96.840 41.204 C 96.661 41.596,96.244 42.629,95.915 43.500 C 94.998 45.919,94.609 46.901,94.492 47.083 C 94.433 47.175,94.288 47.608,94.170 48.046 C 94.051 48.484,93.890 48.882,93.810 48.931 C 93.731 48.980,93.667 49.142,93.667 49.291 C 93.667 49.440,93.529 49.866,93.361 50.239 C 93.192 50.612,92.886 51.367,92.680 51.917 C 92.474 52.467,92.084 53.440,91.812 54.080 C 91.078 55.810,89.934 55.667,104.511 55.667 C 118.404 55.667,117.798 55.712,117.381 54.695 C 117.280 54.450,117.105 53.987,116.990 53.667 C 116.714 52.890,116.184 51.498,116.006 51.083 C 115.928 50.900,115.753 50.413,115.618 50.000 C 115.337 49.141,114.471 46.785,114.209 46.167 C 113.815 45.237,112.951 42.870,112.749 42.167 C 112.630 41.754,112.413 41.192,112.267 40.917 C 112.121 40.642,112.002 40.290,112.001 40.135 C 112.000 39.980,111.934 39.812,111.852 39.762 C 111.771 39.711,111.652 39.388,111.588 39.044 C 111.524 38.699,111.376 38.304,111.260 38.167 C 111.143 38.029,110.968 37.617,110.871 37.250 C 110.686 36.550,109.736 33.942,109.497 33.480 C 109.421 33.332,109.161 32.619,108.921 31.897 C 108.680 31.174,108.375 30.384,108.242 30.141 C 108.109 29.898,108.000 29.616,108.000 29.515 C 108.000 29.414,107.748 28.675,107.439 27.874 C 107.131 27.072,106.677 25.779,106.430 25.000 C 106.184 24.221,105.921 23.468,105.846 23.328 C 105.771 23.187,105.653 22.812,105.584 22.495 C 105.445 21.852,104.920 20.740,104.688 20.596 C 104.605 20.545,104.385 20.896,104.198 21.377 M20.333 108.282 C 17.195 109.359,15.410 110.945,14.181 113.750 C 13.391 115.552,13.340 120.112,14.093 121.667 C 14.248 121.987,14.529 122.569,14.718 122.959 C 15.469 124.515,18.593 127.000,19.800 127.000 C 19.979 127.000,20.395 127.112,20.724 127.250 C 21.144 127.425,21.923 127.500,23.333 127.500 C 24.744 127.500,25.523 127.425,25.942 127.250 C 26.271 127.112,26.835 127.000,27.195 127.000 C 28.083 127.000,28.668 126.423,28.664 125.549 C 28.660 124.412,28.183 124.279,26.455 124.930 C 25.573 125.262,22.252 125.252,21.606 124.916 C 21.343 124.779,21.005 124.667,20.853 124.667 C 19.985 124.667,17.992 122.762,17.215 121.190 C 15.374 117.464,16.912 112.501,20.422 110.843 C 21.679 110.249,24.811 110.094,25.667 110.583 C 25.896 110.714,26.284 110.824,26.528 110.827 C 26.773 110.831,27.191 110.959,27.458 111.112 C 28.225 111.552,28.500 111.332,28.500 110.278 C 28.500 109.122,28.065 108.500,27.259 108.500 C 26.956 108.500,26.390 108.388,26.000 108.250 C 25.024 107.906,21.370 107.926,20.333 108.282 M126.000 108.250 C 125.771 108.381,125.433 108.493,125.250 108.498 C 125.067 108.503,124.729 108.654,124.500 108.833 C 124.271 109.013,123.996 109.161,123.890 109.163 C 123.658 109.167,121.667 111.308,121.667 111.553 C 121.667 111.647,121.566 111.842,121.442 111.987 C 120.938 112.577,120.538 114.193,120.228 116.889 C 119.820 120.437,121.713 125.239,123.969 126.379 C 124.215 126.503,124.567 126.685,124.750 126.783 C 126.708 127.823,129.656 127.751,131.971 126.607 C 137.378 123.933,137.597 112.410,132.305 109.066 C 130.728 108.069,127.131 107.604,126.000 108.250 M55.292 108.680 C 55.131 108.773,55.000 108.972,55.000 109.122 C 55.000 109.272,54.862 109.700,54.694 110.072 C 54.525 110.445,54.215 111.200,54.003 111.750 C 53.791 112.300,53.479 113.065,53.309 113.449 C 53.139 113.834,53.000 114.235,53.000 114.340 C 53.000 114.446,52.896 114.731,52.770 114.974 C 52.492 115.509,52.059 116.560,51.250 118.667 C 50.915 119.537,50.497 120.558,50.321 120.935 C 50.144 121.312,50.000 121.706,50.000 121.812 C 50.000 121.918,49.928 122.135,49.841 122.294 C 49.649 122.643,48.552 125.362,48.290 126.137 C 47.810 127.559,50.208 127.342,50.723 125.917 C 52.215 121.793,51.646 122.167,56.441 122.167 C 60.100 122.167,60.833 122.258,60.833 122.711 C 60.833 122.935,61.429 124.529,61.751 125.167 C 61.867 125.396,62.014 125.828,62.078 126.126 C 62.247 126.920,64.127 127.389,64.978 126.851 C 65.214 126.701,64.992 125.631,64.647 125.258 C 64.566 125.171,64.500 124.992,64.500 124.860 C 64.500 124.728,64.353 124.312,64.172 123.935 C 63.992 123.558,63.423 122.162,62.907 120.833 C 61.355 116.831,61.138 116.285,60.994 116.012 C 60.919 115.868,60.692 115.300,60.491 114.750 C 60.290 114.200,60.031 113.563,59.916 113.333 C 59.800 113.104,59.654 112.677,59.591 112.383 C 59.528 112.090,59.266 111.437,59.009 110.934 C 58.751 110.430,58.491 109.753,58.430 109.428 C 58.268 108.563,56.298 108.094,55.292 108.680 M87.042 108.687 C 86.715 109.021,86.741 126.549,87.069 126.821 C 87.210 126.939,87.725 126.997,88.360 126.967 L 89.417 126.917 89.462 123.508 C 89.515 119.526,89.326 119.841,91.667 119.832 C 92.629 119.828,93.717 119.747,94.083 119.651 C 94.450 119.554,95.125 119.396,95.583 119.298 C 96.042 119.200,96.529 119.026,96.667 118.913 C 96.804 118.799,97.090 118.653,97.303 118.588 C 98.722 118.155,100.022 116.059,100.127 114.035 C 100.271 111.246,99.351 109.823,96.833 108.943 C 95.656 108.531,87.405 108.315,87.042 108.687 M158.042 108.610 C 157.879 108.676,157.833 110.661,157.833 117.746 C 157.833 127.914,157.702 127.000,159.167 127.000 C 160.589 127.000,160.500 127.260,160.500 123.086 L 160.500 119.375 161.021 119.271 C 161.723 119.130,162.875 119.143,163.095 119.294 C 163.296 119.432,165.552 122.274,166.169 123.167 C 166.391 123.487,166.650 123.838,166.745 123.947 C 166.839 124.055,167.395 124.786,167.980 125.572 L 169.044 127.000 170.512 127.000 C 171.320 127.000,172.026 126.927,172.081 126.837 C 172.163 126.704,171.043 124.977,170.674 124.667 C 170.541 124.554,169.452 123.116,168.333 121.574 C 167.829 120.879,167.173 120.008,166.875 119.639 C 166.143 118.733,166.183 118.465,167.138 117.852 C 169.207 116.524,169.918 115.304,169.915 113.083 C 169.911 110.443,168.822 109.329,165.583 108.653 C 164.874 108.506,158.393 108.469,158.042 108.610 M198.468 108.613 C 198.313 108.654,198.100 108.964,197.995 109.302 C 197.890 109.640,197.699 110.153,197.569 110.442 C 197.439 110.731,197.333 111.019,197.333 111.083 C 197.333 111.147,197.227 111.436,197.097 111.725 C 196.521 113.004,196.167 113.888,196.167 114.045 C 196.167 114.137,196.009 114.559,195.815 114.982 C 195.333 116.037,195.107 116.585,194.677 117.750 C 194.177 119.105,193.675 120.325,193.397 120.859 C 193.270 121.102,193.167 121.388,193.167 121.493 C 193.167 121.599,193.028 122.000,192.858 122.384 C 190.996 126.610,190.950 126.993,192.303 126.997 C 193.280 127.001,193.607 126.787,193.744 126.055 C 193.808 125.713,193.967 125.282,194.097 125.096 C 194.227 124.911,194.333 124.643,194.333 124.502 C 194.333 124.361,194.483 123.965,194.667 123.623 C 194.850 123.281,195.000 122.891,195.000 122.756 C 195.000 122.252,195.647 122.167,199.457 122.167 C 203.889 122.167,203.668 122.090,204.270 123.833 C 204.508 124.521,204.761 125.158,204.832 125.250 C 204.903 125.342,205.014 125.661,205.078 125.960 C 205.264 126.833,205.549 127.000,206.850 127.000 C 208.169 127.000,208.370 126.815,208.010 125.934 C 207.893 125.649,207.691 125.117,207.561 124.750 C 207.431 124.383,207.255 123.933,207.171 123.750 C 207.087 123.567,206.857 123.004,206.661 122.500 C 206.464 121.996,206.166 121.246,205.997 120.833 C 205.829 120.421,205.520 119.633,205.310 119.083 C 205.101 118.533,204.832 117.935,204.714 117.755 C 204.597 117.574,204.500 117.285,204.500 117.114 C 204.500 116.942,204.391 116.602,204.259 116.359 C 203.913 115.725,203.334 114.324,203.328 114.104 C 203.325 114.001,203.177 113.617,203.000 113.250 C 202.823 112.883,202.675 112.482,202.672 112.359 C 202.669 112.236,202.564 111.936,202.439 111.692 C 201.954 110.749,201.500 109.647,201.500 109.412 C 201.500 108.668,199.880 108.241,198.468 108.613 M229.958 108.676 C 229.481 108.960,229.511 126.572,229.989 126.827 C 230.379 127.036,242.141 127.064,242.467 126.857 C 242.616 126.762,242.669 126.409,242.634 125.735 L 242.583 124.750 237.727 124.706 C 233.940 124.671,232.830 124.613,232.687 124.441 C 232.560 124.289,232.490 121.783,232.460 116.402 L 232.417 108.583 231.333 108.543 C 230.737 108.521,230.119 108.581,229.958 108.676 M265.792 108.615 C 265.518 108.686,265.500 109.262,265.500 117.743 L 265.500 126.794 265.875 126.895 C 266.547 127.075,278.164 127.013,278.511 126.827 C 278.939 126.598,278.987 124.928,278.570 124.768 C 278.425 124.712,276.156 124.666,273.528 124.664 C 270.900 124.663,268.654 124.601,268.538 124.527 C 268.376 124.424,268.336 123.716,268.371 121.571 L 268.417 118.750 272.320 118.705 C 276.805 118.654,276.703 118.686,276.633 117.348 L 276.583 116.417 272.500 116.320 C 270.254 116.267,268.398 116.211,268.375 116.195 C 268.352 116.179,268.333 115.004,268.333 113.583 C 268.333 112.162,268.352 110.984,268.375 110.965 C 268.398 110.946,270.554 110.889,273.167 110.840 L 277.917 110.750 277.967 109.765 C 278.002 109.091,277.950 108.738,277.801 108.643 C 277.579 108.502,266.323 108.476,265.792 108.615 M298.778 108.611 C 298.717 108.672,298.667 109.197,298.667 109.778 L 298.667 110.833 301.903 110.833 C 303.683 110.833,305.258 110.879,305.403 110.934 C 305.638 111.025,305.667 111.875,305.667 118.818 C 305.667 127.603,305.562 127.000,307.083 127.000 C 308.605 127.000,308.500 127.605,308.500 118.800 C 308.500 114.510,308.519 110.985,308.542 110.967 C 308.565 110.949,310.121 110.893,312.000 110.842 L 315.417 110.750 315.467 109.765 C 315.502 109.091,315.450 108.738,315.301 108.643 C 315.044 108.480,298.940 108.449,298.778 108.611 M334.513 108.735 C 334.398 108.873,334.336 109.347,334.366 109.861 L 334.417 110.750 337.750 110.833 C 339.583 110.879,341.177 110.977,341.292 111.052 C 341.453 111.156,341.500 112.930,341.500 118.992 C 341.500 127.761,341.373 127.000,342.833 127.000 C 344.293 127.000,344.167 127.761,344.167 118.992 C 344.167 112.930,344.213 111.156,344.375 111.052 C 344.490 110.977,346.046 110.879,347.833 110.833 L 351.083 110.750 351.083 109.667 L 351.083 108.583 342.897 108.540 C 335.968 108.504,334.680 108.533,334.513 108.735 M372.366 108.643 C 372.217 108.738,372.164 109.091,372.199 109.765 L 372.250 110.750 374.583 110.833 C 375.867 110.879,377.010 110.977,377.125 111.052 C 377.286 111.156,377.333 112.682,377.333 117.750 C 377.333 122.818,377.286 124.344,377.125 124.448 C 377.010 124.523,375.867 124.621,374.583 124.667 L 372.250 124.750 372.199 125.735 C 372.131 127.063,371.793 126.995,378.417 126.995 C 385.498 126.996,385.029 127.083,384.966 125.770 L 384.917 124.750 382.678 124.703 C 381.375 124.676,380.347 124.580,380.219 124.475 C 380.045 124.330,380.000 122.956,380.000 117.750 C 380.000 112.544,380.045 111.170,380.219 111.025 C 380.347 110.920,381.375 110.824,382.678 110.797 L 384.917 110.750 384.966 109.730 C 385.011 108.787,384.986 108.702,384.632 108.607 C 384.052 108.451,372.615 108.485,372.366 108.643 M130.203 110.698 C 133.125 112.190,134.234 118.360,132.312 122.434 C 130.475 126.329,125.389 126.168,123.868 122.167 C 123.327 120.741,123.267 120.302,123.267 117.750 C 123.267 115.192,123.329 114.738,123.872 113.333 C 124.879 110.728,127.845 109.493,130.203 110.698 M95.675 111.315 C 97.648 112.319,97.793 115.221,95.932 116.455 C 94.574 117.355,90.864 117.885,89.822 117.327 C 89.351 117.075,89.323 111.291,89.792 111.005 C 90.385 110.643,94.812 110.876,95.675 111.315 M165.736 111.303 C 168.891 113.025,166.419 116.922,162.250 116.799 L 160.583 116.750 160.538 113.929 C 160.503 111.787,160.543 111.073,160.704 110.964 C 161.156 110.658,165.032 110.919,165.736 111.303 M56.965 112.926 C 57.190 113.471,57.511 114.227,57.679 114.605 C 57.846 114.984,58.144 115.772,58.340 116.355 C 58.536 116.939,58.757 117.492,58.829 117.583 C 58.902 117.675,59.016 118.013,59.083 118.333 C 59.150 118.654,59.280 119.009,59.371 119.123 C 59.463 119.236,59.494 119.443,59.441 119.581 C 59.333 119.861,53.797 119.964,53.371 119.694 C 53.161 119.560,53.612 118.176,54.509 116.204 C 54.687 115.812,54.836 115.399,54.839 115.287 C 54.842 115.175,54.990 114.783,55.167 114.417 C 55.344 114.050,55.491 113.689,55.494 113.614 C 55.510 113.243,56.235 111.828,56.385 111.878 C 56.479 111.910,56.740 112.381,56.965 112.926 M200.667 114.500 C 201.148 115.737,201.682 117.058,201.854 117.435 C 202.026 117.812,202.167 118.246,202.167 118.399 C 202.167 118.553,202.286 118.860,202.431 119.082 C 202.886 119.776,202.663 119.833,199.500 119.833 C 195.844 119.833,196.015 120.049,197.253 117.000 C 197.495 116.404,197.801 115.564,197.934 115.132 C 198.067 114.701,198.248 114.303,198.338 114.247 C 198.427 114.192,198.501 114.020,198.502 113.865 C 198.503 113.710,198.693 113.176,198.924 112.679 C 199.465 111.517,199.535 111.589,200.667 114.500 " stroke="none" fill="#1b1b1b" fill-rule="evenodd"></path></g></svg>