<svg width="100" height="100" xmlns="http://www.w3.org/2000/svg" version="1.1">

 <g>
  <title>Layer 1</title>
  <g id="svg_6">
   <path id="svg_1" fill="rgb(0%,0%,0%)" fill-rule="nonzero" d="m21.17188,0l4.49218,0l0,4.45313l4.14063,0l0,-4.45313l4.49219,0l0,13.47656l-4.49219,0l0,-4.49218l-4.10156,0l0,4.49218l-4.53125,0m19.0625,-8.98437l-3.96485,0l0,-4.49219l12.44141,0l0,4.49219l-3.98438,0l0,8.98437l-4.49218,0m10.44921,-13.47656l4.70704,0l2.89062,4.74609l2.89063,-4.74609l4.70703,0l0,13.47656l-4.49219,0l0,-6.67968l-3.14453,4.84375l-3.14453,-4.84375l0,6.67968l-4.41407,0m17.42188,-13.47656l4.49219,0l0,9.02344l6.36718,0l0,4.45312l-10.85937,0"/>
   <path id="svg_2" fill="rgb(89.411765%,30.196078%,14.901961%)" fill-rule="nonzero" d="m21.01563,91.99219l-6.44532,-72.34375l70.85938,0l-6.44531,72.30469l-29.04297,8.04687"/>
   <path id="svg_3" fill="rgb(94.509804%,39.607843%,16.078431%)" fill-rule="nonzero" d="m50,93.84766l0,-68.26172l28.96484,0l-5.52734,61.71875"/>
   <path id="svg_4" fill="rgb(92.156863%,92.156863%,92.156863%)" fill-rule="nonzero" d="m27.73438,34.43359l22.26562,0l0,8.86719l-12.53906,0l0.82031,9.08203l11.71875,0l0,8.84766l-19.84375,0m0.39063,4.45312l8.90625,0l0.625,7.08985l9.92187,2.65625l0,9.25781l-18.20312,-5.07812"/>
   <path id="svg_5" fill="rgb(100%,100%,100%)" fill-rule="nonzero" d="m72.1875,34.43359l-22.22656,0l0,8.86719l21.40625,0m-0.80078,9.08203l-20.60547,0l0,8.86719l10.9375,0l-1.03516,11.52344l-9.90234,2.65625l0,9.21875l18.16406,-5.03906"/>
  </g>
 </g>
</svg>