<svg width="100" height="99" xmlns="http://www.w3.org/2000/svg" version="1.1">

 <g>
  <title>Layer 1</title>
  <g id="surface1">
   <path id="svg_1" fill="rgb(82.745098%,21.960784%,20%)" fill-rule="nonzero" d="m79.23242,40.1579c0,16.49219 -13.12109,29.87109 -29.3125,29.87109c-16.19531,0 -29.3164,-13.3789 -29.3164,-29.87109c0,-16.48828 13.12109,-29.87109 29.3164,-29.87109c16.19141,0 29.3125,13.38281 29.3125,29.87109"/>
   <path id="svg_2" fill="rgb(93.72549%,23.921569%,22.745098%)" fill-rule="nonzero" d="m21.81055,47.55634c0,0 -2.12891,-31.14453 26.6914,-32.03906l-2.01172,-3.34375l-15.625,5.23046l-4.46875,5.10938l-3.89843,7.44531l-2.22266,8.66797l0.66016,5.79688"/>
   <path id="svg_3" fill="rgb(13.72549%,12.156863%,12.54902%)" fill-rule="nonzero" d="m29.84961,19.7829c-5.13281,5.25391 -8.32422,12.48438 -8.32422,20.49219c0,8.01172 3.19141,15.24219 8.32422,20.49609c5.15234,5.25391 12.22266,8.48047 20.07031,8.48047c7.84766,0 14.91406,-3.22656 20.07031,-8.48047c5.12891,-5.2539 8.32032,-12.48437 8.32032,-20.49609c0,-8.00781 -3.19141,-15.23828 -8.32032,-20.49219c-5.15625,-5.23047 -12.22265,-8.48047 -20.07031,-8.48047c-7.82422,0 -14.91797,3.22656 -20.07031,8.48047zm-1.30078,42.23828c-5.46094,-5.5625 -8.84375,-13.26562 -8.84375,-21.74609c0,-8.48047 3.38281,-16.1836 8.84375,-21.76563c5.46094,-5.55859 13.02344,-9.02343 21.37109,-9.02343c8.34375,0 15.91016,3.46484 21.3711,9.02343c5.45703,5.5586 8.83984,13.26172 8.83984,21.76563c0,8.48047 -3.38281,16.18359 -8.83984,21.74609c-5.46094,5.58203 -13.02735,9.01953 -21.3711,9.01953c-8.34765,0 -15.91015,-3.4375 -21.37109,-9.01953zm0,0"/>
   <path id="svg_4" fill="rgb(94.117647%,83.921569%,71.764706%)" fill-rule="nonzero" d="m62.25977,40.32196l-4.46875,0.66016l-6.02735,0.68359l-3.90234,0.09375l-3.80469,-0.11718l-2.91016,-0.89454l-2.57421,-2.78125l-2.01172,-5.67578l-0.44922,-1.22656l-2.66797,-0.89453l-1.5625,-2.56641l-1.10938,-3.67578l1.22657,-3.22656l2.91015,-1.01172l2.33985,1.10547l1.10937,2.44922l1.34766,-0.21094l0.44922,-0.56641l-0.44922,-2.5664l-0.11719,-3.22656l0.66016,-4.45313l-0.02344,-2.54297l2.03516,-3.2539l3.57031,-2.56641l6.23828,-2.66016l6.92969,1.01172l6.02734,4.33594l2.78906,4.44922l1.79688,3.23047l0.44922,8.00781l-1.34766,6.90234l-2.46094,6.125l-2.3164,3.27344"/>
   <path id="svg_5" fill="rgb(20%,31.372549%,38.039216%)" fill-rule="nonzero" d="m58.47461,59.56806l-15.95703,0.66015l0,2.66407l1.34765,9.35156l-0.66015,0.77734l-11.16016,-3.79297l-0.77734,-1.34375l-1.11328,-12.57812l-2.6211,-7.53906l-0.57031,-1.78907l8.9375,-6.125l2.78906,-1.10937l2.45703,3.01562l2.12891,1.88672l2.46094,0.77735l1.10937,0.32812l1.34766,5.79688l1.01562,1.22265l2.57813,-0.89453l-1.79688,3.46484l9.69141,4.56641l-1.20703,0.66016"/>
   <path id="svg_6" fill="rgb(42.745098%,41.960784%,42.745098%)" fill-rule="nonzero" d="m31.99805,20.74774l2.91015,-1.01171l2.33985,1.10546l1.10937,2.44922l1.34766,-0.21093l0.33203,-1.34375l-0.66016,-2.56641l0.66016,-6.125l-0.56641,-3.34375l2.00782,-2.33203l4.35156,-3.44141l-1.23047,-1.67187l-6.14453,3.01562l-2.57813,2l-1.4414,3.10938l-2.22266,3.01562l-0.66406,3.5586l0.44922,3.79296"/>
   <path id="svg_7" fill="rgb(86.27451%,85.098039%,84.705882%)" fill-rule="nonzero" d="m36.58398,10.28681c0,0 1.67969,-4.1211 8.3711,-6.125c6.6875,-2 0.33203,-1.4336 0.33203,-1.4336l-7.25781,2.77735l-2.78907,2.78125l-1.23046,2.21484l2.57421,-0.21484m-3.35546,9.68359c0,0 -2.33985,-7.79687 6.59765,-8.90625l-0.33203,-1.33984l-6.14844,1.4375l-1.79687,5.79297l0.44922,3.79296l1.23047,-0.77734"/>
   <path id="svg_8" fill="rgb(96.862745%,89.411765%,80.392157%)" fill-rule="nonzero" d="m36.79883,30.31024l1.46484,-1.41015c0,0 0.66406,0.07031 0.78125,0.84765c0.11719,0.77735 0.44922,7.79688 5.2461,11.56641c0.44921,0.35156 -3.56641,-0.56641 -3.56641,-0.56641l-3.57031,-5.55859m20.1875,-6.99609c0,0 0.26172,-3.3711 1.18359,-3.10938c0.92188,0.25781 0.92188,1.17578 0.92188,1.17578c0,0 -2.22266,1.41407 -2.10547,1.9336m9.26562,-12.34375c0,0 -1.84375,0.375 -2.00781,2c-0.16797,1.625 2.00781,0.33203 2.33984,0.21484m-13.82812,-2.09766c0,0 -2.46094,0.32813 -2.46094,1.88282c0,1.55468 2.78906,1.4375 3.57031,0.77734m-16.28906,4.57031c0,0 -4.23047,-2.5664 -4.67969,-0.11718c-0.44922,2.44921 -1.4414,4.21484 0.66407,6.78515l-1.44532,-0.44922l-1.34375,-3.4375l-0.44922,-3.34765l2.57422,-2.66016l2.91016,0.21094l1.67578,1.34375l0.09375,1.67187m2.01172,-7.01953c0,0 1.89062,-9.80078 11.48828,-11.68359c7.89453,-1.55469 12.05469,0.32812 13.61719,2.12109c0,0 -7.04688,-8.33984 -13.73438,-5.79687c-6.6914,2.5664 -11.60937,7.23047 -11.48828,10.22265c0.1875,5.13672 0.11719,5.13672 0.11719,5.13672m25.88672,-8.45703c0,0 -3.24219,-0.11719 -3.35938,2.78125c0,0 0,0.44531 0.21485,0.89453c0,0 2.57422,-2.89844 4.13672,-1.34375"/>
   <path id="svg_9" fill="rgb(96.862745%,89.411765%,80.392157%)" fill-rule="nonzero" d="m51.66992,11.70087c0,0 -0.57031,-4.42969 -4.35156,-1.85938c-2.45703,1.67188 -2.22266,4.00391 -1.79688,4.45313c0.44922,0.44531 0.33204,1.33984 0.66407,0.73047c0.32812,-0.61328 0.23437,-2.61719 1.46484,-3.1836c1.20313,-0.5625 3.23828,-1.17578 4.01953,-0.14062"/>
   <path id="svg_10" fill="rgb(28.627451%,44.705882%,54.509804%)" fill-rule="nonzero" d="m41.17383,41.75946l-10.5,4.66407c0,0 4.35156,17.24609 2.1289,22.59375l-1.55859,-0.56641l-0.12109,-6.57422l-2.90625,-12.4375l-1.23047,-3.4375l10.94531,-7.35156l3.23828,3.10937m1.06641,9.54297l1.48828,1.8125l0,6.66797l-1.77344,0c0,0 -0.21094,-4.66406 -0.21094,-5.23047c0,-0.5664 0.21094,-2.5664 0.21094,-2.5664m0.33203,8.80859l-5.03515,0.21094l1.4414,1.01562l3.57032,0.5625"/>
   <path id="svg_11" fill="rgb(20%,31.372549%,38.039216%)" fill-rule="nonzero" d="m59.4707,59.68915l4.13672,-0.12109l1.01563,10.22656l-4.23047,0.5625l-0.92188,-10.67188"/>
   <path id="svg_12" fill="rgb(20%,31.372549%,38.039216%)" fill-rule="nonzero" d="m60.58008,59.68915l6.24219,-0.33203c0,0 2.57421,-6.45313 2.57421,-6.78516c0,-0.32812 2.22266,-9.35156 2.22266,-9.35156l-5.03516,-5.23047l-1.01562,-0.89453l-2.67188,2.66406l0,10.33985l-2.3164,9.58984"/>
   <path id="svg_13" fill="rgb(28.627451%,44.705882%,54.509804%)" fill-rule="nonzero" d="m63.36914,58.9079l-3.89844,0.78125l0.56641,3.10938c1.44141,0.65625 3.89844,-1.10938 3.89844,-1.10938m-0.44922,-22.26172l7.82812,5.79688l0.21094,-2.66407l-5.91016,-5.4414l-2.1289,2.30859"/>
   <path id="svg_14" fill="rgb(100%,100%,100%)" fill-rule="nonzero" d="m46.1582,81.5954l-2.3164,-9.35156l-1.15625,-6.90235l-0.19141,-5.11328l10.47266,-0.5625l6.5039,0l-0.59375,11.6836l1.01953,9.01953l-0.12109,1.67578l-8.48437,0.65625l-5.13282,-1.10547"/>
   <path id="svg_15" fill="rgb(86.27451%,85.098039%,84.705882%)" fill-rule="nonzero" d="m58.02539,59.56806c0,0 -0.56641,11.5664 1.11328,19.8125c0,0 -3.35547,2.12109 -8.25,2.66406l9.38281,-0.33203l1.11329,-0.66016l-1.34766,-18.23047l-0.35547,-3.91406"/>
   <path id="svg_16" fill="rgb(100%,100%,100%)" fill-rule="nonzero" d="m64.78711,68.92353l4.35156,-1.22657l8.25,-0.44922l1.23047,-3.79296l-2.22266,-6.57032l-2.57812,-0.33203l-3.57031,1.10938l-3.40235,1.67187l-1.82031,-0.32812l-1.41797,0.5625"/>
   <path id="svg_17" fill="rgb(86.27451%,85.098039%,84.705882%)" fill-rule="nonzero" d="m64.7168,66.68524c0,0 2.91015,-1.34375 3.35547,-1.22656l-1.22657,-6.125l1.44141,-0.5664c0,0 1.01562,5.79687 1.01562,6.45703c0,0 6.24219,0.32812 6.8086,0.32812c0,0 1.34765,-2.5664 1.01562,-5.23047l1.23047,3.5586l0.11719,2.0039l-1.79688,2.66016l-2.00781,0.44922l-3.35547,-0.1211l-1.11328,-1.43359l-3.89844,0.5625l-1.23046,0.44922"/>
   <path id="svg_18" fill="rgb(100%,100%,100%)" fill-rule="nonzero" d="m60.31836,58.79071l-2.45703,-6.21875l-2.57813,-3.67578c0,0 0.57032,-1.55469 1.34766,-1.55469l2.57812,0l2.45704,0.89844l-0.21094,4.1211l-1.13672,6.42968"/>
   <path id="svg_19" fill="rgb(86.27451%,85.098039%,84.705882%)" fill-rule="nonzero" d="m60.81836,56.67353c0,0 -3.12109,-6.00782 -3.12109,-6.90235c0,0 0.5664,-1.34375 1.34765,-1.01562c0.77735,0.33203 2.45703,1.22656 2.45703,1.22656l0,-2.12109l-3.80468,-0.77735l-2.57813,0.33203l4.35156,10.26953l0.89844,0.11719"/>
   <path id="svg_20" fill="rgb(100%,100%,100%)" fill-rule="nonzero" d="m47.1543,41.99774l-3.09766,-0.33203l-2.91016,-0.89453l0,1.01172l1.42188,1.55469l4.46484,2.0039"/>
   <path id="svg_21" fill="rgb(86.27451%,85.098039%,84.705882%)" fill-rule="nonzero" d="m42.16602,42.32587c0,0 3.44921,1.4375 4.58593,1.10547l0.11719,1.34375l-3.12109,-0.66016l-1.89063,-1.33984l0.3086,-0.44922"/>
   <path id="svg_22" fill="rgb(82.745098%,21.960784%,20%)" fill-rule="nonzero" d="m64.78711,47.7204c-1.89063,-0.04687 -3.61719,-0.28125 -5.10547,-0.70703c0.09375,-0.61328 -0.09375,-1.19922 0.07031,-1.64844c0.42578,-0.30469 1.11328,-0.30469 1.75,-0.3789c-0.54297,-0.25782 -1.32422,-0.375 -1.9375,-0.21094c-0.02343,-0.42188 -0.21484,-0.6836 -0.33203,-1.01172c1.0625,-0.37891 3.57031,-2.85156 4.98828,-2.05078c0.6875,0.40234 0.96875,2.61719 1.01563,3.72265c0.04687,0.89454 -0.09375,1.78907 -0.44922,2.28516"/>
   <path id="svg_23" stroke-miterlimit="4" stroke="rgb(82.745098%,21.960784%,20%)" stroke-width="2" fill="rgb(0%,0%,0%)" fill-rule="nonzero" d="m64.78713,47.72039c-1.89063,-0.04688 -3.61719,-0.28125 -5.10547,-0.70703c0.09375,-0.61328 -0.09375,-1.19922 0.07031,-1.64844c0.42578,-0.30469 1.11328,-0.30469 1.75,-0.37891c-0.54297,-0.25781 -1.32422,-0.375 -1.9375,-0.21094c-0.02344,-0.42188 -0.21485,-0.6836 -0.33203,-1.01172c1.0625,-0.37891 3.57031,-2.85156 4.98828,-2.05078c0.6875,0.40234 0.96875,2.61719 1.01563,3.72266c0.04687,0.89453 -0.09375,1.78906 -0.44922,2.28516zm0,0"/>
   <path id="svg_24" fill="rgb(82.745098%,21.960784%,20%)" fill-rule="nonzero" d="m55.73242,44.63446c0,0.14063 0,0.28125 -0.02344,0.42578c-0.58984,0.375 -1.53515,0.375 -2.19531,0.70313c0.94531,0.04687 1.69922,0.28516 2.36328,0.58984c-0.02343,0.35547 -0.02343,0.73047 -0.04687,1.08594c-1.08985,0.73047 -2.08203,1.83594 -3.35938,2.54297c-0.61328,0.32812 -2.71875,1.17578 -3.35547,1.01172c-0.35546,-0.09375 -0.40234,-0.53906 -0.54296,-0.96485c-0.3086,-0.89453 -1.01563,-2.35546 -1.08985,-3.72265c-0.07031,-1.71875 -0.25781,-4.61719 1.60938,-4.26172c1.51172,0.28125 3.26172,0.96484 4.42187,1.60156c0.73047,0.42188 1.13281,0.89453 2.21875,0.98828"/>
   <path id="svg_25" stroke-miterlimit="4" stroke="rgb(82.745098%,21.960784%,20%)" stroke-width="2" fill="rgb(0%,0%,0%)" fill-rule="nonzero" d="m55.73244,44.63445c0,0.14063 0,0.28125 -0.02344,0.42578c-0.58984,0.375 -1.53516,0.375 -2.19532,0.70313c0.94531,0.04687 1.69922,0.28516 2.36328,0.58984c-0.02344,0.35547 -0.02344,0.73047 -0.04687,1.08594c-1.08984,0.73047 -2.08203,1.83594 -3.35938,2.54297c-0.61328,0.32812 -2.71875,1.17578 -3.35547,1.01172c-0.35547,-0.09375 -0.40235,-0.53906 -0.54297,-0.96484c-0.30859,-0.89453 -1.01563,-2.35547 -1.08984,-3.72266c-0.07031,-1.71875 -0.25781,-4.61719 1.60938,-4.26172c1.51172,0.28125 3.26172,0.96484 4.42188,1.60156c0.73047,0.42188 1.13281,0.89453 2.21875,0.98828zm0,0"/>
   <path id="svg_26" fill="rgb(82.745098%,21.960784%,20%)" fill-rule="nonzero" d="m56.79883,46.68524c-0.16797,-0.94531 -0.35547,-1.20312 -0.28516,-2.02734c2.53125,-1.67187 2.98047,2.875 0.28516,2.02734"/>
   <path id="svg_27" stroke-miterlimit="4" stroke="rgb(82.745098%,21.960784%,20%)" stroke-width="2" fill="rgb(0%,0%,0%)" fill-rule="nonzero" d="m56.79885,46.68523c-0.16797,-0.94531 -0.35547,-1.20312 -0.28516,-2.02734c2.53125,-1.67187 2.98047,2.875 0.28516,2.02734zm0,0"/>
   <path id="svg_28" fill="rgb(93.72549%,23.921569%,22.745098%)" fill-rule="nonzero" d="m60.43945,47.43915c0,0 -0.78125,-1.10937 -0.21484,-1.4375c0.57031,-0.33203 1.11328,0 1.44141,-0.56641c0.33203,-0.5664 0,-0.89453 0.12109,-1.55468c0.11719,-0.66016 0.66016,-0.77735 1.22656,-0.89453c0.57031,-0.11719 2.12891,-0.33204 2.34375,0.21093l-0.66406,-2.0039l-1.34766,-0.44532l-4.23047,2.44922l-0.21484,1.22657l0,2.44921m-10.1875,4.23829c-0.14062,-1.74219 -0.28516,-3.46094 -0.42578,-5.20313c-0.23438,-2.59375 0.61328,-2.14453 2.88281,-2.14453c0.35547,0 2.12891,0.39844 2.2461,0.66016c0.61718,1.24609 -1.01563,0.96484 0.71093,1.90625c1.44141,0.77734 4.01953,-0.46875 3.42578,-2.23829c-0.32812,-0.39843 -1.69921,-0.11718 -2.19531,-0.375l-2.625,-1.34375c-1.11328,-0.5664 -3.66406,-1.41406 -4.84765,-0.61328c-3,2.02735 0.1914,7.11719 1.2539,9.23438"/>
   <path id="svg_29" fill="rgb(13.72549%,12.156863%,12.54902%)" fill-rule="nonzero" d="m51.66992,11.70087c-3.05078,-0.70703 -4.5625,1.27344 -5.48437,3.32422c-0.82813,-0.19141 -0.5,-1.32031 -0.28516,-1.88672c0.54297,-1.48438 2.74219,-3.48438 4.53906,-3.20313c0.75391,0.09375 1.79688,0.80079 1.23047,1.76563m14.82031,3.44141l0.14063,0c0.6875,1.41406 1.27734,2.92187 2.15234,4.1914c-0.58984,1.36719 -4.39843,2.54297 -4.35156,0.14063c0.82813,-0.35157 2.24609,-0.07032 2.98047,-0.53907c-0.42578,-1.15625 -1.01563,-2.14453 -0.92188,-3.79296m-13.28515,0.04687c0.66015,1.19922 0.875,2.44922 1.79687,3.34375c0.42578,0.40234 1.22657,0.89453 0.82813,2.02734c-0.09766,0.25782 -0.78125,0.84766 -1.1836,0.96485c-1.4414,0.42578 -4.82421,0.09375 -3.6875,-1.71875c1.20704,0.04687 2.8125,0.77734 3.71094,-0.09375c-0.68359,-1.08594 -1.91406,-3.25391 -1.46484,-4.52344m12.74219,12.10547c-2.17579,1.39062 -4.60938,2.92187 -8.20313,2.57031c-0.75781,-0.66015 -1.0625,-2.14453 -0.30859,-3.10937c0.3789,0.66015 0.14062,1.88281 1.23047,2.07031c2.03125,0.35547 4.39453,-1.24609 5.86328,-1.78906c0.89843,-1.53125 -0.07032,-2.07422 -0.89844,-3.0625c-1.67969,-2 -3.90234,-4.5 -3.83203,-7.49219c0.6875,-0.49219 0.73437,0.75391 0.82812,0.96875c0.875,2.02344 3.07422,4.64062 4.65625,6.38281c0.40235,0.42578 1.04297,0.84766 1.11328,1.12891c0.21094,0.80078 -0.54296,1.79297 -0.44921,2.33203m-28.79297,-1.45703c-0.6875,-0.40235 -0.85157,-2.09766 -1.65625,-2.14453c-1.15625,-0.07032 -0.94532,2.21484 -0.94532,3.55468c-0.78125,-0.70312 -0.92187,-2.91796 -0.35546,-4.05078c-0.66016,-0.32812 -0.94532,0.35547 -1.32422,0.58985c0.49609,-3.41407 5.03515,-1.57813 4.28125,2.05078m30.16406,2.89453c-1.01563,1.93359 -2.46094,4.05469 -5.4375,4.125c-0.07031,-0.61328 -0.11719,-1.57813 0,-1.95703c2.29297,-0.23438 3.71094,-1.39063 5.4375,-2.16797m-14.27734,1.25c1.89062,0.98828 5.38671,1.10547 7.98828,1.03516c0.14062,0.5664 0.14062,1.27343 0.14062,1.95703c-3.33203,0.14062 -7.25781,-0.6836 -8.1289,-2.99219m-0.35547,1.83594c1.32422,3.30078 5.83984,2.92187 9.64453,2.82812c-0.16406,0.42578 -0.51953,0.94141 -0.99219,1.10547c-1.23047,0.49609 -4.58594,0.875 -6.28906,-0.02344c-1.0625,-0.5625 -1.77344,-1.85937 -2.36328,-2.61328c-0.26172,-0.35156 -1.67969,-1.27344 0,-1.29687"/>
   <path id="svg_30" fill="rgb(50.588235%,69.019608%,76.862745%)" fill-rule="nonzero" d="m65.7793,49.98212c-1.53516,2.63672 -3.02344,5.34766 -4.84375,7.65625c0.7539,-2.23828 1.08593,-6.00781 1.20703,-8.88281c1.60547,-0.75391 2.97656,0.16797 3.63672,1.22656"/>
   <path id="svg_31" fill="rgb(13.72549%,12.156863%,12.54902%)" fill-rule="nonzero" d="m74.08008,59.45087c-1.72656,0.35547 -2.9336,2.02734 -4.63672,1.91016c0.94922,-1.29688 2.55469,-1.86329 4.63672,-1.91016m0.7539,2.6875c-1.41796,0.14062 -3.07031,0.375 -4.49218,0.25781c0.6875,-1.03515 3.28906,-0.66015 4.49218,-0.25781m0.4961,2.33203c-1.58203,0.02344 -3.54297,0 -5.0586,-0.11719c0.89844,-0.96875 4.04297,-0.35547 5.0586,0.11719"/>
   <path id="svg_32" fill="rgb(86.27451%,85.098039%,84.705882%)" fill-rule="nonzero" d="m62.80273,70.82978c0.23438,1.98046 1.01563,3.98046 0.92188,6.14843c-0.875,0.28125 -1.37109,0.54297 -2.55469,0.54297c-0.07031,-1.83984 -0.32812,-4.66406 -0.25781,-6.43359c0.56641,0.04687 1.41797,-0.39844 1.89062,-0.25781"/>
   <path id="svg_33" fill="rgb(94.117647%,83.921569%,71.764706%)" fill-rule="nonzero" d="m60.24805,41.61884c-0.80078,0.51953 -1.46485,1.15625 -2.2461,1.71875c-1.69922,0.09375 -2.62109,-0.11719 -3.85156,-1.08203c0.02344,-0.07032 0.14063,-0.04688 0.14063,-0.14063c1.82031,0.80078 4.13671,-0.33203 5.95703,-0.49609"/>
   <path id="svg_34" fill="rgb(50.588235%,69.019608%,76.862745%)" fill-rule="nonzero" d="m50.74414,53.93915c0.5,-2.14453 2.46094,-3.27344 4.23438,-4.45312c1.82031,2.30859 2.92968,5.27734 4.16015,8.15234c-2.91015,-0.87109 -5.86328,-2.26172 -8.39453,-3.69922"/>
   <path id="svg_35" fill="rgb(13.72549%,12.156863%,12.54902%)" fill-rule="nonzero" d="m60.91211,71.11103c-0.07031,1.76953 0.16406,4.57031 0.25781,6.43359c1.1836,0 1.67969,-0.26172 2.55469,-0.54297c0.09375,-2.16797 -0.6875,-4.16797 -0.92188,-6.14844c-0.47265,-0.16406 -1.32421,0.28125 -1.89062,0.25782zm-18.25,-9.98829c0.78125,7.09375 1.89062,13.02735 3.94531,19.31641c4.5625,1.39063 10.04688,1.50781 14.08985,0.26172c-0.73047,-3.53516 -0.42579,-7.84375 -0.85157,-11.63672c-0.32812,-2.85156 -0.16406,-5.70312 -0.61328,-8.59766c-4.89453,-1.01562 -11.79687,-0.23828 -16.57031,0.65625zm17.73047,-0.60937c-0.04688,3.03906 0.14062,6.05078 0.375,9.08984c1.18359,-0.16406 1.96484,-0.28125 3.05078,-0.53906c-0.35547,-2.92187 -0.30469,-6.24219 -1.03906,-8.83594c-0.82813,0.02344 -1.5625,0 -2.38672,0.28516zm5.93359,-0.49609c-0.57031,-0.11719 -1.20703,0 -1.72656,0c0.25781,2.47265 0.85156,5.20703 1.0625,7.82031c0.82812,0.02344 1.27734,-0.375 1.96484,-0.4961c0.04688,-2.28515 -0.1914,-5.4414 -1.30078,-7.32421zm9.00391,8.19921c1.75,-0.42578 2.83984,-2.54687 2.34375,-4.73828c-0.33203,-1.45703 -0.89844,-4.23828 -1.53906,-5.17968c-0.44922,-0.6836 -1.70313,-1.60157 -2.71875,-0.96875c-1.62891,1.03906 -4.49219,1.34375 -5.67188,2.59375c0.58984,1.97656 0.77734,4.66406 1.01563,7.16015c2.03125,0.11719 4.51562,-0.5664 6.21875,0.16406c-1.1836,0.37891 -2.69532,0.37891 -3.71485,0.94532c0.85156,0.39843 2.79297,0.32812 4.06641,0.02343zm-16.21485,-10.57812c-1.23046,-2.875 -2.33984,-5.84375 -4.16015,-8.15234c-1.77344,1.17968 -3.71094,2.30859 -4.23438,4.45312c2.55469,1.4375 5.51172,2.82813 8.39453,3.69922zm3.02344,-8.88281c-0.11719,2.875 -0.44922,6.64453 -1.20312,8.88281c1.82031,-2.33203 3.30859,-5.01953 4.84375,-7.65625c-0.66016,-1.05859 -2.03125,-1.98047 -3.63672,-1.22656l-0.00391,0zm-3.42578,-1.19922c-0.6875,-0.07031 -1.27734,0.80078 -2.17578,0.42187c-0.21094,0.23828 -0.40234,0.47266 -0.61328,0.70703c1.98437,2.40235 2.90625,5.79688 4.44531,8.59766c0.82422,-2.70703 0.73047,-5.65234 0.92188,-8.59766c-1.13672,0.04688 -1.77344,-1.05859 -2.57813,-1.1289zm-2.19922,-2.89844c-0.07031,0.82422 0.11719,1.08203 0.28516,2.02734c2.69531,0.84766 2.24609,-3.69921 -0.28516,-2.02734zm-3,-0.98828c-1.16015,-0.63672 -2.91015,-1.32031 -4.42187,-1.60156c-1.86719,-0.35547 -1.67969,2.54297 -1.60938,4.26172c0.07422,1.36718 0.78125,2.80468 1.08985,3.72265c0.14062,0.42578 0.1875,0.8711 0.54296,0.96485c0.63672,0.14062 2.76563,-0.6836 3.35547,-1.01172c1.27735,-0.6836 2.26953,-1.78907 3.35938,-2.54297c0.02344,-0.35547 0.02344,-0.73047 0.04687,-1.08594c-0.66406,-0.32812 -1.39453,-0.53906 -2.36328,-0.58594c0.63672,-0.33203 1.60547,-0.33203 2.19531,-0.70703c0,-0.14453 0,-0.28515 0.02344,-0.42578c-1.08594,-0.11719 -1.48828,-0.58984 -2.21875,-0.98828zm-11.11328,-2.00391c-0.96875,0.98828 2.71875,2.3086 3.87891,2.37891c0,-0.61328 0.35156,-1.19922 0.28125,-1.64844c-1.39453,-0.23437 -3.21485,-0.07031 -4.16016,-0.73047zm11.91406,0.44922c0,0.09375 -0.11718,0.07031 -0.14062,0.14063c1.2539,0.96484 2.17578,1.17578 3.85156,1.08203c0.75781,-0.53906 1.44531,-1.19922 2.24609,-1.71875c-1.84375,0.16406 -4.16015,1.29687 -5.95703,0.49609zm10.92188,3.29688c-0.04688,-1.08203 -0.33203,-3.32032 -1.01563,-3.72266c-1.41797,-0.82422 -3.92578,1.67188 -4.98828,2.05078c0.11719,0.32813 0.3086,0.58985 0.33203,1.01172c0.63672,-0.16406 1.39453,-0.04687 1.9375,0.21094c-0.63672,0.07422 -1.32422,0.07422 -1.75,0.3789c-0.14062,0.44532 0.04688,1.03516 -0.07031,1.64844c1.48828,0.42578 3.21484,0.63672 5.10547,0.70703c0.35547,-0.47265 0.49609,-1.36718 0.44922,-2.28515zm-24.46485,-2.80469c-0.30859,-0.21094 -2.36718,-2.87109 -2.64843,-2.75391c-3.71094,1.46094 -7.1875,3.98047 -10.28516,6.38282c2.95703,6.33593 4.16016,14.08593 4.375,21.55468c3.37891,1.57813 6.35938,3.86328 10.96875,4.09766c-0.54297,-3.74219 -1.01562,-7.11328 -1.32422,-10.64453c-1.16015,-0.4961 -2.8125,0.02344 -3.90234,-0.14453c0,-1.29297 1.65625,-0.5625 1.79687,-1.4336c0.09766,-0.66015 -0.92187,-0.70703 -0.58984,-1.74609c0.85156,0.30859 1.30078,0.98828 2.19922,1.25c0.82812,-1.78906 0,-4.97266 0.11719,-6.48047c0.02343,-0.28125 0.14062,-1.55469 0.78125,-1.33984c0.5664,0.1875 -0.02344,3.41406 0.02343,4.82812c0.04688,1.32031 -0.16406,2.56641 0.37891,3.39063c4.44531,-0.60938 8.95703,-0.98828 13.78125,-1.12891c-1.0625,-0.44922 -2.31641,-0.87109 -3.6875,-1.64844c-0.75781,-0.42578 -3.09766,-1.29687 -3.30859,-2.0039c-0.35547,-1.12891 0.89843,-1.71875 1.10937,-2.6836c-2.24609,1.22266 -2.67187,-1.17968 -3.21484,-2.85156c-0.47266,-1.53125 -0.75782,-2.68359 -0.875,-3.55859c-1.96094,-0.98828 -4.04297,-1.90625 -5.69532,-3.08594zm22.50391,-2.44922c3.09766,-1.48437 3.66406,5.58203 2.43359,7.86719c0.19141,0.68359 0.82813,0.94531 1.08985,1.55469c-1.72656,3.08593 -3.64063,5.96093 -5.41406,9c1.30078,-0.82422 3.1914,-0.14063 4.72656,-0.75391c0.5664,-0.21094 0.96875,-1.50781 1.39453,-2.54297c1.18359,-2.82812 2.41016,-6.41016 2.95703,-9.09375c0.11719,-0.61328 0.47266,-1.95703 0.37891,-2.49609c-0.14453,-0.99219 -1.46875,-1.71875 -2.15235,-2.3086c-1.2539,-1.13281 -2.03515,-2.09765 -3.35937,-3.15625c-0.4961,0.77735 -1.62891,1.29297 -2.05469,1.92969zm-29.57422,-27.34766c-1.46484,1.625 -1.15625,4.64063 -0.99219,6.80469c2.67188,-1.67187 6.19532,0.14453 6.16797,2.96875c1.27735,-0.02344 0.47657,-1.57812 0.23828,-2.58984c-0.75781,-3.27344 1.27735,-6.8086 0.09375,-9.80078c-2.29296,0.1875 -4.16015,1.10937 -5.50781,2.61718zm10.54297,-9.40234c-3.33203,0.94531 -7.60937,3.37109 -8.98047,6.36328c1.0625,-0.16406 1.79297,-0.68359 2.83594,-0.7539c0.40234,-0.02344 0.92187,0.16406 1.37109,0.04687c0.89844,-0.23437 1.67578,-2.26172 2.36328,-3.01562c0.66016,-0.73047 1.46485,-1.0586 2.00782,-1.71875c0.35547,-0.16797 0.875,-0.16797 0.89843,-0.6836c-0.14062,-0.16406 -0.30468,-0.28515 -0.49609,-0.23828zm17.375,0.89844c-3.47266,-1.95703 -9.33594,-3.41797 -13.02344,-1.57813c-2.98047,1.48047 -7,3.9336 -8.37109,7.01953c1.27734,2.99219 -0.375,5.72266 -0.49609,8.76172c-0.04688,1.625 0.75781,3.01563 0.82812,4.78125c-0.44922,0.73047 -1.77344,0.80078 -2.69531,0.75391c-0.30469,-1.55469 -0.85156,-3.29688 -2.45703,-3.48438c-2.26953,-0.26171 -3.94922,1.625 -4.04297,3.57813c-0.11719,2.30859 1.77344,6.125 4.46875,5.86719c1.03906,-0.09375 1.30078,-1.12891 2.43359,-1.12891c0.61328,1.22266 -0.94531,1.60156 -1.10937,2.47266c-0.04688,0.23437 0.11718,1.10547 0.23437,1.53125c0.4961,2 1.58594,4.61718 2.64844,6.14843c1.37109,1.95313 4.04297,2.23829 6.92578,2.42579c0.51953,-1.10938 2.41016,-1.01172 3.64063,-0.73047c-1.48829,-0.58985 -2.85938,-2.00391 -3.9961,-3.25c-1.29687,-1.4375 -2.62109,-2.96875 -2.6914,-4.85547c2.48046,3.41797 4.51171,6.41015 9.0039,7.91797c3.40625,1.1289 7.375,-0.51953 10,-2.35547c1.08985,-0.75391 1.72656,-1.98047 2.50781,-3.0625c2.88282,-4.14844 4.23047,-10.03516 3.94532,-15.76172c-0.11719,-2.35547 -0.11719,-4.71094 -0.92188,-6.28906c-0.82422,-1.64844 -3.64062,-3.15625 -5.29297,-1.64844c-0.30859,-1.625 1.3711,-2.61719 3.33203,-2.02734c-1.39453,-1.8125 -2.85937,-3.95704 -4.87109,-5.08594zm6.48047,53.26172c2.71484,-1.34375 7.77734,-3.60547 9.45312,0c0.64063,1.33984 1.3711,3.57812 1.67969,4.96875c0.44922,1.93359 -0.49609,6.03125 -2.50781,6.66797c-1.76953,0.5664 -3.82813,0.54296 -5.95703,0.11718c-0.25781,-0.21093 -0.51953,-0.5664 -0.73047,-0.9414c-1.51172,-0.04688 -2.95703,0.07031 -4.13672,0.70703c0.11719,1.1289 -0.64062,1.29297 -1.37109,1.53125c-0.51953,2.09375 1.0625,4.82812 0.68359,6.71094c-0.25781,1.36718 -1.9375,1.57812 -3.16797,1.8164c-0.04687,0.75391 0.04688,1.39063 0.14453,2.02344c-0.28515,1.03906 -1.53906,1.62891 -2.74218,1.76953c-3.94922,0.46875 -9.92969,0.68359 -13.71094,-0.68359c-1.06641,-2.59375 -1.89453,-5.72657 -2.76953,-8.66797c-3.6875,0.39844 -6.6875,-1.58203 -9.5,-2.89844c-0.96875,-0.44922 -2.31641,-0.70703 -2.69532,-1.48437c-0.35546,-0.75391 -0.21484,-2.19141 -0.30859,-3.53516c-0.21094,-3.46094 -0.42578,-6.80859 -1.32422,-10.33984c-0.40234,-1.60157 -1.13281,-2.99219 -1.6289,-4.52344c-0.47266,-1.41406 -1.27735,-3.17969 -1.49219,-4.59375c-0.30469,-2.09766 1.67969,-2.21485 2.93359,-3.13281c1.96094,-1.41407 3.4961,-2.19141 5.625,-3.46485c0.63672,-0.375 2.53125,-1.3164 2.74219,-1.76562c0.42578,-0.8711 -0.73438,-2.09766 -1.03906,-2.77735c-0.4961,-1.08593 -0.75782,-2.0039 -0.82813,-3.0625c-1.77344,-0.28515 -3.14453,-1.34375 -3.94922,-2.52343c-1.34765,-1.97657 -2.29297,-5.62891 -1.10937,-8.38672c0.09375,-0.21094 0.54297,-0.65625 0.61328,-0.98828c0.14453,-0.66016 -0.25781,-1.53125 -0.28125,-2.23829c-0.12109,-3.60156 0.61328,-6.71484 3.04687,-7.79687c0.99219,-3.93359 4.53907,-5.23047 7.875,-7.18359c1.25,-0.73047 2.6211,-1.20313 4.03907,-1.71875c5.08593,-1.86329 12.91015,-1.50782 17.14062,1.67187c1.79688,1.33984 4.65625,4.19141 5.67188,6.26563c2.71875,5.4414 2.50781,14.55859 0.61718,21.19921c-0.26171,0.89844 -0.61718,2.19141 -1.13671,3.27735c-0.35157,0.7539 -1.46485,2.23828 -1.34766,2.89453c0.14453,0.68359 2.55469,2.5 3.07422,2.99219c0.92187,0.89453 2.69531,2.07422 2.83594,3.20312c0.16796,1.20313 -0.51954,2.85156 -0.875,4.00781c-1.13282,3.86329 -2.26954,7.41797 -3.56641,10.88282zm0,0"/>
   <path id="svg_36" fill="rgb(96.862745%,89.411765%,80.392157%)" fill-rule="nonzero" d="m50.01367,30.80634c0.14063,-0.1875 0.94531,-0.4961 2.07813,0.04687c0,0 -1.34766,0.21094 -1.22657,2.44922l-0.5664,-0.11719c0.02344,0.02344 -0.57031,-2 -0.28516,-2.3789"/>
   <path id="svg_37" fill="rgb(11.372549%,9.803922%,9.803922%)" fill-rule="nonzero" d="m59.79883,49.93524c0,0.32813 -0.28125,0.61329 -0.61328,0.61329c-0.33203,0 -0.61328,-0.28516 -0.61328,-0.61329c0,-0.33203 0.28125,-0.61328 0.61328,-0.61328c0.35547,0 0.61328,0.28125 0.61328,0.61328m0.61719,2.85157c0,0.32812 -0.28516,0.60937 -0.61719,0.60937c-0.32813,0 -0.61328,-0.28125 -0.61328,-0.60937c0,-0.33203 0.28515,-0.61328 0.61328,-0.61328c0.35547,0 0.61719,0.25781 0.61719,0.61328"/>
   <path id="svg_38" fill="rgb(13.72549%,12.156863%,12.54902%)" fill-rule="nonzero" d="m28.2168,88.82587c-0.1875,0.02344 -0.35547,0.04687 -0.4961,0.07031c-0.14062,0.02344 -0.28515,0.05078 -0.47265,0.09766c-0.21094,0.04687 -0.33203,0.14062 -0.37891,0.28125c-0.04687,0.14062 -0.09375,0.28125 -0.09375,0.47265l0,5.7461c0,0.5039 -0.11328,1.0039 -0.33203,1.46094c-0.21094,0.44921 -0.49609,0.80078 -0.875,1.10546c-0.37891,0.28516 -0.80078,0.51954 -1.27344,0.66016c-0.47656,0.14063 -0.97265,0.23828 -1.49219,0.23828c-0.92187,0 -1.65234,-0.21484 -2.22265,-0.66015c-0.56641,-0.44922 -0.84766,-1.03907 -0.84766,-1.81641c0,-0.44531 0.11719,-0.82422 0.375,-1.12891c0.26172,-0.30859 0.61719,-0.44922 1.06641,-0.44922c0.42578,0 0.7539,0.11719 1.01562,0.37891c0.25782,0.25781 0.37891,0.5625 0.37891,0.91797c0,0.30469 -0.12109,0.61328 -0.33203,0.87109c-0.21094,0.25782 -0.47266,0.51953 -0.75781,0.73047l0,0.09375c0.04687,0.09375 0.14453,0.1875 0.28515,0.25781c0.14063,0.07422 0.3086,0.09766 0.44922,0.09766c0.58984,0 1.0625,-0.21484 1.39453,-0.63672c0.33203,-0.42578 0.4961,-1.0625 0.4961,-1.91015l0,-5.88672c0,-0.16797 -0.02344,-0.33203 -0.07032,-0.44922c-0.04687,-0.11719 -0.1875,-0.21094 -0.40234,-0.30469c-0.14063,-0.07031 -0.33203,-0.11719 -0.54297,-0.16797c-0.21484,-0.04687 -0.37891,-0.07031 -0.51953,-0.09375l0,-0.5625l5.57812,0l0,0.58594l0.07032,0zm8.74609,8.10547c-0.16406,0.28125 -0.37891,0.54297 -0.61328,0.80078c-0.23828,0.25781 -0.51953,0.44531 -0.82813,0.63672c-0.33203,0.1875 -0.66015,0.32812 -0.99218,0.42187c-0.33203,0.09375 -0.73438,0.14063 -1.16016,0.14063c-0.73047,0 -1.34766,-0.09375 -1.89062,-0.30469c-0.51954,-0.21094 -0.96875,-0.47266 -1.30079,-0.82422c-0.35156,-0.35156 -0.58984,-0.7539 -0.77734,-1.22656c-0.17187,-0.49219 -0.26172,-1.00781 -0.26172,-1.53125c0,-0.49219 0.09375,-0.98828 0.28516,-1.43359c0.1875,-0.44922 0.44922,-0.875 0.77734,-1.22657c0.33203,-0.35156 0.75781,-0.63672 1.27735,-0.84765c0.54296,-0.21875 1.12109,-0.33203 1.70312,-0.33203c0.6875,0 1.25391,0.09765 1.70313,0.26171c0.44921,0.16407 0.80078,0.39844 1.08593,0.6836c0.28516,0.28125 0.47266,0.60937 0.61328,0.98828c0.1211,0.375 0.19141,0.77734 0.19141,1.19922l0,0.47265l-4.98828,0c0,1.01172 0.1875,1.76563 0.58984,2.28516c0.37891,0.51953 1.01563,0.77734 1.84375,0.77734c0.47266,0 0.875,-0.11718 1.25391,-0.375c0.37891,-0.25781 0.69922,-0.58593 0.94531,-0.96875l0.54297,0.40235zm-2.8125,-2.80469c0,-0.28125 -0.02344,-0.58984 -0.04687,-0.89453c-0.02344,-0.30469 -0.07032,-0.56641 -0.16407,-0.75391c-0.09765,-0.23437 -0.1914,-0.39843 -0.35547,-0.51953c-0.14062,-0.11719 -0.33203,-0.16406 -0.54296,-0.16406c-0.37891,0 -0.6875,0.1875 -0.89844,0.56641c-0.23828,0.375 -0.35547,0.98828 -0.37891,1.8125l2.38672,-0.04688zm13.23828,4.54688l-4.44531,0l0,-0.54297c0.09766,0 0.21484,-0.02344 0.33203,-0.04688c0.14063,-0.02344 0.23828,-0.04687 0.30859,-0.07031c0.09375,-0.04688 0.16407,-0.14063 0.21094,-0.23438c0.04688,-0.09375 0.07031,-0.25781 0.07031,-0.44921l0,-3.4375c0,-0.4961 -0.09375,-0.8711 -0.28125,-1.12891c-0.1914,-0.26172 -0.44921,-0.37891 -0.82812,-0.37891c-0.1875,0 -0.37891,0.02344 -0.54297,0.09375c-0.16797,0.04688 -0.33203,0.14063 -0.49609,0.25782c-0.14453,0.09765 -0.26172,0.1914 -0.35547,0.30859c-0.09375,0.09375 -0.16406,0.1875 -0.21485,0.28125l0,3.93359c0,0.16797 0.02735,0.3086 0.07422,0.42578c0.04688,0.11719 0.14063,0.21094 0.23438,0.25782c0.07031,0.04687 0.16406,0.09375 0.28515,0.11718l0.35547,0.07422l0,0.53907l-4.49218,0l0,-0.53907c0.11718,0 0.23437,-0.02734 0.3789,-0.05078c0.11719,-0.02344 0.23438,-0.04687 0.32813,-0.07031c0.16797,-0.04688 0.26172,-0.14063 0.33203,-0.25781c0.04687,-0.11719 0.09375,-0.25782 0.09375,-0.44922l0,-4.28516c0,-0.14062 -0.04688,-0.30859 -0.11719,-0.44922c-0.07031,-0.14062 -0.19141,-0.25781 -0.30859,-0.35156c-0.09375,-0.04687 -0.1875,-0.11719 -0.33203,-0.14062c-0.14454,-0.05079 -0.29297,-0.07422 -0.44532,-0.07032l0,-0.54297l3.51953,-0.1875l0.1211,0.11719l0,1.0586l0.02344,0c0.17187,-0.14063 0.33593,-0.28907 0.49609,-0.44532c0.17187,-0.15234 0.35547,-0.29297 0.54297,-0.42578c0.1875,-0.11719 0.42578,-0.21094 0.70703,-0.30469c0.28516,-0.09765 0.61719,-0.12109 0.94531,-0.12109c0.80469,0 1.39844,0.23828 1.79688,0.68359c0.40234,0.44922 0.59375,1.0625 0.59375,1.81641l0,3.60156c0,0.19141 0.02343,0.33203 0.07031,0.42578c0.04687,0.11719 0.16406,0.1875 0.30859,0.25782c0.07032,0.02343 0.16407,0.07031 0.28125,0.09375c0.11719,0.02343 0.23828,0.04687 0.40235,0.07422l0,0.5625l0.04687,0zm10.16406,0l-3.47265,0c-0.36719,-0.65235 -0.76172,-1.28907 -1.1836,-1.90625c-0.35546,-0.51954 -0.68359,-1.01563 -0.99218,-1.4375l-0.42578,0.375l0,1.60156c0,0.16797 0.02343,0.33203 0.07031,0.42578c0.04687,0.11719 0.14453,0.1875 0.30859,0.25781c0.09375,0.04688 0.1875,0.07031 0.3086,0.09375c0.11718,0.02344 0.23437,0.04688 0.35156,0.04688l0,0.54297l-4.58594,0l0,-0.54297c0.12109,0 0.23828,-0.02344 0.37891,-0.04688c0.11718,-0.02344 0.23828,-0.04687 0.33203,-0.07031c0.16406,-0.04688 0.25781,-0.14063 0.33203,-0.25781c0.04687,-0.11719 0.09375,-0.25782 0.09375,-0.44922l0,-8.19531c0,-0.16407 -0.04688,-0.33204 -0.11719,-0.4961c-0.07422,-0.16406 -0.16797,-0.30469 -0.30859,-0.39844c-0.09375,-0.04687 -0.23828,-0.12109 -0.42578,-0.14453c-0.1875,-0.04687 -0.35547,-0.07031 -0.51953,-0.07031l0,-0.53906l3.66406,-0.19141l0.11719,0.11719l0,7.58594c0.35546,-0.32813 0.78125,-0.70703 1.23046,-1.12891c0.44922,-0.42578 0.82813,-0.77734 1.08594,-1.05859c0.16797,-0.16797 0.26172,-0.28516 0.26172,-0.37891c0.02344,-0.09375 0.02344,-0.14062 0.02344,-0.16406c0,-0.09375 -0.07031,-0.16406 -0.23828,-0.21094c-0.16407,-0.05078 -0.37891,-0.12109 -0.70703,-0.16797l0,-0.51562l3.73437,0l0,0.51562c-0.49609,0.14063 -0.875,0.26172 -1.13672,0.37891c-0.25781,0.11719 -0.54297,0.28125 -0.84765,0.46875c-0.20313,0.13672 -0.39844,0.27734 -0.59375,0.42578c-0.1875,0.14062 -0.40235,0.32812 -0.66016,0.54297c0.47266,0.70703 0.92187,1.33984 1.32422,1.92969c0.40234,0.58984 0.82812,1.22656 1.27344,1.88671c0.14453,0.23438 0.33203,0.375 0.57031,0.46875c0.23437,0.07032 0.44922,0.11719 0.68359,0.14063l0,0.56641l0.07031,0zm4.73047,0l-4.65625,0l0,-0.54297c0.11719,0 0.25782,-0.02344 0.375,-0.04688c0.1211,-0.02344 0.23828,-0.04687 0.3086,-0.07031c0.16406,-0.04688 0.26172,-0.14063 0.33203,-0.25781c0.07031,-0.11719 0.09375,-0.25782 0.09375,-0.44922l0,-4.28516c0,-0.16406 -0.04688,-0.33203 -0.11719,-0.44922c-0.0625,-0.125 -0.16016,-0.23437 -0.28516,-0.30468c-0.09375,-0.04688 -0.21093,-0.11719 -0.40234,-0.16407c-0.1875,-0.04687 -0.35547,-0.09765 -0.49609,-0.09765l0,-0.53907l3.61718,-0.1875l0.11719,0.11719l0,5.83985c0,0.16796 0.04688,0.30859 0.1211,0.44921c0.07031,0.11719 0.1875,0.21094 0.30468,0.25782c0.09375,0.04687 0.21485,0.09375 0.33203,0.11718c0.11719,0.02344 0.23829,0.05079 0.37891,0.07422l0,0.53907l-0.02344,0zm-1.0664,-10.01172c0,0.3789 -0.14063,0.68359 -0.42188,0.9414c-0.28515,0.26172 -0.64062,0.40235 -1.01953,0.40235c-0.40234,0 -0.73047,-0.14063 -1.03906,-0.40235c-0.28516,-0.25781 -0.42578,-0.58593 -0.42578,-0.9414c0,-0.375 0.14062,-0.6836 0.42578,-0.96485c0.28515,-0.25781 0.63672,-0.40234 1.03906,-0.40234c0.40234,0 0.73438,0.14453 1.01953,0.40234c0.28125,0.25782 0.42188,0.58985 0.42188,0.96485zm11.49218,10.01172l-4.44531,0l0,-0.54297c0.09375,0 0.21094,-0.02344 0.33203,-0.04688c0.14063,-0.02344 0.23438,-0.04687 0.30469,-0.07031c0.09766,-0.04688 0.16797,-0.14063 0.21484,-0.23438c0.04688,-0.09375 0.07032,-0.25781 0.07032,-0.44921l0,-3.4375c0,-0.4961 -0.09375,-0.8711 -0.28516,-1.12891c-0.1875,-0.26172 -0.44922,-0.37891 -0.82812,-0.37891c-0.1875,0 -0.375,0.02344 -0.54297,0.09375c-0.16407,0.07032 -0.32813,0.14063 -0.4961,0.25782c-0.14062,0.09765 -0.25781,0.1914 -0.35547,0.30859c-0.09375,0.09375 -0.16406,0.1875 -0.21093,0.28125l0,3.93359c0,0.16797 0.02343,0.3086 0.07031,0.42578c0.04687,0.11719 0.14062,0.21094 0.23828,0.25782c0.07031,0.04687 0.16406,0.09375 0.28125,0.11718l0.35547,0.07422l0,0.53907l-4.49219,0l0,-0.53907c0.11719,0 0.23828,-0.02734 0.37891,-0.05078c0.11719,-0.02344 0.23828,-0.04687 0.33203,-0.07031c0.16406,-0.04688 0.25781,-0.14063 0.32812,-0.25781c0.05079,-0.11719 0.09766,-0.25782 0.09766,-0.44922l0,-4.28516c0,-0.14062 -0.04687,-0.30859 -0.12109,-0.44922c-0.07032,-0.14062 -0.1875,-0.25781 -0.30469,-0.35156c-0.09375,-0.04687 -0.19141,-0.11719 -0.33203,-0.14062c-0.14453,-0.05079 -0.29688,-0.07422 -0.44922,-0.07032l0,-0.54297l3.52344,-0.1875l0.11718,0.11719l0,1.0586l0.02344,0c0.17188,-0.14063 0.33985,-0.28907 0.4961,-0.44532c0.17578,-0.15234 0.35546,-0.29297 0.54296,-0.42578c0.19141,-0.11719 0.42579,-0.21094 0.71094,-0.30469c0.28125,-0.09765 0.61328,-0.12109 0.94531,-0.12109c0.80469,0 1.39454,0.23828 1.79688,0.68359c0.40234,0.44922 0.58984,1.0625 0.58984,1.81641l0,3.60156c0,0.19141 0.02344,0.33203 0.07032,0.42578c0.04687,0.11719 0.16796,0.1875 0.30859,0.25782c0.07031,0.02343 0.16406,0.07031 0.28516,0.09375c0.11718,0.02343 0.23437,0.04687 0.40234,0.07422l0,0.5625l0.04687,0zm4.08985,0.25781c-0.47266,0 -0.94531,-0.07031 -1.39453,-0.21094c-0.44922,-0.14062 -0.80469,-0.28125 -1.06641,-0.44531l-0.21094,0.49219l-0.57031,0l-0.09375,-2.73047l0.54297,0c0.07422,0.21093 0.19141,0.46875 0.37891,0.7539c0.16796,0.28125 0.3789,0.51563 0.59375,0.75391c0.24218,0.21875 0.51171,0.41016 0.80078,0.5625c0.30859,0.14453 0.61718,0.23828 0.94531,0.23828c0.44922,0 0.78125,-0.09375 0.99609,-0.26172c0.21094,-0.16406 0.32813,-0.44531 0.32813,-0.80078c0,-0.1875 -0.04688,-0.35156 -0.14063,-0.49219c-0.09375,-0.11718 -0.23437,-0.23828 -0.40234,-0.33203c-0.1875,-0.09375 -0.40234,-0.1875 -0.63672,-0.25781c-0.23828,-0.07031 -0.51953,-0.14063 -0.85156,-0.25781c-0.33203,-0.09766 -0.61328,-0.19141 -0.85156,-0.3086c-0.23829,-0.09375 -0.4961,-0.25781 -0.73438,-0.46875c-0.21094,-0.1914 -0.39844,-0.42578 -0.51953,-0.68359c-0.14063,-0.26172 -0.1875,-0.58984 -0.1875,-0.96875c0,-0.67969 0.28125,-1.24609 0.875,-1.67188c0.58984,-0.42187 1.34766,-0.63671 2.29297,-0.63671c0.44922,0 0.85156,0.05078 1.23047,0.14453c0.375,0.09375 0.68359,0.1875 0.94531,0.30468l0.16406,-0.42578l0.56641,0l0.11719,2.5l-0.51954,0c-0.16406,-0.51953 -0.47265,-0.94531 -0.875,-1.32031c-0.42578,-0.375 -0.875,-0.56641 -1.34765,-0.56641c-0.375,0 -0.6836,0.07032 -0.89844,0.23829c-0.21094,0.16406 -0.32812,0.375 -0.32812,0.65625c0,0.3789 0.16406,0.63671 0.47265,0.80078c0.30469,0.16797 0.75391,0.33203 1.32422,0.47265c0.875,0.23438 1.51172,0.54297 1.9375,0.91797c0.40234,0.40235 0.61328,0.89453 0.61328,1.48438c0,0.80078 -0.30469,1.4375 -0.94531,1.86328c-0.70703,0.42187 -1.53516,0.65625 -2.55078,0.65625zm0,0"/>
  </g>
 </g>
</svg>