<svg width="99.99999999999999" height="99.99999999999999" xmlns="http://www.w3.org/2000/svg" version="1.1">

 <g>
  <title>Layer 1</title>
  <g stroke="null" id="surface1">
   <path stroke="null" id="svg_1" fill="rgb(0%,0%,0%)" fill-rule="nonzero" d="m3.05606,81.83304c0.27157,-0.3063 0.54313,-0.61259 0.84942,-0.91889c0.28419,-0.31577 0.56839,-0.6347 0.84942,-0.95363c0.27157,-0.34103 0.54313,-0.64733 0.77996,-0.91889c0.23998,-0.27156 0.47681,-0.54628 0.64733,-0.74838l3.29349,0c-0.64733,0.74838 -1.29151,1.49676 -1.93568,2.17883c-0.6126,0.68207 -1.29151,1.39571 -2.03673,2.14408c0.40735,0.38524 0.79259,0.79574 1.15257,1.22835c0.40734,0.47366 0.77995,0.95047 1.15572,1.42729c0.36945,0.47997 0.71049,0.97888 1.01679,1.49991c0.30629,0.51156 0.57786,0.95363 0.78311,1.36098l-3.19245,0c-0.20525,-0.34104 -0.44208,-0.67891 -0.67891,-1.05468c-0.24946,-0.41366 -0.52102,-0.81153 -0.81469,-1.19046c-0.27788,-0.4105 -0.58418,-0.79574 -0.91889,-1.15888c-0.2684,-0.34103 -0.57786,-0.64733 -0.91573,-0.91889l0,4.28817l-2.7851,0l0,-14.06128l2.7851,-0.44208l0,8.23847"/>
   <path stroke="null" id="svg_2" fill="rgb(0%,0%,0%)" fill-rule="nonzero" d="m19.2867,87.79163c-0.59997,0.17052 -1.21256,0.29367 -1.83464,0.37577c-0.77364,0.12631 -1.55675,0.18315 -2.34302,0.17051c-0.7168,0.02526 -1.43044,-0.08841 -2.10304,-0.34103c-1.02941,-0.3884 -1.77778,-1.29466 -1.97041,-2.38407c-0.13894,-0.60312 -0.20525,-1.21887 -0.20209,-1.83779l0,-5.48179l2.78195,0l0,5.14076c0,0.88416 0.10421,1.53149 0.34104,1.94199c0.23682,0.40735 0.6789,0.61259 1.32307,0.61259c0.21789,0.00316 0.43261,-0.00631 0.64734,-0.03473c0.23682,-0.03474 0.40734,-0.03474 0.60943,-0.06632l0,-7.59429l2.7851,0l-0.03473,9.49839"/>
   <path stroke="null" id="svg_3" fill="rgb(0%,0%,0%)" fill-rule="nonzero" d="m28.2167,83.1277c0,-1.80305 -0.64417,-2.69037 -1.97041,-2.69037c-0.28419,0 -0.56838,0.03474 -0.84626,0.10105c-0.23999,0.06 -0.46735,0.15157 -0.67891,0.27472l0,5.07444c0.13262,0.03158 0.30314,0.03158 0.50839,0.06632c0.20209,0 0.44208,0.03473 0.6789,0.03473c0.66944,0.03158 1.31045,-0.26208 1.73043,-0.78311c0.40734,-0.61575 0.60943,-1.34202 0.57786,-2.07777m2.81668,0.06947c0.01579,0.72943 -0.09789,1.4557 -0.33788,2.14408c-0.20525,0.60944 -0.53997,1.16836 -0.98521,1.6357c-0.46103,0.44524 -1.00415,0.80521 -1.59465,1.05468c-0.69785,0.24314 -1.4336,0.35682 -2.1725,0.34103c-0.34103,0 -0.6789,-0.03474 -1.05468,-0.06946c-0.3726,-0.03158 -0.71048,-0.06632 -1.08625,-0.10105c-0.33788,-0.03474 -0.6789,-0.10421 -1.01678,-0.17052c-0.29051,-0.05052 -0.57471,-0.12947 -0.84942,-0.23999l0,-13.75498l2.7851,-0.44524l0,4.90392c0.31578,-0.13578 0.64418,-0.23998 0.98205,-0.30629c0.35998,-0.06947 0.72311,-0.10105 1.08625,-0.10105c0.63154,-0.01263 1.25992,0.11683 1.83463,0.37576c0.52733,0.22736 0.99152,0.57786 1.35781,1.01994c0.39156,0.47681 0.66944,1.03573 0.8147,1.6357c0.15472,0.68207 0.23367,1.37676 0.23683,2.07777"/>
   <path stroke="null" id="svg_4" fill="rgb(0%,0%,0%)" fill-rule="nonzero" d="m32.70065,83.29822c-0.01895,-0.77995 0.11999,-1.55675 0.40419,-2.27986c0.2463,-0.60628 0.60312,-1.16204 1.05467,-1.6357c0.41682,-0.43892 0.92521,-0.7768 1.4936,-0.98837c0.55892,-0.23051 1.15888,-0.34734 1.76516,-0.34103c1.23151,-0.05684 2.42828,0.41366 3.29349,1.29466c0.81469,0.85258 1.22203,2.11251 1.22203,3.74504c0.00631,0.18315 -0.00631,0.3663 -0.03474,0.54628c0,0.17052 -0.03158,0.34104 -0.03158,0.51156l-6.31542,0c0.05368,0.5526 0.35366,1.05152 0.81469,1.36097c0.56523,0.36314 1.22835,0.54313 1.90094,0.51155c0.50208,0.00632 1.001,-0.04105 1.4936,-0.13578c0.41682,-0.07262 0.82732,-0.1863 1.22203,-0.34103l0.37261,2.27986c-0.13578,0.06947 -0.33788,0.13578 -0.60944,0.23999c-0.27472,0.09157 -0.56207,0.14841 -0.84942,0.17051c-0.32524,0.06632 -0.65364,0.11052 -0.98521,0.13578c-0.34104,0.03474 -0.71364,0.06631 -1.05152,0.06631c-0.78943,0.01895 -1.5757,-0.11999 -2.30829,-0.40734c-0.60944,-0.24314 -1.16204,-0.59997 -1.63254,-1.05468c-0.41682,-0.47997 -0.74206,-1.03257 -0.95047,-1.6357c-0.17683,-0.66628 -0.2684,-1.3515 -0.27157,-2.04304m6.5554,-1.08941c-0.00947,-0.23367 -0.05684,-0.46418 -0.13577,-0.68207c-0.06947,-0.21788 -0.17052,-0.42629 -0.3063,-0.61259c-0.3284,-0.41366 -0.83364,-0.64102 -1.35782,-0.61259c-0.28103,0 -0.55891,0.05684 -0.81469,0.17052c-0.21473,0.08841 -0.40103,0.22736 -0.54313,0.40734c-0.15472,0.17999 -0.2684,0.3884 -0.34103,0.61259c-0.07262,0.2242 -0.12947,0.45156 -0.17052,0.68207l3.66926,0"/>
   <path stroke="null" id="svg_5" fill="rgb(0%,0%,0%)" fill-rule="nonzero" d="m49.9828,80.74363c-0.29051,-0.0821 -0.58417,-0.13894 -0.88416,-0.17051c-0.35682,-0.06947 -0.72311,-0.10421 -1.08625,-0.10105c-0.21472,0.00947 -0.4326,0.03473 -0.64417,0.06631c-0.18315,0.02526 -0.3663,0.06 -0.54313,0.1042l0,7.52483l-2.7851,0l0,-9.36261c0.57786,-0.19894 1.16835,-0.35682 1.76516,-0.47682c0.74522,-0.17052 1.50939,-0.25262 2.27355,-0.23998c0.18315,-0.00316 0.36314,0.00947 0.54313,0.03474c0.21788,0.00631 0.4326,0.02841 0.64733,0.06631c0.20209,0.03474 0.40735,0.06946 0.64417,0.1042c0.20209,0.03474 0.40735,0.10105 0.54313,0.13578l-0.47366,2.3146"/>
   <path stroke="null" id="svg_6" fill="rgb(0%,0%,0%)" fill-rule="nonzero" d="m51.95006,78.63428c1.36413,-0.36314 2.76615,-0.54628 4.17764,-0.54628c0.70733,-0.02842 1.4115,0.08526 2.07146,0.34103c0.51787,0.17368 0.97574,0.49261 1.32308,0.91889c0.31893,0.42629 0.5526,0.91258 0.67891,1.43044c0.1421,0.60313 0.21157,1.21887 0.20525,1.83779l0,5.55126l-2.7851,0l0,-5.21023c0,-0.88416 -0.10105,-1.53149 -0.34103,-1.90725c-0.23683,-0.37261 -0.67891,-0.54313 -1.32308,-0.54313c-0.21473,-0.00631 -0.43261,0.00632 -0.64418,0.03474c-0.20525,0.00316 -0.4105,0.02526 -0.61259,0.06631l0,7.5943l-2.75036,0l0,-9.56786"/>
   <path stroke="null" id="svg_7" fill="rgb(0%,0%,0%)" fill-rule="nonzero" d="m62.47786,83.29822c-0.01894,-0.77995 0.12,-1.55675 0.40735,-2.27986c0.24314,-0.60628 0.59997,-1.16204 1.05152,-1.6357c0.41682,-0.43892 0.92837,-0.7768 1.4936,-0.98837c0.55891,-0.23051 1.16204,-0.34734 1.76516,-0.34103c1.23151,-0.05684 2.42828,0.41366 3.29349,1.29466c0.81469,0.85258 1.22203,2.11251 1.22203,3.74504c0.00631,0.18315 -0.00631,0.3663 -0.03158,0.54628c0,0.17052 -0.03474,0.34104 -0.03474,0.51156l-6.31542,0c0.05684,0.5526 0.35366,1.05152 0.81469,1.36097c0.56523,0.36314 1.22835,0.54313 1.90094,0.51155c0.50208,0.00632 1.00099,-0.04105 1.4936,-0.13578c0.41997,-0.07262 0.82732,-0.1863 1.22203,-0.34103l0.37576,2.27986c-0.13578,0.06947 -0.34103,0.13578 -0.61259,0.23999c-0.27473,0.09157 -0.55892,0.14841 -0.84942,0.17051c-0.32525,0.06632 -0.65365,0.11052 -0.98521,0.13578c-0.33788,0.03474 -0.71365,0.06631 -1.05152,0.06631c-0.78943,0.01895 -1.57255,-0.11999 -2.30829,-0.40734c-0.60628,-0.24314 -1.16204,-0.59997 -1.62938,-1.05468c-0.41997,-0.47997 -0.74206,-1.03257 -0.95047,-1.6357c-0.17999,-0.66628 -0.27157,-1.35466 -0.27157,-2.04304m6.55225,-1.08941c-0.00947,-0.23367 -0.05684,-0.46418 -0.13578,-0.68207c-0.06631,-0.21788 -0.17051,-0.42629 -0.30629,-0.61259c-0.32525,-0.41366 -0.83364,-0.64102 -1.35782,-0.61259c-0.28104,0 -0.55892,0.05684 -0.81469,0.17052c-0.21473,0.08841 -0.40103,0.22736 -0.54313,0.40734c-0.15157,0.17999 -0.2684,0.3884 -0.34103,0.61259c-0.07263,0.2242 -0.12947,0.45156 -0.16736,0.68207l3.6661,0"/>
   <path stroke="null" id="svg_8" fill="rgb(0%,0%,0%)" fill-rule="nonzero" d="m73.78246,75.83971l2.7851,-0.44208l0,2.89562l3.32823,0l0,2.3146l-3.32823,0l0,3.47349c-0.0221,0.48313 0.0821,0.96626 0.3063,1.39571c0.20209,0.34104 0.64417,0.51155 1.25676,0.51155c0.3063,-0.00631 0.6126,-0.02841 0.91574,-0.06946c0.29998,-0.05368 0.59681,-0.13263 0.881,-0.23683l0.40735,2.17882c-0.35999,0.15473 -0.73575,0.2684 -1.11784,0.34104c-0.50207,0.1042 -1.01678,0.15157 -1.52833,0.13577c-0.64733,0.01895 -1.29151,-0.08525 -1.90094,-0.30629c-0.45787,-0.18631 -0.86522,-0.47682 -1.19046,-0.85258c-0.31261,-0.39787 -0.53366,-0.86521 -0.64417,-1.36097c-0.11368,-0.57154 -0.17052,-1.15256 -0.17052,-1.73674l0,-8.24162"/>
   <path stroke="null" id="svg_9" fill="rgb(0%,0%,0%)" fill-rule="nonzero" d="m81.31992,83.29822c-0.01579,-0.77995 0.11999,-1.55675 0.40734,-2.27986c0.2463,-0.60628 0.60313,-1.16204 1.05468,-1.6357c0.41682,-0.43892 0.92521,-0.7768 1.4936,-0.98837c0.55891,-0.23051 1.15888,-0.34734 1.76516,-0.34103c1.23151,-0.05684 2.42828,0.41366 3.29349,1.29466c0.81469,0.85258 1.22203,2.11251 1.22203,3.74504c0.00631,0.18315 -0.00631,0.3663 -0.03474,0.54628c0,0.17052 -0.03158,0.34104 -0.03158,0.51156l-6.31542,0c0.05368,0.5526 0.35366,1.05152 0.81469,1.36097c0.56523,0.36314 1.22835,0.54313 1.90094,0.51155c0.50208,0.00632 1.00099,-0.04105 1.4936,-0.13578c0.41681,-0.07262 0.82732,-0.1863 1.22203,-0.34103l0.3726,2.27986c-0.13577,0.06947 -0.33787,0.13578 -0.60943,0.23999c-0.27473,0.09157 -0.56207,0.14841 -0.84942,0.17051c-0.32525,0.06632 -0.65365,0.11052 -0.98521,0.13578c-0.34104,0.03474 -0.71365,0.06631 -1.05152,0.06631c-0.78943,0.01895 -1.5757,-0.11999 -2.30829,-0.40734c-0.60944,-0.24314 -1.16204,-0.59997 -1.63254,-1.05468c-0.41682,-0.47997 -0.74206,-1.03257 -0.95048,-1.6357c-0.19262,-0.66312 -0.28419,-1.3515 -0.27156,-2.04304m6.52067,-1.08941c-0.00947,-0.23367 -0.05684,-0.46418 -0.13578,-0.68207c-0.06631,-0.21788 -0.17051,-0.42629 -0.30629,-0.61259c-0.32525,-0.41366 -0.83364,-0.64102 -1.35782,-0.61259c-0.28104,0 -0.55892,0.05684 -0.81469,0.17052c-0.21473,0.08841 -0.40103,0.22736 -0.54313,0.40734c-0.15157,0.17999 -0.2684,0.3884 -0.34103,0.61259c-0.07263,0.2242 -0.12947,0.45156 -0.16736,0.68207l3.6661,0"/>
   <path stroke="null" id="svg_10" fill="rgb(0%,0%,0%)" fill-rule="nonzero" d="m95.47909,86.12436c0.36945,0.02842 0.7389,-0.01894 1.08625,-0.13578c0.20841,-0.11367 0.3284,-0.34103 0.3063,-0.57786c0,-0.23998 -0.13578,-0.4105 -0.40735,-0.58102c-0.39787,-0.23683 -0.81785,-0.42945 -1.25677,-0.57786c-0.44208,-0.17052 -0.84942,-0.34104 -1.1873,-0.51156c-0.32524,-0.15472 -0.62207,-0.36313 -0.88416,-0.61259c-0.24946,-0.25262 -0.44524,-0.55576 -0.57786,-0.88416c-0.1421,-0.39471 -0.21157,-0.80837 -0.20209,-1.22835c-0.03789,-0.84942 0.34419,-1.66411 1.01994,-2.17882c0.6789,-0.54313 1.62937,-0.81785 2.81667,-0.81785c0.58102,0.00631 1.16204,0.06315 1.73043,0.17052c0.44208,0.06946 0.87468,0.18315 1.29151,0.34103l-0.47366,2.17882c-0.34104,-0.10105 -0.68207,-0.20209 -1.05468,-0.30629c-0.4105,-0.10105 -0.83364,-0.14526 -1.25677,-0.13578c-0.881,0 -1.28835,0.23998 -1.28835,0.7168c0.00632,0.1042 0.02842,0.20841 0.06631,0.30629c0.04737,0.11368 0.13263,0.20841 0.23683,0.27157c0.10421,0.06947 0.27157,0.17052 0.44208,0.27157c0.20525,0.10421 0.44208,0.17052 0.74838,0.3063c0.52418,0.18946 1.03573,0.41681 1.52833,0.68207c0.35682,0.1642 0.66944,0.40734 0.91574,0.71364c0.23367,0.23683 0.39787,0.5305 0.47681,0.85258c0.10105,0.35366 0.14526,0.72311 0.13578,1.08941c0.04105,0.87785 -0.36945,1.71464 -1.08941,2.21355c-0.71048,0.51156 -1.73042,0.74838 -3.08824,0.74838c-0.73259,0.02211 -1.46202,-0.05684 -2.1725,-0.23682c-0.40735,-0.08526 -0.80521,-0.21157 -1.1873,-0.37577l0.47366,-2.27986c0.47366,0.18315 0.9631,0.33156 1.45886,0.44208c0.45786,0.09789 0.92521,0.1421 1.39255,0.13578"/>
   <path stroke="null" id="svg_11" fill="rgb(100%,100%,100%)" fill-rule="nonzero" d="m20.08875,48.46236l3.0314,0l0,2.41249l-3.0314,0l0,-2.41249zm0,0"/>
   <path stroke="null" id="svg_12" fill="rgb(19.607843%,42.352941%,89.803922%)" fill-rule="nonzero" d="m55.52774,46.473c-0.08211,-0.01579 -0.1642,-0.0221 -0.2463,-0.01579c-0.13894,0.00631 -0.27788,0.04105 -0.40419,0.10421c-0.51471,0.24946 -0.74206,0.85574 -0.51471,1.37992l-0.00947,0.01263l2.4346,5.89545c2.32724,-1.49044 4.09555,-3.71662 5.02076,-6.32489l-6.27121,-1.06414l-0.00947,0.01263zm-9.76048,0.8368c-0.10736,-0.47682 -0.52734,-0.82101 -1.01678,-0.82732c-0.07263,0 -0.1421,0.00316 -0.21157,0.01895l-0.00947,-0.01263l-6.21753,1.05784c0.93468,2.58932 2.69353,4.79656 5.00497,6.28068l2.40933,-5.83861l-0.01895,-0.0221c0.09157,-0.20841 0.11052,-0.43576 0.06,-0.6568zm5.20706,2.28934c-0.1863,-0.34419 -0.54312,-0.56207 -0.93468,-0.55892c-0.39155,0 -0.75153,0.21473 -0.93783,0.56208l-0.00316,0l-3.05666,5.54494c2.18829,0.74838 4.54079,0.86837 6.79539,0.3505c0.41682,-0.09473 0.82732,-0.21156 1.2252,-0.34419l-3.06614,-5.55441l-0.02211,0zm9.67839,-12.8803l-4.70183,4.22501l0,0.01263c-0.29367,0.25894 -0.42313,0.6568 -0.33472,1.03889c0.08526,0.38209 0.37577,0.68523 0.75154,0.79259l0.00631,0.02526l6.09438,1.75884c0.26209,-2.74405 -0.37576,-5.50073 -1.81568,-7.85007l0,-0.00315zm-8.73738,0.47365c0.01579,0.39156 0.2463,0.74206 0.59996,0.91258c0.35366,0.17052 0.77049,0.13262 1.08625,-0.09789l0.01895,0.00631l5.14707,-3.65979c-1.96094,-1.9262 -4.49658,-3.15139 -7.21853,-3.48926l0.35998,6.32805l0.00632,0zm-5.45337,0.8368c0.31578,0.23052 0.73575,0.2684 1.08625,0.09789c0.35366,-0.17051 0.58418,-0.52102 0.59997,-0.91257l0.02526,-0.01263l0.35682,-6.33752c-0.42945,0.05052 -0.8589,0.12631 -1.28203,0.22104c-2.25776,0.50839 -4.32606,1.64201 -5.97754,3.26507l5.1818,3.68504l0.00947,-0.00631zm-2.75984,4.78708c0.37576,-0.10105 0.66628,-0.40734 0.75469,-0.78943c0.08526,-0.38208 -0.0442,-0.78311 -0.33787,-1.03888l0.00315,-0.02526l-4.73025,-4.24396c-1.44308,2.35565 -2.06198,5.12496 -1.75884,7.87532l6.0628,-1.75568l0.00631,-0.02211zm4.59131,1.86621l1.74621,0.83995l1.7399,-0.83995l0.4326,-1.882l-1.20309,-1.51254l-1.93883,0l-1.20941,1.50939l0.43261,1.88515zm0,0"/>
   <path stroke="null" id="svg_13" fill="rgb(19.607843%,42.352941%,89.803922%)" fill-rule="nonzero" d="m78.88532,48.39288l-4.97024,-21.65874c-0.27157,-1.13678 -1.03573,-2.0904 -2.08093,-2.59879l-20.12725,-9.63734c-1.05783,-0.50523 -2.28618,-0.50523 -3.34086,0l-20.12409,9.64365c-1.0452,0.50839 -1.80937,1.46202 -2.08093,2.59564l-4.96392,21.65874c-0.12316,0.54944 -0.12316,1.11467 0,1.66411c0.03474,0.16736 0.0821,0.33156 0.13894,0.49261c0.09789,0.27156 0.2242,0.53365 0.38209,0.77995c0.06947,0.10421 0.1421,0.20525 0.21788,0.30314l13.92866,17.36741c0.06315,0.07579 0.12946,0.14525 0.19578,0.21472c0.21788,0.23367 0.46418,0.43892 0.73574,0.60944c0.33788,0.21472 0.71049,0.37893 1.09889,0.47997c0.31893,0.08841 0.64733,0.13578 0.97888,0.13578l0.21789,0l22.11976,-0.00316c0.13262,-0.00316 0.2684,-0.00947 0.40103,-0.02526c0.19262,-0.0221 0.38209,-0.05684 0.56839,-0.10736c0.13262,-0.03474 0.26524,-0.07895 0.39471,-0.12631c0.10105,-0.0379 0.19893,-0.07895 0.29682,-0.12316c0.14526,-0.07262 0.28735,-0.14841 0.42314,-0.23683c0.35051,-0.22103 0.66312,-0.49891 0.92206,-0.821l0.42629,-0.52733l13.49921,-16.84323c0.25893,-0.32525 0.46102,-0.69154 0.59997,-1.0831c0.06,-0.16104 0.10736,-0.32524 0.14525,-0.4926c0.12,-0.54628 0.12,-1.11467 -0.00315,-1.66411l0,0.00315zm-20.87562,8.42478c0.05684,0.1642 0.12315,0.3284 0.20209,0.48629c-0.12315,0.21472 -0.15788,0.4705 -0.09473,0.71364c0.29367,0.67259 0.65049,1.31361 1.0673,1.91674c0.23368,0.30945 0.45156,0.62838 0.64734,0.9631c0.04736,0.08842 0.11051,0.23052 0.15788,0.32525c0.23683,0.39471 0.22736,0.89362 -0.02211,1.28202c-0.24946,0.38525 -0.69785,0.59997 -1.15572,0.54628c-0.45787,-0.05368 -0.84627,-0.35998 -1.00099,-0.79574c-0.04421,-0.09473 -0.11052,-0.22104 -0.14842,-0.30945c-0.13578,-0.36314 -0.25262,-0.73259 -0.3505,-1.10836c-0.20841,-0.70101 -0.48313,-1.38307 -0.82416,-2.03041c-0.14842,-0.20209 -0.36945,-0.33472 -0.61575,-0.37576c-0.0379,-0.06631 -0.17999,-0.3284 -0.25893,-0.46418c-3.58085,1.36098 -7.53746,1.3515 -11.11514,-0.02841l-0.27157,0.49576c-0.19578,0.03158 -0.37577,0.11999 -0.52102,0.25262c-0.41051,0.67574 -0.72311,1.40833 -0.93153,2.1725c-0.09473,0.37576 -0.21157,0.74522 -0.34734,1.10519c-0.0379,0.08842 -0.10421,0.21473 -0.14842,0.30946l-0.00315,0.00315c-0.15473,0.43577 -0.54313,0.74522 -1.001,0.7989c-0.45786,0.05052 -0.90626,-0.16104 -1.15572,-0.5526c-0.24946,-0.3884 -0.25578,-0.88416 -0.01579,-1.28203c0.0442,-0.09473 0.1042,-0.23367 0.15157,-0.32524c0.19893,-0.33156 0.41365,-0.65364 0.64733,-0.9631c0.42313,-0.61891 0.78943,-1.27887 1.08941,-1.96725c0.03158,-0.23367 -0.00631,-0.4705 -0.10736,-0.68207l0.21788,-0.52733c-3.29665,-1.95147 -5.76598,-5.04287 -6.9438,-8.69634l-0.52418,0.08842c-0.20525,-0.14526 -0.44524,-0.23052 -0.69469,-0.24314c-0.7168,0.13578 -1.42098,0.34419 -2.09988,0.61891c-0.3505,0.15788 -0.71364,0.29683 -1.07994,0.41366c-0.08841,0.02526 -0.21157,0.05052 -0.31261,0.07262c-0.00631,0 -0.01263,0.00632 -0.0221,0.00632c-0.00631,0 -0.01263,0.00315 -0.01895,0.00315c-0.43576,0.1421 -0.91573,0.02526 -1.23782,-0.29998c-0.32209,-0.3284 -0.4326,-0.81153 -0.28419,-1.2473c0.15157,-0.43576 0.53366,-0.74838 0.98837,-0.80837l0.01579,-0.00316l0.01263,-0.00315c0.10105,-0.02526 0.22736,-0.05684 0.31893,-0.07579c0.38525,-0.05368 0.77049,-0.08526 1.15888,-0.09157c0.72627,-0.04737 1.44939,-0.16736 2.15672,-0.35682c0.20841,-0.13262 0.38524,-0.31261 0.51786,-0.52418l0.50523,-0.14841c-0.54628,-3.81135 0.3284,-7.69219 2.4567,-10.89726l-0.38524,-0.34419c-0.01263,-0.24946 -0.09789,-0.49261 -0.24314,-0.69785c-0.5526,-0.47682 -1.15256,-0.89995 -1.79042,-1.25993c-0.3442,-0.17683 -0.67575,-0.3726 -0.99784,-0.58733c-0.07262,-0.05368 -0.17052,-0.13578 -0.24946,-0.20209l-0.01895,-0.01263c-0.57154,-0.41051 -0.70101,-1.20625 -0.29683,-1.78095c0.23367,-0.28735 0.59049,-0.44524 0.95994,-0.42629c0.3063,0.01579 0.59997,0.12631 0.83995,0.31893c0.08211,0.06631 0.19578,0.15157 0.26841,0.21472c0.27788,0.26525 0.54312,0.54629 0.79258,0.84311c0.49261,0.54313 1.03573,1.03573 1.62307,1.4715c0.22103,0.11683 0.47681,0.1421 0.7168,0.06946c0.1421,0.10421 0.28734,0.20841 0.4326,0.30946c2.11883,-2.25461 4.85972,-3.82715 7.87217,-4.50921c0.7168,-0.16104 1.44308,-0.27472 2.17567,-0.33472l0.02842,-0.51155c0.18946,-0.16737 0.32524,-0.38209 0.39155,-0.62523c0.02842,-0.73259 -0.01895,-1.46518 -0.13262,-2.19145c-0.07895,-0.37893 -0.13262,-0.76101 -0.1642,-1.14625c-0.00315,-0.08841 0,-0.21157 0.00316,-0.30945c0,-0.01263 -0.00316,-0.02526 -0.00316,-0.03474c-0.04736,-0.46102 0.17052,-0.90942 0.56208,-1.15256c0.39155,-0.2463 0.89047,-0.2463 1.28202,0c0.39156,0.24314 0.60944,0.69154 0.56523,1.15256c0,0.10421 0.00631,0.2463 0,0.34104c-0.03158,0.38839 -0.08841,0.77048 -0.1642,1.1494c-0.11683,0.72311 -0.16104,1.45886 -0.13578,2.19145c0.04736,0.2463 0.18946,0.46102 0.39471,0.60312c0.00316,0.08842 0.01579,0.37893 0.02842,0.53997c3.80819,0.34735 7.36062,2.0683 9.9973,4.84393l0.45787,-0.3284c0.2463,0.04421 0.49892,0.01579 0.73259,-0.07895c0.58733,-0.43576 1.13046,-0.93152 1.62306,-1.47149c0.24946,-0.29683 0.51471,-0.58102 0.79575,-0.84627c0.07262,-0.06315 0.18315,-0.14841 0.26524,-0.21156c0.33156,-0.3284 0.81785,-0.43577 1.25361,-0.28104c0.43577,0.15473 0.74838,0.54312 0.7989,1.00731c0.05368,0.46103 -0.16104,0.91258 -0.5526,1.16204c-0.07895,0.06316 -0.18631,0.15473 -0.26209,0.21473c-0.32209,0.21472 -0.6568,0.40734 -1.00099,0.58417c-0.63786,0.36314 -1.23782,0.78311 -1.79358,1.26308c-0.16104,0.18947 -0.24314,0.43577 -0.22419,0.68207c-0.06947,0.06316 -0.30314,0.27157 -0.42945,0.38525c2.13777,3.19245 3.0314,7.0638 2.51038,10.872l0.48629,0.1421c0.12,0.21788 0.29998,0.40103 0.51786,0.52417c0.70733,0.18947 1.43044,0.30946 2.15988,0.35682c0.3884,0.00947 0.77364,0.0379 1.15572,0.09157c0.10105,0.01895 0.24946,0.06 0.3505,0.0821c0.45471,0.06 0.8368,0.37577 0.98837,0.81153c0.14841,0.43576 0.03789,0.91573 -0.2842,1.24414c-0.32208,0.3284 -0.80205,0.44208 -1.23782,0.29999l-0.01894,-0.00316c-0.00632,-0.00316 -0.0158,-0.00631 -0.02211,-0.00947c-0.10105,-0.01895 -0.22419,-0.04105 -0.31261,-0.06631c-0.36629,-0.11683 -0.72943,-0.25578 -1.07993,-0.41681c-0.67891,-0.27473 -1.38308,-0.48313 -2.09988,-0.61892c-0.24946,-0.00947 -0.49261,0.0821 -0.67575,0.24946c-0.17052,-0.03158 -0.34419,-0.06315 -0.51471,-0.08841c-1.16519,3.67242 -3.63452,6.79223 -6.9438,8.75949zm0,0"/>
   <path stroke="null" id="svg_14" fill="rgb(100%,100%,100%)" fill-rule="nonzero" d="m81.51254,48.94864l-5.42495,-23.6323c-0.29683,-1.23782 -1.13046,-2.27671 -2.27039,-2.83247l-21.95872,-10.51202c-1.15256,-0.5526 -2.49143,-0.5526 -3.644,0l-21.95555,10.51833c-1.1431,0.55576 -1.97673,1.59465 -2.27355,2.83247l-5.41232,23.6323c-0.24946,1.09889 -0.0442,2.25461 0.56839,3.20192c0.07262,0.11368 0.15157,0.2242 0.23998,0.33156l15.19491,18.94941c0.80521,0.98521 2.0083,1.56307 3.28086,1.56939l24.37121,-0.00631c1.27256,-0.00631 2.47564,-0.58102 3.28086,-1.56622l15.19175,-18.95258c0.78627,-0.99468 1.08625,-2.2925 0.81153,-3.53348zm-2.62721,1.1052c-0.03474,0.16736 -0.0821,0.33156 -0.1421,0.4926c-0.13894,0.39156 -0.34104,0.75785 -0.59997,1.0831l-13.49921,16.84323l-0.42314,0.5305c-0.26209,0.32208 -0.5747,0.59681 -0.92521,0.81784c-0.13578,0.08842 -0.27788,0.16737 -0.42314,0.23683c-0.09473,0.04421 -0.19577,0.08526 -0.29682,0.12316c-0.12947,0.04736 -0.26209,0.09157 -0.39471,0.12631c-0.18631,0.05052 -0.37577,0.08526 -0.56839,0.10736c-0.13262,0.01579 -0.2684,0.02526 -0.40103,0.02526l-22.11976,0.00316l-0.21789,0c-0.33155,0 -0.65996,-0.04737 -0.97888,-0.13263c-0.3884,-0.1042 -0.75785,-0.26524 -1.09889,-0.47997c-0.2684,-0.17367 -0.51786,-0.37893 -0.73574,-0.61259c-0.06632,-0.06947 -0.13263,-0.13894 -0.19263,-0.21472l-13.93181,-17.36741c-0.07579,-0.09789 -0.14841,-0.19893 -0.21788,-0.30314c-0.15788,-0.2463 -0.28419,-0.50839 -0.38209,-0.77995c-0.05684,-0.16104 -0.1042,-0.32525 -0.13894,-0.49261c-0.12316,-0.54944 -0.12316,-1.11467 0,-1.66411l4.96392,-21.65874c0.27157,-1.13361 1.03573,-2.08725 2.08093,-2.59564l20.12409,-9.64365c1.05784,-0.50523 2.28303,-0.50523 3.34086,0l20.12725,9.63734c1.0452,0.51155 1.80937,1.46202 2.08093,2.59879l4.97024,21.65874c0.12315,0.54628 0.12315,1.11467 0,1.66096zm0,0"/>
   <path stroke="null" id="svg_15" fill="rgb(100%,100%,100%)" fill-rule="nonzero" d="m70.21109,46.65614c-0.10105,-0.0221 -0.24946,-0.06315 -0.3505,-0.0821c-0.38209,-0.05368 -0.76732,-0.08526 -1.15257,-0.09157c-0.72943,-0.05052 -1.4557,-0.16736 -2.16303,-0.35682c-0.21788,-0.12315 -0.39787,-0.30314 -0.51786,-0.52417l-0.48629,-0.1421c0.52102,-3.8082 -0.37261,-7.67955 -2.50723,-10.872c0.12316,-0.11368 0.35999,-0.32209 0.4263,-0.38209c-0.01895,-0.24946 0.06315,-0.49576 0.22419,-0.68523c0.55576,-0.47681 1.15572,-0.89995 1.79358,-1.26308c0.34419,-0.17367 0.6789,-0.36945 1.00099,-0.58417c0.07579,-0.06 0.18315,-0.15157 0.26209,-0.21473c0.39156,-0.24946 0.60628,-0.70101 0.5526,-1.16204c-0.05052,-0.46102 -0.36313,-0.85258 -0.7989,-1.00731c-0.43576,-0.15473 -0.92205,-0.04736 -1.25361,0.27788c-0.0821,0.06631 -0.19262,0.15157 -0.26524,0.21472c-0.28104,0.26525 -0.54628,0.54944 -0.79575,0.84627c-0.4926,0.53997 -1.03573,1.03573 -1.62306,1.47149c-0.23367,0.09473 -0.48629,0.12316 -0.73259,0.07895l-0.45787,0.3284c-2.63669,-2.77563 -6.18911,-4.49658 -9.9973,-4.84393c-0.01263,-0.16104 -0.02526,-0.45155 -0.02842,-0.53997c-0.20525,-0.1421 -0.34735,-0.35682 -0.39471,-0.60312c-0.02526,-0.73259 0.01895,-1.46834 0.13578,-2.19145c0.07894,-0.37893 0.13262,-0.76101 0.1642,-1.1494c0.00316,-0.09473 0,-0.23683 0,-0.34104c0.04421,-0.46102 -0.17367,-0.90942 -0.56523,-1.15256c-0.39155,-0.2463 -0.89047,-0.2463 -1.28202,0c-0.39156,0.24314 -0.60944,0.69154 -0.56208,1.15256c0,0.01263 0,0.0221 0.00316,0.03474c-0.00316,0.09789 -0.00631,0.22104 -0.00316,0.30945c0.03158,0.38524 0.08526,0.76732 0.1642,1.14625c0.11367,0.72628 0.16104,1.45886 0.13262,2.19145c-0.06631,0.24314 -0.20209,0.45786 -0.39155,0.62523l-0.02842,0.51155c-0.73259,0.06 -1.45886,0.17367 -2.17567,0.33472c-3.01245,0.68207 -5.75334,2.2546 -7.86901,4.50921c-0.14842,-0.10105 -0.29367,-0.20525 -0.43576,-0.30946c-0.23999,0.07263 -0.49577,0.04737 -0.7168,-0.06946c-0.58734,-0.43577 -1.13046,-0.92837 -1.62307,-1.4715c-0.24946,-0.29682 -0.51155,-0.57786 -0.79258,-0.84311c-0.07263,-0.06315 -0.18631,-0.14841 -0.26841,-0.21472c-0.23998,-0.19262 -0.53365,-0.3063 -0.83995,-0.31893c-0.36945,-0.01895 -0.72628,0.13894 -0.95994,0.42629c-0.40419,0.57471 -0.27472,1.37044 0.29683,1.78095l0.01895,0.01263c0.07894,0.06631 0.17683,0.14842 0.24946,0.20209c0.32209,0.21473 0.65364,0.4105 0.99784,0.58733c0.63786,0.35999 1.23782,0.78311 1.79042,1.26308c0.14526,0.20209 0.22736,0.44524 0.24314,0.6947l0.38524,0.34735c-2.12829,3.20507 -3.00614,7.08275 -2.4567,10.89726l-0.50523,0.14525c-0.13262,0.21157 -0.30945,0.39156 -0.51786,0.52418c-0.70733,0.18947 -1.43045,0.30945 -2.15988,0.35682c-0.38524,0.00947 -0.77048,0.04105 -1.15572,0.09157c-0.09157,0.01895 -0.21788,0.05052 -0.31893,0.07579l-0.01263,0.00315l-0.01579,0.00632c-0.45471,0.06 -0.8368,0.3726 -0.98521,0.80837c-0.15157,0.4326 -0.04106,0.91573 0.28103,1.24414c0.32209,0.3284 0.80206,0.44208 1.23782,0.29998l0.01895,-0.00315c0.00947,0 0.01579,-0.00632 0.0221,-0.00632c0.10105,-0.0221 0.2242,-0.04736 0.31261,-0.07262c0.3663,-0.11683 0.72944,-0.25578 1.07994,-0.41366c0.6789,-0.27472 1.38308,-0.48312 2.09988,-0.61891c0.24946,0.01579 0.48944,0.09789 0.69153,0.24314l0.52734,-0.08842c1.17782,3.65347 3.65031,6.74487 6.94696,8.69634l-0.22104,0.52733c0.10105,0.21157 0.13894,0.4484 0.10736,0.68207c-0.29998,0.68838 -0.66628,1.34834 -1.08941,1.9641c-0.23368,0.30945 -0.4484,0.63154 -0.64733,0.96626c-0.04737,0.09157 -0.10737,0.23052 -0.15473,0.32524c-0.23683,0.39787 -0.22736,0.89363 0.0221,1.28203c0.2463,0.3884 0.6947,0.59997 1.15256,0.54944c0.45787,-0.05368 0.84627,-0.35998 1.001,-0.79575l0.00315,-0.00315l0,-0.00316c0.04421,-0.09157 0.11052,-0.21788 0.14842,-0.3063c0.13577,-0.35998 0.25262,-0.72943 0.34734,-1.10519c0.20841,-0.76417 0.52102,-1.49676 0.93153,-2.1725c0.14525,-0.13263 0.32524,-0.22104 0.52102,-0.25262l0.27157,-0.49576c3.57768,1.37992 7.53429,1.38939 11.11514,0.02841c0.07894,0.13578 0.22103,0.39787 0.25893,0.46418c0.2463,0.04105 0.46734,0.17367 0.61259,0.37576c0.34104,0.64734 0.61892,1.3294 0.82732,2.03041c0.09789,0.37577 0.21472,0.74522 0.3505,1.10836c0.0379,0.08841 0.10421,0.21472 0.14842,0.30945c0.15472,0.43576 0.54312,0.74206 1.00099,0.79574c0.45786,0.05368 0.90626,-0.16104 1.15572,-0.54628c0.24946,-0.3884 0.25894,-0.88731 0.02211,-1.28202c-0.04737,-0.09473 -0.11052,-0.23368 -0.15788,-0.32525c-0.19578,-0.33472 -0.41051,-0.65364 -0.64418,-0.9631c-0.41997,-0.60313 -0.7768,-1.24414 -1.07046,-1.91674c-0.06315,-0.24314 -0.02841,-0.49892 0.09473,-0.71364c-0.07895,-0.15788 -0.14526,-0.32209 -0.20209,-0.48629c3.30928,-1.96726 5.77861,-5.08707 6.9438,-8.75949c0.15473,0.0221 0.4263,0.06947 0.51471,0.08841c0.18315,-0.16736 0.4263,-0.25893 0.67575,-0.24946c0.7168,0.13578 1.42097,0.34419 2.09988,0.61892c0.3505,0.16104 0.71364,0.29998 1.07993,0.41681c0.08842,0.02526 0.21157,0.04736 0.31261,0.06947c0.00631,0 0.01579,0.00315 0.02211,0.00631l0.01894,0.00316c0.43577,0.1421 0.91258,0.02526 1.23467,-0.29999c0.32208,-0.3284 0.4326,-0.81153 0.28419,-1.24414c-0.14841,-0.43576 -0.5305,-0.74838 -0.98521,-0.81153zm-11.44354,-12.30244l-5.14707,3.65979l-0.01895,-0.00947c-0.31577,0.23367 -0.73259,0.27157 -1.08625,0.10105c-0.35366,-0.17052 -0.58417,-0.52102 -0.59996,-0.91258l-0.00632,-0.00315l-0.35682,-6.32489c2.72195,0.33788 5.25443,1.56306 7.21537,3.48926zm-9.69733,6.93434l1.93568,0l1.20624,1.50939l-0.4326,1.88515l-1.7399,0.83995l-1.74306,-0.84311l-0.4326,-1.88199l1.20625,-1.50939zm-1.822,-10.20256c0.42314,-0.09473 0.85258,-0.17052 1.28519,-0.22104l-0.35998,6.33437l-0.02526,0.01263c-0.01579,0.39156 -0.2463,0.74522 -0.59997,0.91573c-0.3505,0.17052 -0.76732,0.13263 -1.08625,-0.09789l-0.00947,0.00631l-5.1818,-3.68504c1.65148,-1.62622 3.71978,-2.75668 5.97754,-3.26507zm-7.85638,5.63336l4.73025,4.2408l-0.00315,0.02842c0.29367,0.25577 0.42313,0.6568 0.33787,1.03888c-0.08841,0.38209 -0.37893,0.68523 -0.75469,0.78943l-0.00631,0.02211l-6.0628,1.75253c-0.30314,-2.74721 0.31893,-5.51652 1.75884,-7.87217zm6.33437,11.26986l-2.40933,5.83861c-2.31145,-1.48413 -4.07029,-3.69137 -5.00497,-6.28068l6.21753,-1.06099l0.00947,0.01579c0.06946,-0.01263 0.13894,-0.01895 0.20841,-0.01895c0.35682,0.00316 0.68207,0.18631 0.87468,0.48313c0.19578,0.29998 0.22736,0.67259 0.08526,1.00099l0.01895,0.0221zm7.11116,7.50903c-2.2546,0.51787 -4.6071,0.39787 -6.79539,-0.3505l3.05666,-5.54494l0.00631,0c0.18315,-0.3442 0.54313,-0.56208 0.93468,-0.56208c0.3884,0 0.74838,0.21473 0.93468,0.55892l0.02211,0l3.06614,5.55441c-0.39787,0.13263 -0.80522,0.24946 -1.2252,0.34419zm3.9503,-1.64832l-2.4346,-5.89545l0.00947,-0.01263c-0.22419,-0.52418 0,-1.13046 0.51471,-1.37992c0.12631,-0.06 0.26524,-0.09789 0.40419,-0.10421c0.0821,-0.00316 0.1642,0 0.2463,0.01579l0.00947,-0.01263l6.27121,1.06414c-0.92521,2.61143 -2.69037,4.83762 -5.02076,6.32806l0,-0.00316zm5.68072,-9.27735l-6.09438,-1.762l-0.00631,-0.02526c-0.37576,-0.1042 -0.66628,-0.40734 -0.75154,-0.78943c-0.08841,-0.38209 0.04105,-0.78311 0.33472,-1.03889l0,-0.01263l4.70183,-4.22186c1.43992,2.34934 2.07777,5.10602 1.81568,7.85007zm0,0"/>
  </g>
 </g>
</svg>