<svg width="100" height="100" xmlns="http://www.w3.org/2000/svg" version="1.1">

 <g>
  <title>Layer 1</title>
  <g id="surface1">
   <path id="svg_1" fill="rgb(92.54902%,92.941176%,92.941176%)" fill-rule="evenodd" d="m16.68359,1.48936c-1.38671,0.80469 -2.57031,1.47657 -2.625,1.48828c-0.2539,0.06641 -5.05468,2.89063 -5,2.94532c0.06641,0.05859 3.38282,1.98047 8.83985,5.11328c1.66797,0.96094 3.82422,2.20312 4.79687,2.76562c0.96875,0.5586 2.89453,1.67188 4.27735,2.47266l2.51562,1.45312l2.52735,-1.45312c1.39062,-0.79688 3.65234,-2.09766 5.02734,-2.88281c1.375,-0.78907 2.54687,-1.47657 2.60547,-1.52735c0.10156,-0.09765 0.00781,-0.15234 -4.94141,-3.0039c-3.0039,-1.73047 -4.96094,-2.85547 -7.65625,-4.41016c-1.41406,-0.82031 -2.58984,-1.48828 -2.60937,-1.48828c-0.01563,0 -0.77735,-0.42969 -1.69141,-0.95313c-0.91016,-0.52343 -2.00391,-1.15625 -2.43359,-1.40234c-0.42969,-0.24609 -0.81641,-0.48047 -0.85547,-0.51953c-0.13672,-0.12891 -0.19141,-0.10156 -2.77735,1.40234m56.35938,2.83594c-1.28516,0.74609 -2.52344,1.45703 -2.74609,1.58203c-0.54297,0.29297 -3.92969,2.2461 -5.98829,3.44922c-0.90234,0.52734 -2.20312,1.28125 -2.89062,1.67969c-1.09375,0.6289 -1.23438,0.73437 -1.10547,0.82031c0.07813,0.05469 1.23828,0.73438 2.58203,1.50781l2.4375,1.41016l5.10156,-2.95313l2.4336,1.40625c1.33594,0.76954 2.48828,1.4375 2.55859,1.48047c0.09766,0.0625 0.75391,-0.28125 2.78906,-1.46093c6.65235,-3.85547 7.5625,-4.38282 7.58204,-4.38282c0.04296,0 5,-2.8789 5.0625,-2.9375c0.04296,-0.04687 -4.54688,-2.77734 -4.95313,-2.94922c-0.03516,-0.01171 -1.21094,0.63672 -2.61328,1.44532l-2.55078,1.47265l-2.53906,-1.46484c-1.39844,-0.80859 -2.60157,-1.46484 -2.6836,-1.46484c-0.07812,0.0039 -1.1914,0.61718 -2.47656,1.35937m-54.89844,8.12109c-0.49609,0.29688 -1.59765,0.9336 -2.44531,1.42188c-1.5,0.85937 -1.53906,0.89062 -1.35547,1.00781c0.54297,0.34375 4.77734,2.75781 4.83594,2.75781c0.03906,0 0.07031,-1.28906 0.07031,-2.86718c0,-2.24219 -0.02344,-2.86719 -0.10156,-2.86328c-0.0586,0.0039 -0.50781,0.25 -1.00391,0.54296m13.89844,9.69922c-1.33203,0.76563 -2.42969,1.42578 -2.44531,1.46485c-0.01172,0.03906 0.98437,0.65234 2.21484,1.35937c1.23047,0.71094 2.35938,1.36719 2.50391,1.45313l0.26953,0.16015l0,-2.91406c0,-1.60547 -0.03125,-2.91797 -0.0625,-2.91797c-0.03516,0 -1.15235,0.62891 -2.48047,1.39453m35.88281,2.95313c-1.30469,0.76172 -2.40625,1.41406 -2.44531,1.45703c-0.04297,0.04297 0.92969,0.64844 2.33203,1.45312c1.32031,0.75782 2.45703,1.41407 2.52344,1.45313c0.10156,0.0625 4.74219,-2.49219 5.10937,-2.8125c0.07813,-0.06641 0.17188,-0.01172 -2.69922,-1.66797c-1.22265,-0.70312 -2.27343,-1.27734 -2.33593,-1.27344c-0.0625,0.00391 -1.1836,0.63282 -2.48438,1.39063m-40.96875,17.71094c-1.32812,0.76953 -2.44531,1.42578 -2.47656,1.45703c-0.05469,0.04687 4.75781,2.89062 4.97656,2.9375c0.1211,0.02734 4.98047,-2.80078 4.97656,-2.89453c-0.00781,-0.08204 -4.83984,-2.90235 -4.97265,-2.90235c-0.04688,0 -1.17188,0.63281 -2.50391,1.40235m33.83594,4.97265c-0.05859,0.09375 -2.52734,6.27344 -2.57422,6.4375c-0.03125,0.11719 0.07031,0.08203 0.48438,-0.16797c0.28515,-0.17578 1.85937,-1.08593 3.49609,-2.02734c1.63281,-0.9375 2.96875,-1.73047 2.96875,-1.75781c0,-0.02735 -0.17578,-0.14453 -0.39063,-0.26563c-0.21093,-0.11719 -1.1875,-0.67969 -2.16796,-1.24609c-0.98047,-0.56641 -1.79688,-1.00391 -1.81641,-0.97266m-13.37891,12.69922c-1.35156,0.78125 -2.45703,1.45313 -2.45703,1.5c0,0.04688 1.1211,0.73047 2.49219,1.51953l2.48828,1.4336l2.53125,-1.45704c1.39063,-0.80078 2.53125,-1.47656 2.53125,-1.49609c-0.00391,-0.02344 -1.15625,-0.6875 -2.56641,-1.48047l-2.5625,-1.43359l-2.45703,1.41406m12.75391,7.48047c0,1.57812 0.01953,2.87109 0.04687,2.87109c0.02735,0 1.17188,-0.65234 2.54688,-1.44531l2.5,-1.44531l-0.23047,-0.14063c-0.98437,-0.59375 -4.70703,-2.70703 -4.77734,-2.70703c-0.0586,0 -0.08594,0.91797 -0.08594,2.86719m-12.73438,4.39453c-1.34375,0.77344 -2.44921,1.44141 -2.45312,1.48047c-0.00391,0.07031 4.86328,2.91797 4.91016,2.87109c0.01562,-0.01953 0.01953,-1.32031 0.00781,-2.89843l-0.01953,-2.86329l-2.44532,1.41016"/>
   <path id="svg_2" fill="rgb(39.215686%,69.803922%,89.019608%)" fill-rule="evenodd" d="m88.62109,7.23936c-1.23828,0.72266 -2.42968,1.40625 -2.64453,1.51953c-0.375,0.19922 -0.51562,0.31641 -0.26562,0.21875c0.10937,-0.04296 0.125,0.3125 0.125,2.87891c0,1.61328 -0.03516,2.91016 -0.07422,2.89844c-0.38281,-0.14844 -4.99219,-2.90625 -4.95313,-2.96485c0.02735,-0.04296 -0.11328,0.01563 -0.3125,0.13672c-0.19921,0.11719 -1.39453,0.8125 -2.65625,1.53907l-2.29687,1.32421l0.02344,5.84766c0.01172,4.12109 -0.00782,5.85156 -0.06641,5.85156c-0.05078,0 -0.07031,0.03125 -0.04687,0.07032c0.02734,0.03906 -1.09766,0.73046 -2.49219,1.53125l-2.53516,1.46093l-0.0039,2.91016c-0.00391,1.60156 -0.01954,2.91797 -0.03125,2.93359c-0.01172,0.01172 -0.84766,-0.45703 -1.86329,-1.04297c-1.01171,-0.58203 -1.86328,-1.05859 -1.89453,-1.0625c-0.02734,0 -0.32812,0.69141 -0.66406,1.53907l-0.61328,1.53515l-0.05859,6.875c-0.03125,3.78125 -0.07422,6.92188 -0.09766,6.98047c-0.02344,0.0586 -1.375,0.8711 -3.00781,1.8086c-1.63282,0.9375 -3.19532,1.84375 -3.47266,2.01171c-0.33984,0.20704 -0.51953,0.27735 -0.54687,0.21094c-0.02735,-0.0625 -0.04297,-0.05469 -0.04688,0.02344c-0.00781,0.16797 -2.94141,7.46875 -3.0625,7.63281c-0.05859,0.07031 -1.23828,0.78516 -2.625,1.58594c-2.19141,1.26562 -2.50781,1.47266 -2.37891,1.55469c0.08204,0.05468 1.19922,0.70312 2.48438,1.4375c1.28516,0.73828 2.38281,1.38281 2.4375,1.43359c0.08203,0.07422 0.10156,1.33203 0.08203,5.95313l-0.01953,5.86328l-2.5,-1.44532l-2.50391,-1.44531l-0.03906,-2.98437l-0.04297,-2.98828l-0.03906,2.97265c-0.02344,1.63281 -0.01563,2.97266 0.01953,2.97266c0.03125,0 0.07031,1.32031 0.08203,2.9375l0.01953,2.9375l1.02735,-0.58594c0.5625,-0.32422 2.41015,-1.38281 4.09765,-2.35547c1.69141,-0.96875 4.48047,-2.5664 6.19141,-3.54687c1.71484,-0.98047 3.32031,-1.90625 3.57031,-2.05469l0.44922,-0.27344l1.05859,-2.5664c0.58204,-1.41016 1.50782,-3.65625 2.0586,-4.98438c0.55078,-1.33203 1.30469,-3.15625 1.67578,-4.05859c0.375,-0.90235 1.25,-3.02344 1.94922,-4.71485c0.69922,-1.6875 1.64844,-3.99218 2.11328,-5.12109c0.46484,-1.12891 1.63672,-3.96875 2.60547,-6.3125c0.96875,-2.34375 2.76562,-6.69531 3.99219,-9.67188c1.22656,-2.97265 2.27734,-5.51953 2.33593,-5.65625c0.21094,-0.49609 0.63672,-1.52343 1.44141,-3.48046c0.45312,-1.10547 0.91016,-2.21094 1.01562,-2.46094c0.10547,-0.2461 0.39844,-0.94922 0.64844,-1.5586c0.25,-0.60546 0.97656,-2.3789 1.6211,-3.93359c1.23828,-3.00781 1.375,-3.33594 1.82031,-4.42578c0.15625,-0.38281 0.50781,-1.25 0.78515,-1.92188l0.50391,-1.22656l0,-2.93359c0,-1.61328 -0.02734,-2.9336 -0.0625,-2.92969c-0.03125,0.00391 -1.07422,0.59766 -2.31641,1.32031m-74.57812,1.62891c0.02734,0.04297 0.04687,1.38281 0.04687,2.98047c-0.0039,2.65625 0.00782,2.91015 0.14063,3.01172c0.125,0.09765 0.12891,0.09765 0.03906,-0.01953c-0.08594,-0.10938 -0.07031,-0.14454 0.09375,-0.21875c0.10938,-0.05079 1.21485,-0.67969 2.45703,-1.40235c1.24219,-0.71875 2.31641,-1.32031 2.38282,-1.33594c0.07031,-0.01562 -0.40235,-0.32812 -1.04297,-0.6914c-0.64063,-0.36719 -1.83985,-1.0586 -2.66407,-1.53516c-0.82421,-0.47656 -1.47656,-0.83203 -1.45312,-0.78906m23.08203,4.45703c-6.06641,3.51563 -7.63281,4.39844 -7.73047,4.34375c-0.07422,-0.04297 -0.07422,-0.03125 0.00391,0.05469c0.07812,0.08203 0.10156,0.80469 0.10156,3.02344l0,2.91406l7.67578,19.20703c4.22656,10.56641 7.70703,19.16797 7.73828,19.11719c0.21094,-0.33985 4.97266,-2.92188 5.16797,-2.80469l0.20313,0.125l-0.1836,-0.18359l-0.18359,-0.17969l0,-15l-1.64453,-4.28125c-0.90235,-2.35547 -1.67969,-4.3711 -1.73047,-4.48438c-0.10938,-0.26172 -5.73438,-14.85547 -6.14453,-15.9414c-0.16797,-0.45313 -0.36328,-0.95703 -0.4375,-1.125c-0.10938,-0.26172 -0.12891,-0.75 -0.12891,-3.30078c0,-1.64454 -0.02734,-2.99219 -0.0625,-2.98829c-0.03125,0.00391 -1.22265,0.6836 -2.64453,1.50391m30.75,-0.03516l-2.5,1.46094l-0.02344,2.96094l-0.01953,2.96484l0.34766,-0.20312c1.60937,-0.92969 2.96094,-1.71094 3.76953,-2.16797l0.96094,-0.54688l0.02343,-2.97265c0.01563,-1.63281 0.00782,-2.96485 -0.01562,-2.96094c-0.02344,0.00391 -1.16797,0.66406 -2.54297,1.46484m-33.28906,10.37891l0,2.91406l-0.26953,-0.16015c-0.14453,-0.08594 -1.27344,-0.74219 -2.50391,-1.45313c-1.23047,-0.70703 -2.22656,-1.32031 -2.21484,-1.35937c0.02734,-0.07422 4.82031,-2.85938 4.92578,-2.85938c0.03125,0 0.0625,1.3125 0.0625,2.91797m2.6914,-1.45312l2.47266,1.42578l0,2.94531c0,1.62109 -0.03125,2.93359 -0.07031,2.92187c-0.03516,-0.01562 -1.17969,-0.67187 -2.53906,-1.45312l-2.47657,-1.42578l0,-2.94531c0,-1.6211 0.03516,-2.9375 0.07422,-2.92188c0.03906,0.01563 1.17969,0.67188 2.53906,1.45313m-12.9414,19.1875l0,2.94921l0.18359,0.08985c0.16797,0.08203 0.17188,0.07812 0.03516,-0.03125c-0.13281,-0.10938 -0.00781,-0.19922 1.51953,-1.08203c0.91406,-0.53125 2.04297,-1.1875 2.50781,-1.45703c0.7461,-0.4336 0.86719,-0.47657 1.04688,-0.39844c0.10937,0.05078 0.19922,0.07422 0.19922,0.05078c0,-0.02344 -0.15625,-0.10938 -0.34766,-0.19141c-0.19141,-0.08203 -1.41016,-0.76562 -2.70313,-1.51562c-1.29687,-0.75 -2.375,-1.36328 -2.39843,-1.36328c-0.02735,0 -0.04297,1.32812 -0.04297,2.94922m51.25,-0.03125c0,2.5664 -0.01563,2.91406 -0.125,2.87109c-0.64844,-0.24609 -5.06641,-2.91406 -4.92188,-2.96875c0.04688,-0.01953 1.17188,-0.66016 2.50391,-1.42578c1.32812,-0.76563 2.44531,-1.39063 2.48047,-1.39453c0.03125,0 0.0625,1.3164 0.0625,2.91797m-41.98438,2.36718c0,0.01953 0.10938,0.09766 0.2461,0.16797c0.13281,0.07031 0.24609,0.10938 0.24609,0.08594c0,-0.02344 -0.11328,-0.09766 -0.24609,-0.16797c-0.13672,-0.07031 -0.2461,-0.10937 -0.2461,-0.08594m0.72266,0.42969l0.19141,0.13672l-0.19141,0.15625l-0.19141,0.16016l0.19922,-0.11719c0.28516,-0.16797 0.29297,-0.26953 0.02735,-0.37891l-0.22657,-0.09375l0.19141,0.13672m-9.00781,0.71484c0,0.02344 0.11328,0.10157 0.24609,0.16797c0.13672,0.07032 0.24609,0.10938 0.24609,0.08985c0,-0.02344 -0.10937,-0.10157 -0.24609,-0.16797c-0.13281,-0.07031 -0.24609,-0.10938 -0.24609,-0.08985m35.58984,2.8711c0,0.02344 0.10938,0.09765 0.24609,0.16797c0.13672,0.07031 0.2461,0.10937 0.2461,0.08593c0,-0.02343 -0.10938,-0.09765 -0.2461,-0.16796c-0.13671,-0.07032 -0.24609,-0.10938 -0.24609,-0.08594m-9.83984,11.96484c0,0.02344 0.10937,0.10156 0.24609,0.17188c0.13672,0.0664 0.24609,0.10547 0.24609,0.08593c0,-0.02343 -0.10937,-0.10156 -0.24609,-0.16796c-0.13672,-0.07032 -0.24609,-0.10938 -0.24609,-0.08985m1.3125,0.73828c0,0.02344 0.10937,0.09766 0.24609,0.16797c0.13281,0.07031 0.24609,0.10938 0.24609,0.08594c0,-0.01953 -0.11328,-0.09766 -0.24609,-0.16797c-0.13672,-0.06641 -0.24609,-0.10547 -0.24609,-0.08594m1.3125,0.73828c0,0.02344 0.10937,0.09766 0.24609,0.16797c0.13281,0.07032 0.24609,0.10938 0.24609,0.08594c0,-0.01953 -0.11328,-0.09766 -0.24609,-0.16797c-0.13672,-0.07031 -0.24609,-0.10937 -0.24609,-0.08594m11.625,3.79688l-0.02344,2.92969l-2.5,1.45312c-1.375,0.79688 -2.53125,1.45313 -2.5625,1.45313c-0.03516,0 -0.0625,-1.28907 -0.0625,-2.86719c0,-1.85547 0.02734,-2.86719 0.08203,-2.86719c0.04688,0 0.07422,-0.03515 0.0625,-0.08203c-0.01953,-0.07031 4.80078,-2.93359 4.96094,-2.94531c0.03515,-0.00391 0.05469,1.3125 0.04297,2.92578m-30.73047,0.01953c0,2.44141 0.01562,2.875 0.11328,2.85547c0.15625,-0.03516 4.96484,-2.80469 4.96484,-2.85547c-0.0039,-0.05078 -4.82031,-2.81641 -4.97265,-2.85547c-0.08594,-0.01953 -0.10547,0.51172 -0.10547,2.85547m3.01172,33.33984c0.14843,0.01563 0.37109,0.01563 0.49218,-0.0039c0.125,-0.01563 0.00391,-0.03125 -0.26562,-0.03125c-0.27344,0 -0.37109,0.01562 -0.22656,0.03515"/>
   <path id="svg_3" fill="rgb(16.470588%,57.647059%,80%)" fill-rule="evenodd" d="m80.58594,2.92296c0,2.27343 0.02344,2.91015 0.10156,2.90625c0.16406,0 4.98438,-2.81641 4.98438,-2.90625c0,-0.08985 -4.82032,-2.90625 -4.98438,-2.91016c-0.07812,0 -0.10156,0.63672 -0.10156,2.91016m-71.58594,6.07812l0,3.01953l3.17969,7.70703l3.17969,7.70313l1.90234,1.09766l1.90625,1.10156l0,7.03125l6.57031,15.91797c3.61328,8.7539 7.06641,17.11718 7.66797,18.58203c0.60547,1.46484 1.14453,2.70312 1.19922,2.7539c0.13672,0.1211 15.15234,8.75391 15.28906,8.78907c0.08594,0.01953 0.10547,-0.53125 0.10547,-2.91016l0,-2.9375l-2.44141,-1.41016c-1.33984,-0.77343 -2.5039,-1.42968 -2.58203,-1.46093c-0.07812,-0.03125 -0.14062,-0.08594 -0.14062,-0.1211c0,-0.07422 4.95312,-2.94922 5.07812,-2.94922c0.05469,0 0.08985,1.04297 0.10547,2.96485l0.01953,2.96875l0.94532,0.54297c0.51953,0.29687 1.65234,0.95312 2.52343,1.45312l1.57813,0.91406l-0.02344,-5.91406l-0.01953,-5.91406l-2.58203,-1.49609c-1.42188,-0.82422 -3.71875,-2.15235 -5.10547,-2.95313l-2.51953,-1.46094l-15.29688,-38.19531l-0.03906,-3.03125l-0.03906,-3.03516l-2.21485,-1.27734c-1.21875,-0.70312 -3.5,-2.02344 -5.07421,-2.92969c-1.57032,-0.91015 -2.8711,-1.65234 -2.89063,-1.65234c-0.01562,0 -0.03125,1.30859 -0.03125,2.91016c0,1.59765 -0.02734,2.90625 -0.0625,2.90234c-0.03125,0 -1.1875,-0.65625 -2.5625,-1.45703l-2.5,-1.44922l-0.03125,-5.89844l-2.44531,-1.42187c-1.34375,-0.78125 -2.48828,-1.44141 -2.54688,-1.46485c-0.07812,-0.03125 -0.10156,0.59375 -0.10156,2.98047m74.29297,1.34766c-1.33203,0.76562 -2.44922,1.42187 -2.48047,1.45703c-0.04687,0.04297 4.60156,2.8125 4.94922,2.94922c0.03906,0.01172 0.07422,-1.28125 0.07422,-2.89063c0,-1.60547 -0.03125,-2.91797 -0.0625,-2.91406c-0.03516,0 -1.15235,0.62891 -2.48047,1.39844m-23.20703,4.48047l0,2.93359l-2.54297,6.59375l-2.53906,6.59375l0,7.40625l-1.8086,1.04297c-0.99218,0.57031 -1.83984,1.10547 -1.8789,1.18359c-0.04297,0.07813 -0.375,0.90625 -0.73828,1.83985l-0.66016,1.70312l0,7.39063c0,4.0625 0.03125,7.43359 0.06641,7.48828c0.09375,0.14844 5.01562,2.90234 5.09765,2.85547c0.0586,-0.03907 1.76953,-4.30078 3.76953,-9.38672c1.28125,-3.26953 1.90625,-4.75781 1.99219,-4.75781c0.04688,0 1.04297,0.55859 2.21484,1.23828c1.17188,0.67578 2.14063,1.22265 2.15625,1.20703c0.01172,-0.01563 0.05079,-3.125 0.08204,-6.91016l0.05859,-6.88672l0.61328,-1.53515c0.33594,-0.84766 0.63672,-1.53907 0.66406,-1.53907c0.03125,0.00391 0.88282,0.48047 1.89453,1.0625c1.01563,0.58594 1.85157,1.05469 1.86329,1.04297c0.01171,-0.01562 0.02734,-1.32812 0.03125,-2.92187l0.0039,-2.89844l-2.52344,-1.45703c-1.38671,-0.80078 -2.53125,-1.48438 -2.54296,-1.52344c-0.01563,-0.05078 4.41015,-2.65234 4.96484,-2.91797c0.10156,-0.04687 0.8125,0.32422 2.625,1.3711c1.37109,0.79297 2.52344,1.4414 2.5625,1.4414c0.04297,0 0.06641,-2.42968 0.05078,-5.83593l-0.01953,-5.83594l-2.52734,-1.46094c-1.39063,-0.80078 -2.54297,-1.45703 -2.5625,-1.45703c-0.01954,0 -0.03516,1.31641 -0.03516,2.92969l-0.00391,2.92968l-0.83984,0.47266c-0.46094,0.25781 -1.59375,0.91016 -2.51953,1.44531l-1.67969,0.97266l-0.02344,-2.92188l-0.02343,-2.91796l-2.52735,-1.45704c-1.39062,-0.80078 -2.57031,-1.45312 -2.62109,-1.45312c-0.06641,0 -0.09375,0.80078 -0.09375,2.92969m-25.42188,8.85547l0,2.94531l2.47657,1.42578c1.35937,0.78125 2.5039,1.4375 2.53906,1.45312c0.03906,0.01172 0.07031,-1.30078 0.07031,-2.92187l0,-2.94531l-2.47266,-1.42578c-1.35937,-0.78125 -2.5,-1.4375 -2.53906,-1.45313c-0.03906,-0.01562 -0.07422,1.30078 -0.07422,2.92188m-7.83203,16.16406c1.32422,0.76562 2.48438,1.42187 2.57422,1.45703c0.39453,0.14453 5.16797,2.9375 5.14844,3.00781c-0.01563,0.04297 -1.16016,0.73438 -2.54688,1.53516l-2.52343,1.45703l-5.14844,-2.96875l0,-2.94141c0,-1.61718 0.01562,-2.9414 0.03906,-2.9414c0.02734,0 1.12891,0.6289 2.45703,1.39453m46.21094,0c-1.33203,0.76562 -2.45703,1.40625 -2.50391,1.42578c-0.14453,0.05469 4.27344,2.72266 4.92188,2.96875c0.10937,0.04297 0.125,-0.30469 0.125,-2.87109c0,-1.60157 -0.03125,-2.91797 -0.0625,-2.91797c-0.03516,0.0039 -1.15235,0.6289 -2.48047,1.39453m-10.29297,23.64844c-1.35156,0.78515 -2.45312,1.45312 -2.44141,1.48046c0.01563,0.04688 4.92969,2.90235 4.9961,2.90235c0.01562,0 0.03125,-1.3086 0.03125,-2.90625c0,-1.60156 -0.03125,-2.91016 -0.0625,-2.90625c-0.03516,0 -1.16797,0.64453 -2.52344,1.42969m-25.51953,0.08203c1.33594,0.76562 2.43359,1.41015 2.43359,1.43359c0,0.05078 -4.80859,2.82031 -4.96484,2.85547c-0.09766,0.01953 -0.11328,-0.41406 -0.11328,-2.85547c0,-2.34375 0.01953,-2.875 0.10547,-2.85547c0.05859,0.01563 1.20312,0.65625 2.53906,1.42188m-1.08984,23.35547c-1.45313,0.30078 -2.34766,1.14843 -2.625,2.47265c-0.19532,0.9375 -0.06641,8.03906 0.15625,8.58985c0.75781,1.88281 3.76562,2.49218 7.65625,1.55859l0.55468,-0.13281l0,-5.64063l-1.72265,0l0,2.17188c0,1.67968 -0.02344,2.17578 -0.10157,2.17968c-0.05859,0.00391 -0.17578,0.02344 -0.26953,0.04297c-1.17578,0.25 -3.10937,0.1836 -3.72656,-0.1289c-0.83203,-0.42578 -0.9375,-1.03907 -0.88281,-5.20703c0.04687,-3.57032 0.14844,-3.90625 1.2539,-4.22657c0.5625,-0.16406 3.00391,-0.14843 4.09375,0.02735c0.44922,0.07031 0.82813,0.12109 0.83594,0.11328c0.04297,-0.04297 0.21485,-1.53125 0.1836,-1.5625c-0.27344,-0.27344 -4.38672,-0.47266 -5.40625,-0.25781m-25.7461,0.14843c0.00391,0.05469 0.9375,2.92188 2.07813,6.3711l2.07812,6.27343l2.4375,0l2.07422,-6.27343c1.14063,-3.44922 2.07422,-6.31641 2.07422,-6.375c0,-0.08203 -0.20313,-0.09766 -0.87109,-0.08203l-0.8711,0.02343l-1.3125,3.97657c-0.71875,2.1875 -1.53515,4.67187 -1.8125,5.52343l-0.5039,1.54688l-1.82813,-5.54297l-1.83203,-5.54297l-0.85547,0c-0.63281,0 -0.85547,0.02344 -0.85547,0.10156m14.16797,1.51563c-2.15625,6.39062 -3.75391,11.1289 -3.75391,11.14844c0,0.01171 0.41407,0.01953 0.92188,0.01953l0.92578,0l0.99219,-2.99219l5.30469,0l0.5,1.49609l0.49609,1.4961l0.92187,0c0.50782,0 0.92579,-0.01172 0.92579,-0.02735c0,-0.01172 -0.70313,-2.10547 -1.56641,-4.64843c-0.85938,-2.54688 -1.82422,-5.41016 -2.14453,-6.36719l-0.58594,-1.74219l-2.39062,0l-0.54688,1.61719m20.27344,4.77344l0,6.39453l1.71875,0l0,-4.58985l1.49609,0l1.5,0.00391l1.55469,2.28906l1.55859,2.29297l1.05078,0c0.82032,0.00391 1.03516,-0.01953 0.98829,-0.09766c-0.0586,-0.09375 -0.53516,-0.80078 -2.2461,-3.32812c-0.29297,-0.4375 -0.62109,-0.91016 -0.73047,-1.05859c-0.10937,-0.14454 -0.18359,-0.27344 -0.16406,-0.28516c0.01953,-0.01563 0.20703,-0.10547 0.41797,-0.20313c0.55078,-0.25781 0.93359,-0.625 1.19531,-1.15625l0.22656,-0.46484l0,-4.17969l-0.23046,-0.46875c-0.66016,-1.34765 -1.32813,-1.53906 -5.36329,-1.53906l-2.97265,0l0,6.39063m14.53906,-3.91407c-1.05469,3.14063 -3.39844,10.07032 -3.44922,10.20703c-0.03125,0.07813 0.17969,0.10157 0.89453,0.10157l0.9336,0l0.99218,-2.99219l5.30469,0l0.99219,2.99219l0.92578,0c0.50781,0 0.92188,-0.01172 0.92188,-0.02735c0,-0.01172 -0.8711,-2.60547 -1.9336,-5.75781c-1.0664,-3.15234 -2.02734,-6.01562 -2.13672,-6.36719l-0.20312,-0.63281l-2.41016,0l-0.83203,2.47656m9.48438,3.91407l0,6.39453l1.72265,0l0.01953,-5.23047l0.01953,-5.23438l2.67579,5.21094l2.67187,5.21484l1.24219,0.01954l1.24219,0.02343l0,-12.78906l-1.71875,0l-0.02344,5.28125l-0.01953,5.28516l-1.04688,-2.06641c-0.57812,-1.13672 -1.78125,-3.50391 -2.67578,-5.26562l-1.62891,-3.19532l-1.24218,-0.02343l-1.23828,-0.01954l0,6.39454m11.39843,-5.61329l0,0.77735l3.85547,0l0,11.23047l1.72266,0l0,-11.23047l3.85156,0l0,-1.55469l-9.42969,0l0,0.77734m-30.11718,0.85547c1.35546,0.15625 1.53906,0.45313 1.53906,2.46485c0,2.41797 -0.17188,2.53906 -3.66797,2.53906l-1.45703,0l0,-5.08203l1.49609,0.0039c0.82422,0.00391 1.76563,0.03516 2.08985,0.07422m-22.73438,3.29688c0.56641,1.74219 1.02734,3.1914 1.02734,3.21484c0,0.02735 -0.96093,0.05078 -2.13281,0.05078c-1.17187,0 -2.1289,-0.01562 -2.1289,-0.03906c0,-0.01953 0.05078,-0.19531 0.11328,-0.38672c0.0625,-0.19531 0.53125,-1.625 1.03515,-3.17969c0.9336,-2.8789 0.99219,-3.04687 1.03516,-2.90625c0.01172,0.04297 0.48437,1.50391 1.05078,3.2461m35.26953,0.52734c0.46875,1.44922 0.85547,2.65625 0.85547,2.6836c0,0.03125 -0.96484,0.05468 -2.14062,0.05468l-2.13672,0l0.05859,-0.18359c0.35156,-1.12891 2.03125,-6.26953 2.07031,-6.32813c0.02344,-0.04296 0.13282,0.19532 0.24219,0.53125c0.10547,0.33594 0.57813,1.79688 1.05078,3.24219"/>
  </g>
 </g>
</svg>