<?xml version="1.0" encoding="UTF-8" standalone="no"?>
<svg
   viewBox="0 0 32 32"
   version="1.1"
   id="svg4"
   sodipodi:docname="darkMode.svg"
   inkscape:version="1.2.2 (732a01da63, 2022-12-09)"
   xmlns:inkscape="http://www.inkscape.org/namespaces/inkscape"
   xmlns:sodipodi="http://sodipodi.sourceforge.net/DTD/sodipodi-0.dtd"
   xmlns="http://www.w3.org/2000/svg"
   xmlns:svg="http://www.w3.org/2000/svg">
  <defs
     id="defs8" />
  <sodipodi:namedview
     id="namedview6"
     pagecolor="#ffffff"
     bordercolor="#000000"
     borderopacity="0.25"
     inkscape:showpageshadow="2"
     inkscape:pageopacity="0.0"
     inkscape:pagecheckerboard="0"
     inkscape:deskcolor="#d1d1d1"
     showgrid="false"
     inkscape:zoom="26.03125"
     inkscape:cx="16"
     inkscape:cy="16"
     inkscape:window-width="1920"
     inkscape:window-height="991"
     inkscape:window-x="-9"
     inkscape:window-y="1341"
     inkscape:window-maximized="1"
     inkscape:current-layer="svg4" />
  <path
     d="M30.837 17.324a1.499 1.499 0 0 0-1.655-.013 10.407 10.407 0 0 1-5.694 1.684c-5.78 0-10.484-4.703-10.484-10.484 0-2.032.583-4 1.684-5.693A1.502 1.502 0 0 0 13.146.527C5.818 1.943.5 8.397.5 15.871.5 24.489 7.51 31.5 16.128 31.5c7.475 0 13.928-5.319 15.345-12.648a1.499 1.499 0 0 0-.636-1.528zM16.128 28.5C9.165 28.5 3.5 22.835 3.5 15.87c0-4.92 2.853-9.293 7.11-11.363a13.47 13.47 0 0 0-.606 4.004c0 7.435 6.05 13.484 13.484 13.484 1.37 0 2.719-.206 4.005-.607A12.654 12.654 0 0 1 16.128 28.5z"
     id="path2"
     style="fill:#ffffff" />
</svg>
