<?xml version="1.0" encoding="UTF-8" standalone="no"?>
<svg
   enable-background="new 0 0 32 32"
   viewBox="0 0 32 32"
   version="1.1"
   id="svg4"
   sodipodi:docname="hamburgherMenuLight.svg"
   inkscape:version="1.2.2 (732a01da63, 2022-12-09)"
   xmlns:inkscape="http://www.inkscape.org/namespaces/inkscape"
   xmlns:sodipodi="http://sodipodi.sourceforge.net/DTD/sodipodi-0.dtd"
   xmlns="http://www.w3.org/2000/svg"
   xmlns:svg="http://www.w3.org/2000/svg">
  <defs
     id="defs8" />
  <sodipodi:namedview
     id="namedview6"
     pagecolor="#ffffff"
     bordercolor="#000000"
     borderopacity="0.25"
     inkscape:showpageshadow="2"
     inkscape:pageopacity="0.0"
     inkscape:pagecheckerboard="0"
     inkscape:deskcolor="#d1d1d1"
     showgrid="false"
     inkscape:zoom="26.03125"
     inkscape:cx="16"
     inkscape:cy="16"
     inkscape:window-width="1920"
     inkscape:window-height="991"
     inkscape:window-x="-9"
     inkscape:window-y="1341"
     inkscape:window-maximized="1"
     inkscape:current-layer="svg4" />
  <path
     d="M29.5625 5.3092H2.4375C1.36896 5.3092.5 6.17816.5 7.2467s.86896 1.9375 1.9375 1.9375h27.125c1.06812 0 1.9375-.86896 1.9375-1.9375S30.63062 5.3092 29.5625 5.3092zM29.5625 14.0625H2.4375C1.36896 14.0625.5 14.93146.5 16s.86896 1.9375 1.9375 1.9375h27.125c1.06812 0 1.9375-.86896 1.9375-1.9375S30.63062 14.0625 29.5625 14.0625zM29.5625 22.8158H2.4375c-1.06854 0-1.9375.8689-1.9375 1.9375 0 1.06854.86896 1.9375 1.9375 1.9375h27.125c1.06812 0 1.9375-.86896 1.9375-1.9375C31.5 23.68469 30.63062 22.8158 29.5625 22.8158z"
     id="path2"
     style="fill:#ffffff" />
</svg>
