<?xml version="1.0" encoding="UTF-8" standalone="no"?>
<svg
   xmlns:dc="http://purl.org/dc/elements/1.1/"
   xmlns:cc="http://creativecommons.org/ns#"
   xmlns:rdf="http://www.w3.org/1999/02/22-rdf-syntax-ns#"
   xmlns:svg="http://www.w3.org/2000/svg"
   xmlns="http://www.w3.org/2000/svg"
   viewBox="0 0 1122.52 793.70667"
   height="793.70667"
   width="1122.52"
   xml:space="preserve"
   id="svg2"
   version="1.1"><metadata
     id="metadata8"><rdf:RDF><cc:Work
         rdf:about=""><dc:format>image/svg+xml</dc:format><dc:type
           rdf:resource="http://purl.org/dc/dcmitype/StillImage" /></cc:Work></rdf:RDF></metadata><defs
     id="defs6"><clipPath
       id="clipPath22"
       clipPathUnits="userSpaceOnUse"><path
         id="path20"
         d="M 0,595.28 H 841.89 V 0 H 0 Z" /></clipPath></defs><g
     transform="matrix(1.3333333,0,0,-1.3333333,0,793.70667)"
     id="g10"><g
       transform="translate(498.7129,213.2432)"
       id="g12"><path
         id="path14"
         style="fill:#e76f00;fill-opacity:1;fill-rule:nonzero;stroke:none"
         d="M 0,0 H -0.018 L -1.107,-2.91 H -1.606 L -2.688,0 h -0.014 v -2.91 h -0.725 v 3.684 h 1.067 l 1.004,-2.609 1,2.609 H 0.706 V -2.91 H -10e-4 V 0 Z m -5.905,0.16 h -1.1 v 0.615 h 2.961 V 0.16 h -1.093 v -3.07 h -0.768 z" /></g><g
       id="g16"><g
         clip-path="url(#clipPath22)"
         id="g18"><g
           transform="translate(394.3613,288.751)"
           id="g24"><path
             id="path26"
             style="fill:#5382a1;fill-opacity:1;fill-rule:nonzero;stroke:none"
             d="m 0,0 c 0,0 -7.651,-4.449 5.445,-5.955 15.866,-1.811 23.975,-1.551 41.459,1.758 0,0 4.597,-2.881 11.017,-5.378 C 18.726,-26.374 -30.786,-8.603 0,0" /></g><g
           transform="translate(389.5713,310.6724)"
           id="g28"><path
             id="path30"
             style="fill:#5382a1;fill-opacity:1;fill-rule:nonzero;stroke:none"
             d="m 0,0 c 0,0 -8.581,-6.353 4.524,-7.708 16.95,-1.749 30.334,-1.892 53.495,2.568 0,0 3.204,-3.248 8.241,-5.024 C 18.869,-24.021 -33.914,-11.257 0,0" /></g><g
           transform="translate(429.9482,347.8574)"
           id="g32"><path
             id="path34"
             style="fill:#e76f00;fill-opacity:1;fill-rule:nonzero;stroke:none"
             d="m 0,0 c 9.658,-11.119 -2.537,-21.125 -2.537,-21.125 0,0 24.522,12.659 13.261,28.512 C 0.205,22.17 -7.861,29.516 35.807,54.841 35.807,54.841 -32.737,37.722 0,0" /></g><g
           transform="translate(481.7881,272.5371)"
           id="g36"><path
             id="path38"
             style="fill:#5382a1;fill-opacity:1;fill-rule:nonzero;stroke:none"
             d="m 0,0 c 0,0 5.661,-4.666 -6.236,-8.274 -22.624,-6.854 -94.164,-8.924 -114.038,-0.274 -7.144,3.108 6.253,7.421 10.467,8.326 4.395,0.953 6.907,0.776 6.907,0.776 -7.945,5.595 -51.353,-10.991 -22.049,-15.741 C -45.033,-28.146 20.729,-9.351 0,0" /></g><g
           transform="translate(398.041,333.3848)"
           id="g40"><path
             id="path42"
             style="fill:#5382a1;fill-opacity:1;fill-rule:nonzero;stroke:none"
             d="m 0,0 c 0,0 -36.391,-8.643 -12.887,-11.782 9.924,-1.328 29.706,-1.028 48.134,0.516 15.06,1.27 30.182,3.971 30.182,3.971 0,0 -5.311,-2.274 -9.153,-4.897 -36.953,-9.719 -108.339,-5.197 -87.789,4.744 C -14.132,0.953 0,0 0,0" /></g><g
           transform="translate(463.3193,296.896)"
           id="g44"><path
             id="path46"
             style="fill:#5382a1;fill-opacity:1;fill-rule:nonzero;stroke:none"
             d="m 0,0 c 37.565,19.52 20.197,38.279 8.073,35.751 -2.97,-0.618 -4.296,-1.154 -4.296,-1.154 0,0 1.104,1.728 3.21,2.476 23.983,8.432 42.427,-24.868 -7.742,-38.057 0,-0.001 0.582,0.52 0.755,0.984" /></g><g
           transform="translate(440.6719,443.5933)"
           id="g48"><path
             id="path50"
             style="fill:#e76f00;fill-opacity:1;fill-rule:nonzero;stroke:none"
             d="m 0,0 c 0,0 20.804,-20.811 -19.732,-52.813 -32.505,-25.67 -7.413,-40.307 -0.013,-57.03 -18.975,17.12 -32.899,32.19 -23.557,46.215 C -29.591,-43.039 8.394,-33.057 0,0" /></g><g
           transform="translate(401.7314,244.001)"
           id="g52"><path
             id="path54"
             style="fill:#5382a1;fill-opacity:1;fill-rule:nonzero;stroke:none"
             d="m 0,0 c 36.058,-2.309 91.428,1.281 92.739,18.342 0,0 -2.52,-6.467 -29.8,-11.604 C 32.164,0.946 -5.793,1.623 -28.307,5.334 -28.306,5.334 -23.698,1.52 0,0" /></g><g
           transform="translate(405.208,168.2197)"
           id="g56"><path
             id="path58"
             style="fill:#e76f00;fill-opacity:1;fill-rule:nonzero;stroke:none"
             d="m 0,0 v 32.779 c 0,8.375 -4.775,13.9 -16.291,13.9 -6.723,0 -12.611,-1.659 -17.397,-3.777 l 1.381,-5.802 c 3.768,1.382 8.647,2.67 13.434,2.67 6.634,0 9.487,-2.67 9.487,-8.192 v -4.143 h -3.31 c -16.117,0 -23.388,-6.257 -23.388,-15.647 0,-8.104 4.791,-12.712 13.813,-12.712 5.798,0 10.126,2.395 14.173,5.899 l 0.735,-4.977 H 0 Z m -9.386,10.589 c -3.401,-2.95 -6.993,-4.607 -10.218,-4.607 -4.601,0 -7.087,2.76 -7.087,7.186 0,4.787 2.664,8.287 13.35,8.287 h 3.955 V 10.589" /></g><g
           transform="translate(436.5322,168.2197)"
           id="g60"><path
             id="path62"
             style="fill:#e76f00;fill-opacity:1;fill-rule:nonzero;stroke:none"
             d="m 0,0 h -11.706 l -14.089,45.849 h 10.224 l 8.741,-28.17 1.943,-8.472 c 4.423,12.249 7.551,24.676 9.116,36.642 h 9.944 C 11.509,30.751 6.714,14.18 0,0" /></g><g
           transform="translate(490.8232,168.2197)"
           id="g64"><path
             id="path66"
             style="fill:#e76f00;fill-opacity:1;fill-rule:nonzero;stroke:none"
             d="m 0,0 v 32.779 c 0,8.375 -4.787,13.9 -16.289,13.9 -6.728,0 -12.618,-1.659 -17.402,-3.777 l 1.379,-5.802 c 3.77,1.382 8.657,2.67 13.441,2.67 6.629,0 9.487,-2.67 9.487,-8.192 V 27.435 H -12.7 c -16.121,0 -23.389,-6.257 -23.389,-15.647 0,-8.104 4.787,-12.712 13.807,-12.712 5.802,0 10.129,2.395 14.181,5.899 l 0.738,-4.977 H 0 Z m -9.384,10.589 c -3.408,-2.95 -7.007,-4.607 -10.231,-4.607 -4.593,0 -7.086,2.76 -7.086,7.186 0,4.787 2.67,8.287 13.355,8.287 h 3.962 V 10.589" /></g><g
           transform="translate(358.833,160.4326)"
           id="g68"><path
             id="path70"
             style="fill:#e76f00;fill-opacity:1;fill-rule:nonzero;stroke:none"
             d="m 0,0 c -2.676,-3.906 -6.997,-6.996 -11.729,-8.746 l -4.633,5.453 c 3.601,1.848 6.689,4.834 8.124,7.613 1.241,2.471 1.756,5.659 1.756,13.278 V 69.942 H 3.489 V 18.314 C 3.488,8.129 2.674,4.014 0,0" /></g></g></g></g></svg>